%FSTAX44Y44*%
%MOMM*%
%SFA1B1*%

%IPPOS*%
%AMD16*
4,1,8,0.299720,0.551180,-0.299720,0.551180,-0.500380,0.350520,-0.500380,-0.350520,-0.299720,-0.551180,0.299720,-0.551180,0.500380,-0.350520,0.500380,0.350520,0.299720,0.551180,0.0*
1,1,0.403200,0.299720,0.350520*
1,1,0.403200,-0.299720,0.350520*
1,1,0.403200,-0.299720,-0.350520*
1,1,0.403200,0.299720,-0.350520*
%
%AMD18*
4,1,8,-0.459740,-1.000760,0.459740,-1.000760,0.675640,-0.784860,0.675640,0.784860,0.459740,1.000760,-0.459740,1.000760,-0.675640,0.784860,-0.675640,-0.784860,-0.459740,-1.000760,0.0*
1,1,0.430000,-0.459740,-0.784860*
1,1,0.430000,0.459740,-0.784860*
1,1,0.430000,0.459740,0.784860*
1,1,0.430000,-0.459740,0.784860*
%
%AMD19*
4,1,8,-1.000760,0.459740,-1.000760,-0.459740,-0.784860,-0.675640,0.784860,-0.675640,1.000760,-0.459740,1.000760,0.459740,0.784860,0.675640,-0.784860,0.675640,-1.000760,0.459740,0.0*
1,1,0.430000,-0.784860,0.459740*
1,1,0.430000,-0.784860,-0.459740*
1,1,0.430000,0.784860,-0.459740*
1,1,0.430000,0.784860,0.459740*
%
G04~CAMADD=16~8~0.0~0.0~395.0~434.3~79.4~0.0~15~0.0~0.0~0.0~0.0~0~0.0~0.0~0.0~0.0~0~0.0~0.0~0.0~0.0~395.0~434.3*
%ADD16D16*%
%ADD17O,3.153194X1.113198*%
G04~CAMADD=18~8~0.0~0.0~531.5~787.4~84.6~0.0~15~0.0~0.0~0.0~0.0~0~0.0~0.0~0.0~0.0~0~0.0~0.0~0.0~180.0~532.0~788.0*
%ADD18D18*%
G04~CAMADD=19~8~0.0~0.0~531.5~787.4~84.6~0.0~15~0.0~0.0~0.0~0.0~0~0.0~0.0~0.0~0.0~0~0.0~0.0~0.0~90.0~788.0~532.0*
%ADD19D19*%
%ADD20C,4.099992*%
%ADD21C,1.403197*%
%ADD22C,4.703191*%
%LNled_pd_ab_wh_3000149_(4f00228l_7p00501a)-1*%
%LPD*%
G36*
X02122326Y016265D02*
X02096326D01*
Y016425*
X02122326*
Y016265*
G37*
G36*
X02022326D02*
X01996326D01*
Y016425*
X02022326*
Y016265*
G37*
G36*
X01917326D02*
X01891326D01*
Y016425*
X01917326*
Y016265*
G37*
G36*
X01812326D02*
X01786326D01*
Y016425*
X01812326*
Y016265*
G37*
G36*
X01707326D02*
X01681326D01*
Y016425*
X01707326*
Y016265*
G37*
G36*
X01602326D02*
X01576326D01*
Y016425*
X01602326*
Y016265*
G37*
G36*
X01497326D02*
X01471326D01*
Y016425*
X01497326*
Y016265*
G37*
G36*
X01401826Y01607D02*
X01385826D01*
Y01633*
X01401826*
Y01607*
G37*
G36*
X01372826D02*
X01356826D01*
Y01633*
X01372826*
Y01607*
G37*
G36*
X02122326Y015975D02*
X02096326D01*
Y016135*
X02122326*
Y015975*
G37*
G36*
X02022326D02*
X01996326D01*
Y016135*
X02022326*
Y015975*
G37*
G36*
X01917326D02*
X01891326D01*
Y016135*
X01917326*
Y015975*
G37*
G36*
X01812326D02*
X01786326D01*
Y016135*
X01812326*
Y015975*
G37*
G36*
X01707326D02*
X01681326D01*
Y016135*
X01707326*
Y015975*
G37*
G36*
X01602326D02*
X01576326D01*
Y016135*
X01602326*
Y015975*
G37*
G36*
X01497326D02*
X01471326D01*
Y016135*
X01497326*
Y015975*
G37*
G36*
X01001826Y01597001D02*
X00985826D01*
Y01623001*
X01001826*
Y01597001*
G37*
G36*
X00972826D02*
X00956826D01*
Y01623001*
X00972826*
Y01597001*
G37*
G36*
X00181825D02*
X00165825D01*
Y01623001*
X00181825*
Y01597001*
G37*
G36*
X00152825D02*
X00136825D01*
Y01623001*
X00152825*
Y01597001*
G37*
G36*
X01401826Y01507D02*
X01385826D01*
Y01533*
X01401826*
Y01507*
G37*
G36*
X01372826D02*
X01356826D01*
Y01533*
X01372826*
Y01507*
G37*
G36*
X01001826Y01497001D02*
X00985826D01*
Y01523001*
X01001826*
Y01497001*
G37*
G36*
X00972826D02*
X00956826D01*
Y01523001*
X00972826*
Y01497001*
G37*
G36*
X00181825D02*
X00165825D01*
Y01523001*
X00181825*
Y01497001*
G37*
G36*
X00152825D02*
X00136825D01*
Y01523001*
X00152825*
Y01497001*
G37*
G36*
X01401826Y01407D02*
X01385826D01*
Y01433*
X01401826*
Y01407*
G37*
G36*
X01372826D02*
X01356826D01*
Y01433*
X01372826*
Y01407*
G37*
G36*
X01001826Y01397001D02*
X00985826D01*
Y01423001*
X01001826*
Y01397001*
G37*
G36*
X00972826D02*
X00956826D01*
Y01423001*
X00972826*
Y01397001*
G37*
G36*
X00181825D02*
X00165825D01*
Y01423001*
X00181825*
Y01397001*
G37*
G36*
X00152825D02*
X00136825D01*
Y01423001*
X00152825*
Y01397001*
G37*
G36*
X01401826Y01302D02*
X01385826D01*
Y01328*
X01401826*
Y01302*
G37*
G36*
X01372826D02*
X01356826D01*
Y01328*
X01372826*
Y01302*
G37*
G36*
X01001826Y01296999D02*
X00985826D01*
Y01322999*
X01001826*
Y01296999*
G37*
G36*
X00972826D02*
X00956826D01*
Y01322999*
X00972826*
Y01296999*
G37*
G36*
X00181825D02*
X00165825D01*
Y01322999*
X00181825*
Y01296999*
G37*
G36*
X00152825D02*
X00136825D01*
Y01322999*
X00152825*
Y01296999*
G37*
G36*
X01401826Y01197D02*
X01385826D01*
Y01223*
X01401826*
Y01197*
G37*
G36*
X01372826D02*
X01356826D01*
Y01223*
X01372826*
Y01197*
G37*
G36*
X01001826Y01196999D02*
X00985826D01*
Y01222999*
X01001826*
Y01196999*
G37*
G36*
X00972826D02*
X00956826D01*
Y01222999*
X00972826*
Y01196999*
G37*
G36*
X00181825D02*
X00165825D01*
Y01222999*
X00181825*
Y01196999*
G37*
G36*
X00152825D02*
X00136825D01*
Y01222999*
X00152825*
Y01196999*
G37*
G36*
X01001826Y01096999D02*
X00985826D01*
Y01122999*
X01001826*
Y01096999*
G37*
G36*
X00972826D02*
X00956826D01*
Y01122999*
X00972826*
Y01096999*
G37*
G36*
X00181825D02*
X00165825D01*
Y01122999*
X00181825*
Y01096999*
G37*
G36*
X00152825D02*
X00136825D01*
Y01122999*
X00152825*
Y01096999*
G37*
G36*
X01401826Y01092D02*
X01385826D01*
Y01118*
X01401826*
Y01092*
G37*
G36*
X01372826D02*
X01356826D01*
Y01118*
X01372826*
Y01092*
G37*
G36*
X01001826Y00997D02*
X00985826D01*
Y01022999*
X01001826*
Y00997*
G37*
G36*
X00972826D02*
X00956826D01*
Y01022999*
X00972826*
Y00997*
G37*
G36*
X00181825D02*
X00165825D01*
Y01022999*
X00181825*
Y00997*
G37*
G36*
X00152825D02*
X00136825D01*
Y01022999*
X00152825*
Y00997*
G37*
G36*
X01401826Y00987D02*
X01385826D01*
Y01013*
X01401826*
Y00987*
G37*
G36*
X01372826D02*
X01356826D01*
Y01013*
X01372826*
Y00987*
G37*
G36*
X02092326Y009565D02*
X02066326D01*
Y009725*
X02092326*
Y009565*
G37*
G36*
X01992326D02*
X01966326D01*
Y009725*
X01992326*
Y009565*
G37*
G36*
X01892326D02*
X01866326D01*
Y009725*
X01892326*
Y009565*
G37*
G36*
X01792326D02*
X01766326D01*
Y009725*
X01792326*
Y009565*
G37*
G36*
X01687326D02*
X01661326D01*
Y009725*
X01687326*
Y009565*
G37*
G36*
X01582326D02*
X01556326D01*
Y009725*
X01582326*
Y009565*
G37*
G36*
X01477326D02*
X01451326D01*
Y009725*
X01477326*
Y009565*
G37*
G36*
X02092326Y009275D02*
X02066326D01*
Y009435*
X02092326*
Y009275*
G37*
G36*
X01992326D02*
X01966326D01*
Y009435*
X01992326*
Y009275*
G37*
G36*
X01892326D02*
X01866326D01*
Y009435*
X01892326*
Y009275*
G37*
G36*
X01792326D02*
X01766326D01*
Y009435*
X01792326*
Y009275*
G37*
G36*
X01687326D02*
X01661326D01*
Y009435*
X01687326*
Y009275*
G37*
G36*
X01582326D02*
X01556326D01*
Y009435*
X01582326*
Y009275*
G37*
G36*
X01477326D02*
X01451326D01*
Y009435*
X01477326*
Y009275*
G37*
G36*
X01001826Y00897001D02*
X00985826D01*
Y00923*
X01001826*
Y00897001*
G37*
G36*
X00972826D02*
X00956826D01*
Y00923*
X00972826*
Y00897001*
G37*
G36*
X00181825D02*
X00165825D01*
Y00923*
X00181825*
Y00897001*
G37*
G36*
X00152825D02*
X00136825D01*
Y00923*
X00152825*
Y00897001*
G37*
G36*
X01401826Y00882D02*
X01385826D01*
Y00908*
X01401826*
Y00882*
G37*
G36*
X01372826D02*
X01356826D01*
Y00908*
X01372826*
Y00882*
G37*
G36*
X01001826Y00797D02*
X00985826D01*
Y00823*
X01001826*
Y00797*
G37*
G36*
X00972826D02*
X00956826D01*
Y00823*
X00972826*
Y00797*
G37*
G36*
X00181825D02*
X00165825D01*
Y00823*
X00181825*
Y00797*
G37*
G36*
X00152825D02*
X00136825D01*
Y00823*
X00152825*
Y00797*
G37*
G36*
X01401826Y00777D02*
X01385826D01*
Y00803*
X01401826*
Y00777*
G37*
G36*
X01372826D02*
X01356826D01*
Y00803*
X01372826*
Y00777*
G37*
G36*
X01001826Y00697D02*
X00985826D01*
Y00723*
X01001826*
Y00697*
G37*
G36*
X00972826D02*
X00956826D01*
Y00723*
X00972826*
Y00697*
G37*
G36*
X00181825D02*
X00165825D01*
Y00723*
X00181825*
Y00697*
G37*
G36*
X00152825D02*
X00136825D01*
Y00723*
X00152825*
Y00697*
G37*
G36*
X01401826Y00672D02*
X01385826D01*
Y00698*
X01401826*
Y00672*
G37*
G36*
X01372826D02*
X01356826D01*
Y00698*
X01372826*
Y00672*
G37*
G36*
X00986825Y00597D02*
X00970825D01*
Y00623*
X00986825*
Y00597*
G37*
G36*
X00957825D02*
X00941825D01*
Y00623*
X00957825*
Y00597*
G37*
G36*
X00196826D02*
X00180826D01*
Y00623*
X00196826*
Y00597*
G37*
G36*
X00167826D02*
X00151826D01*
Y00623*
X00167826*
Y00597*
G37*
G36*
X01401826Y00567D02*
X01385826D01*
Y00593*
X01401826*
Y00567*
G37*
G36*
X01372826D02*
X01356826D01*
Y00593*
X01372826*
Y00567*
G37*
G36*
X00216826Y00501999D02*
X00200826D01*
Y00527999*
X00216826*
Y00501999*
G37*
G36*
X00187826D02*
X00171826D01*
Y00527999*
X00187826*
Y00501999*
G37*
G36*
X00961826Y00497D02*
X00945826D01*
Y00523001*
X00961826*
Y00497*
G37*
G36*
X00932826D02*
X00916826D01*
Y00523001*
X00932826*
Y00497*
G37*
G36*
X01401826Y00462D02*
X01385826D01*
Y00488*
X01401826*
Y00462*
G37*
G36*
X01372826D02*
X01356826D01*
Y00488*
X01372826*
Y00462*
G37*
G36*
X00246826Y00407001D02*
X00230826D01*
Y00433001*
X00246826*
Y00407001*
G37*
G36*
X00217826D02*
X00201826D01*
Y00433001*
X00217826*
Y00407001*
G37*
G36*
X00911826Y00401999D02*
X00895826D01*
Y00427999*
X00911826*
Y00401999*
G37*
G36*
X00882826D02*
X00866826D01*
Y00427999*
X00882826*
Y00401999*
G37*
G36*
X01401826Y00357D02*
X01385826D01*
Y00383*
X01401826*
Y00357*
G37*
G36*
X01372826D02*
X01356826D01*
Y00383*
X01372826*
Y00357*
G37*
G36*
X00306826Y00327001D02*
X00290826D01*
Y00353001*
X00306826*
Y00327001*
G37*
G36*
X00277826D02*
X00261826D01*
Y00353001*
X00277826*
Y00327001*
G37*
G36*
X00851826Y00322D02*
X00835826D01*
Y00348*
X00851826*
Y00322*
G37*
G36*
X00822826D02*
X00806826D01*
Y00348*
X00822826*
Y00322*
G37*
G36*
X02122326Y002715D02*
X02096326D01*
Y002875*
X02122326*
Y002715*
G37*
G36*
X02022326D02*
X01996326D01*
Y002875*
X02022326*
Y002715*
G37*
G36*
X01917326D02*
X01891326D01*
Y002875*
X01917326*
Y002715*
G37*
G36*
X01812326D02*
X01786326D01*
Y002875*
X01812326*
Y002715*
G37*
G36*
X01707326D02*
X01681326D01*
Y002875*
X01707326*
Y002715*
G37*
G36*
X01602326D02*
X01576326D01*
Y002875*
X01602326*
Y002715*
G37*
G36*
X01497326D02*
X01471326D01*
Y002875*
X01497326*
Y002715*
G37*
G36*
X00386826Y00262001D02*
X00370826D01*
Y00288*
X00386826*
Y00262001*
G37*
G36*
X00357826D02*
X00341826D01*
Y00288*
X00357826*
Y00262001*
G37*
G36*
X00771826Y00257001D02*
X00755826D01*
Y00283001*
X00771826*
Y00257001*
G37*
G36*
X00742826D02*
X00726826D01*
Y00283001*
X00742826*
Y00257001*
G37*
G36*
X01401826Y00252D02*
X01385826D01*
Y00278*
X01401826*
Y00252*
G37*
G36*
X01372826D02*
X01356826D01*
Y00278*
X01372826*
Y00252*
G37*
G36*
X02122326Y002425D02*
X02096326D01*
Y002585*
X02122326*
Y002425*
G37*
G36*
X02022326D02*
X01996326D01*
Y002585*
X02022326*
Y002425*
G37*
G36*
X01917326D02*
X01891326D01*
Y002585*
X01917326*
Y002425*
G37*
G36*
X01812326D02*
X01786326D01*
Y002585*
X01812326*
Y002425*
G37*
G36*
X01707326D02*
X01681326D01*
Y002585*
X01707326*
Y002425*
G37*
G36*
X01602326D02*
X01576326D01*
Y002585*
X01602326*
Y002425*
G37*
G36*
X01497326D02*
X01471326D01*
Y002585*
X01497326*
Y002425*
G37*
G36*
X00667325Y00236501D02*
X00641325D01*
Y00252501*
X00667325*
Y00236501*
G37*
G36*
X00467326D02*
X00441326D01*
Y00252501*
X00467326*
Y00236501*
G37*
G36*
X00567325Y002215D02*
X00541325D01*
Y002375*
X00567325*
Y002215*
G37*
G36*
X00667325Y00207501D02*
X00641325D01*
Y00223501*
X00667325*
Y00207501*
G37*
G36*
X00467326D02*
X00441326D01*
Y00223501*
X00467326*
Y00207501*
G37*
G36*
X00567325Y001925D02*
X00541325D01*
Y002085*
X00567325*
Y001925*
G37*
G54D16*
X00604935Y00285D03*
X00614435Y00265D03*
X00595435D03*
X01421085Y0094541D03*
X01430585Y0092541D03*
X01411585D03*
X01019876Y01356505D03*
X01010376Y01376505D03*
X01029376D03*
X01019876Y01056681D03*
X01010376Y01076681D03*
X01029376D03*
X01019876Y00755936D03*
X01010376Y00775936D03*
X01029376D03*
X00979876Y00457363D03*
X00970376Y00477363D03*
X00989376D03*
X00789876Y00214802D03*
X00780376Y00234802D03*
X00799376D03*
X00503698Y00285D03*
X00513198Y00265D03*
X00494198D03*
X00264876Y00471114D03*
X00274376Y00451114D03*
X00255376D03*
X00199875Y00762242D03*
X00209375Y00742242D03*
X00190375D03*
X00199875Y01060973D03*
X00209375Y01040973D03*
X00190375D03*
X00199875Y013617D03*
X00209375Y013417D03*
X00190375D03*
X00199875Y01664608D03*
X00209375Y01644608D03*
X00190375D03*
X01019876Y01455404D03*
X01010376Y01475404D03*
X01029376D03*
X01019876Y01155834D03*
X01010376Y01175834D03*
X01029376D03*
X01019876Y00856461D03*
X01010376Y00876461D03*
X01029376D03*
X01004875Y00556462D03*
X00995375Y00576462D03*
X01014375D03*
X00869876Y0028048D03*
X00860376Y0030048D03*
X00879376D03*
X00324998Y00391999D03*
X00334498Y00371999D03*
X00315498D03*
X00214876Y00660718D03*
X00224376Y00640718D03*
X00205376D03*
X00199875Y00961554D03*
X00209375Y00941554D03*
X00190375D03*
X00199875Y01263273D03*
X00209375Y01243273D03*
X00190375D03*
X00199875Y01562674D03*
X00209375Y01542674D03*
X00190375D03*
X01019876Y01556236D03*
X01010376Y01576236D03*
X01029376D03*
X01019876Y01255987D03*
X01010376Y01275987D03*
X01029376D03*
X01019876Y00955751D03*
X01010376Y00975751D03*
X01029376D03*
X01019876Y00656021D03*
X01010376Y00676021D03*
X01029376D03*
X00929876Y00361443D03*
X00920376Y00381443D03*
X00939376D03*
X00707517Y00198751D03*
X00717017Y00178751D03*
X00698017D03*
X00404876Y00327143D03*
X00414376Y00307143D03*
X00395376D03*
X00234876Y00566672D03*
X00244376Y00546672D03*
X00225376D03*
X00199875Y00861748D03*
X00209375Y00841748D03*
X00190375D03*
X00199875Y01162272D03*
X00209375Y01142272D03*
X00190375D03*
X00199875Y01462622D03*
X00209375Y01442622D03*
X00190375D03*
X020615Y00175999D03*
X02052Y00195999D03*
X02071D03*
X017485Y00175999D03*
X01739Y00195999D03*
X01758D03*
X01421085Y0031625D03*
X01430585Y0029625D03*
X01411585D03*
X01421085Y00631553D03*
X01430585Y00611553D03*
X01411585D03*
X01929618Y01034749D03*
X01939118Y01014749D03*
X01920118D03*
X01622437Y01034749D03*
X01631937Y01014749D03*
X01612937D03*
X01421085Y01155839D03*
X01430585Y01135839D03*
X01411585D03*
X01419876Y01471428D03*
X01429376Y01451428D03*
X01410376D03*
X01537208Y01705264D03*
X01546708Y01685264D03*
X01527708D03*
X0185101Y01705264D03*
X0186051Y01685264D03*
X0184151D03*
X0216627Y01705264D03*
X0217577Y01685264D03*
X0215677D03*
X02162294Y00175999D03*
X02152794Y00195999D03*
X02171794D03*
X01850499Y00175999D03*
X01840999Y00195999D03*
X01859999D03*
X01539327Y00175926D03*
X01529827Y00195926D03*
X01548827D03*
X01421085Y00526178D03*
X01430585Y00506178D03*
X01411585D03*
X01421085Y00841163D03*
X01430585Y00821163D03*
X01411585D03*
X02031134Y01034749D03*
X02040634Y01014749D03*
X02021634D03*
X01726998Y01034749D03*
X01736498Y01014749D03*
X01717498D03*
X01419876Y01051234D03*
X01429376Y01031234D03*
X01410376D03*
X01419876Y01368153D03*
X01429376Y01348153D03*
X01410376D03*
X01419876Y0167125D03*
X01429376Y0165125D03*
X01410376D03*
X01747539Y01705264D03*
X01757039Y01685264D03*
X01738039D03*
X02059257Y01705264D03*
X02068757Y01685264D03*
X02049757D03*
X0195575Y00175999D03*
X0194625Y00195999D03*
X0196525D03*
X0164175Y00175999D03*
X0163225Y00195999D03*
X0165125D03*
X01420998Y00422499D03*
X01430498Y00402499D03*
X01411498D03*
X01421085Y00736507D03*
X01430585Y00716507D03*
X01411585D03*
X02132726Y01034749D03*
X02142226Y01014749D03*
X02123226D03*
X01830998Y01034749D03*
X01840498Y01014749D03*
X01821498D03*
X01517498Y01034749D03*
X01526998Y01014749D03*
X01507998D03*
X01419876Y01262041D03*
X01429376Y01242041D03*
X01410376D03*
X01419876Y01572586D03*
X01429376Y01552586D03*
X01410376D03*
X01643152Y01705264D03*
X01652652Y01685264D03*
X01633652D03*
X01957324Y01705264D03*
X01966824Y01685264D03*
X01947824D03*
G54D17*
X02531699Y01397099D03*
Y01384399D03*
Y01409799D03*
Y01422499D03*
G54D18*
X01087409Y01610001D03*
X01117409D03*
X01087409Y01309999D03*
X01117409D03*
X01087409Y0101D03*
X01117409D03*
X0108741Y0071D03*
X0111741D03*
X00985447Y00414999D03*
X01015447D03*
X00107857Y00514999D03*
X00077857D03*
X00070739Y0081D03*
X00040739D03*
X00070739Y01109999D03*
X00040739D03*
X00070742Y01410001D03*
X00040742D03*
X01487249Y00684999D03*
X01517249D03*
X01473867Y0121D03*
X01503867D03*
G54D19*
X00604936Y00181002D03*
Y00151003D03*
X00339327Y00212799D03*
Y00182799D03*
X02245328Y00338429D03*
Y00368429D03*
X02173527Y00338499D03*
Y00368499D03*
X01957999Y00338499D03*
Y00368499D03*
X01643999Y00338499D03*
Y00368499D03*
X01550499Y00373999D03*
Y00403999D03*
X02079326Y00857229D03*
Y00827229D03*
X01779326Y00857231D03*
Y00827231D03*
X01550499Y00857229D03*
Y00827229D03*
X01499569Y01513579D03*
Y01483579D03*
X01589326Y01513579D03*
Y01483579D03*
X01904326Y01513582D03*
Y01483582D03*
G54D20*
X00075749Y01820999D03*
X02743499Y00155749D03*
X00108249Y00074749D03*
G54D21*
X02599999Y01409799D03*
Y01397099D03*
Y01384399D03*
Y01422499D03*
G54D22*
X00444999Y00049999D03*
X02294999D03*
X02795Y0185D03*
X02044999D03*
X00945D03*
M02*