%FSTAX44Y44*%
%MOMM*%
%SFA1B1*%

%IPPOS*%
%AMD10*
4,1,8,0.299720,0.424180,-0.299720,0.424180,-0.375920,0.350520,-0.375920,-0.350520,-0.299720,-0.424180,0.299720,-0.424180,0.375920,-0.350520,0.375920,0.350520,0.299720,0.424180,0.0*
1,1,0.150000,0.299720,0.350520*
1,1,0.150000,-0.299720,0.350520*
1,1,0.150000,-0.299720,-0.350520*
1,1,0.150000,0.299720,-0.350520*
%
%AMD12*
4,1,8,0.599440,1.275080,-0.599440,1.275080,-0.723900,1.150620,-0.723900,-1.150620,-0.599440,-1.275080,0.599440,-1.275080,0.723900,-1.150620,0.723900,1.150620,0.599440,1.275080,0.0*
1,1,0.250000,0.599440,1.150620*
1,1,0.250000,-0.599440,1.150620*
1,1,0.250000,-0.599440,-1.150620*
1,1,0.250000,0.599440,-1.150620*
%
%AMD13*
4,1,8,1.275080,-0.599440,1.275080,0.599440,1.150620,0.723900,-1.150620,0.723900,-1.275080,0.599440,-1.275080,-0.599440,-1.150620,-0.723900,1.150620,-0.723900,1.275080,-0.599440,0.0*
1,1,0.250000,1.150620,-0.599440*
1,1,0.250000,1.150620,0.599440*
1,1,0.250000,-1.150620,0.599440*
1,1,0.250000,-1.150620,-0.599440*
%
%AMD14*
4,1,8,-0.459740,-0.873760,0.459740,-0.873760,0.551180,-0.784860,0.551180,0.784860,0.459740,0.873760,-0.459740,0.873760,-0.551180,0.784860,-0.551180,-0.784860,-0.459740,-0.873760,0.0*
1,1,0.180000,-0.459740,-0.784860*
1,1,0.180000,0.459740,-0.784860*
1,1,0.180000,0.459740,0.784860*
1,1,0.180000,-0.459740,0.784860*
%
%AMD15*
4,1,8,-0.873760,0.459740,-0.873760,-0.459740,-0.784860,-0.551180,0.784860,-0.551180,0.873760,-0.459740,0.873760,0.459740,0.784860,0.551180,-0.784860,0.551180,-0.873760,0.459740,0.0*
1,1,0.180000,-0.784860,0.459740*
1,1,0.180000,-0.784860,-0.459740*
1,1,0.180000,0.784860,-0.459740*
1,1,0.180000,0.784860,0.459740*
%
G04~CAMADD=10~8~0.0~0.0~295.3~334.6~29.5~0.0~15~0.0~0.0~0.0~0.0~0~0.0~0.0~0.0~0.0~0~0.0~0.0~0.0~0.0~295.3~334.6*
%ADD10D10*%
%ADD11O,2.899994X0.859998*%
G04~CAMADD=12~8~0.0~0.0~570.9~1003.9~49.2~0.0~15~0.0~0.0~0.0~0.0~0~0.0~0.0~0.0~0.0~0~0.0~0.0~0.0~0.0~570.9~1003.9*
%ADD12D12*%
G04~CAMADD=13~8~0.0~0.0~570.9~1003.9~49.2~0.0~15~0.0~0.0~0.0~0.0~0~0.0~0.0~0.0~0.0~0~0.0~0.0~0.0~270.0~1004.0~570.0*
%ADD13D13*%
G04~CAMADD=14~8~0.0~0.0~433.1~689.0~35.4~0.0~15~0.0~0.0~0.0~0.0~0~0.0~0.0~0.0~0.0~0~0.0~0.0~0.0~180.0~434.0~689.0*
%ADD14D14*%
G04~CAMADD=15~8~0.0~0.0~433.1~689.0~35.4~0.0~15~0.0~0.0~0.0~0.0~0~0.0~0.0~0.0~0.0~0~0.0~0.0~0.0~90.0~690.0~433.0*
%ADD15D15*%
%LNled_pd_ab_wh_3000149_(4f00228l_7p00501a)-1*%
%LPD*%
G54D10*
X00604935Y00285D03*
X00614435Y00265D03*
X00595435D03*
X01421085Y0094541D03*
X01430585Y0092541D03*
X01411585D03*
X01019876Y01356505D03*
X01010376Y01376505D03*
X01029376D03*
X01019876Y01056681D03*
X01010376Y01076681D03*
X01029376D03*
X01019876Y00755936D03*
X01010376Y00775936D03*
X01029376D03*
X00979876Y00457363D03*
X00970376Y00477363D03*
X00989376D03*
X00789876Y00214802D03*
X00780376Y00234802D03*
X00799376D03*
X00503698Y00285D03*
X00513198Y00265D03*
X00494198D03*
X00264876Y00471114D03*
X00274376Y00451114D03*
X00255376D03*
X00199875Y00762242D03*
X00209375Y00742242D03*
X00190375D03*
X00199875Y01060973D03*
X00209375Y01040973D03*
X00190375D03*
X00199875Y013617D03*
X00209375Y013417D03*
X00190375D03*
X00199875Y01664608D03*
X00209375Y01644608D03*
X00190375D03*
X01019876Y01455404D03*
X01010376Y01475404D03*
X01029376D03*
X01019876Y01155834D03*
X01010376Y01175834D03*
X01029376D03*
X01019876Y00856461D03*
X01010376Y00876461D03*
X01029376D03*
X01004875Y00556462D03*
X00995375Y00576462D03*
X01014375D03*
X00869876Y0028048D03*
X00860376Y0030048D03*
X00879376D03*
X00324998Y00391999D03*
X00334498Y00371999D03*
X00315498D03*
X00214876Y00660718D03*
X00224376Y00640718D03*
X00205376D03*
X00199875Y00961554D03*
X00209375Y00941554D03*
X00190375D03*
X00199875Y01263273D03*
X00209375Y01243273D03*
X00190375D03*
X00199875Y01562674D03*
X00209375Y01542674D03*
X00190375D03*
X01019876Y01556236D03*
X01010376Y01576236D03*
X01029376D03*
X01019876Y01255987D03*
X01010376Y01275987D03*
X01029376D03*
X01019876Y00955751D03*
X01010376Y00975751D03*
X01029376D03*
X01019876Y00656021D03*
X01010376Y00676021D03*
X01029376D03*
X00929876Y00361443D03*
X00920376Y00381443D03*
X00939376D03*
X00707517Y00198751D03*
X00717017Y00178751D03*
X00698017D03*
X00404876Y00327143D03*
X00414376Y00307143D03*
X00395376D03*
X00234876Y00566672D03*
X00244376Y00546672D03*
X00225376D03*
X00199875Y00861748D03*
X00209375Y00841748D03*
X00190375D03*
X00199875Y01162272D03*
X00209375Y01142272D03*
X00190375D03*
X00199875Y01462622D03*
X00209375Y01442622D03*
X00190375D03*
X020615Y00175999D03*
X02052Y00195999D03*
X02071D03*
X017485Y00175999D03*
X01739Y00195999D03*
X01758D03*
X01421085Y0031625D03*
X01430585Y0029625D03*
X01411585D03*
X01421085Y00631553D03*
X01430585Y00611553D03*
X01411585D03*
X01929618Y01034749D03*
X01939118Y01014749D03*
X01920118D03*
X01622437Y01034749D03*
X01631937Y01014749D03*
X01612937D03*
X01421085Y01155839D03*
X01430585Y01135839D03*
X01411585D03*
X01419876Y01471428D03*
X01429376Y01451428D03*
X01410376D03*
X01537208Y01705264D03*
X01546708Y01685264D03*
X01527708D03*
X0185101Y01705264D03*
X0186051Y01685264D03*
X0184151D03*
X0216627Y01705264D03*
X0217577Y01685264D03*
X0215677D03*
X02162294Y00175999D03*
X02152794Y00195999D03*
X02171794D03*
X01850499Y00175999D03*
X01840999Y00195999D03*
X01859999D03*
X01539327Y00175926D03*
X01529827Y00195926D03*
X01548827D03*
X01421085Y00526178D03*
X01430585Y00506178D03*
X01411585D03*
X01421085Y00841163D03*
X01430585Y00821163D03*
X01411585D03*
X02031134Y01034749D03*
X02040634Y01014749D03*
X02021634D03*
X01726998Y01034749D03*
X01736498Y01014749D03*
X01717498D03*
X01419876Y01051234D03*
X01429376Y01031234D03*
X01410376D03*
X01419876Y01368153D03*
X01429376Y01348153D03*
X01410376D03*
X01419876Y0167125D03*
X01429376Y0165125D03*
X01410376D03*
X01747539Y01705264D03*
X01757039Y01685264D03*
X01738039D03*
X02059257Y01705264D03*
X02068757Y01685264D03*
X02049757D03*
X0195575Y00175999D03*
X0194625Y00195999D03*
X0196525D03*
X0164175Y00175999D03*
X0163225Y00195999D03*
X0165125D03*
X01420998Y00422499D03*
X01430498Y00402499D03*
X01411498D03*
X01421085Y00736507D03*
X01430585Y00716507D03*
X01411585D03*
X02132726Y01034749D03*
X02142226Y01014749D03*
X02123226D03*
X01830998Y01034749D03*
X01840498Y01014749D03*
X01821498D03*
X01517498Y01034749D03*
X01526998Y01014749D03*
X01507998D03*
X01419876Y01262041D03*
X01429376Y01242041D03*
X01410376D03*
X01419876Y01572586D03*
X01429376Y01552586D03*
X01410376D03*
X01643152Y01705264D03*
X01652652Y01685264D03*
X01633652D03*
X01957324Y01705264D03*
X01966824Y01685264D03*
X01947824D03*
G54D11*
X02531699Y01397099D03*
Y01384399D03*
Y01409799D03*
Y01422499D03*
G54D12*
X00994326Y01410001D03*
X00964326D03*
X00994326Y01109999D03*
X00964326D03*
X00994326Y0081D03*
X00964326D03*
X00954326Y0051D03*
X00924326D03*
X00764326Y00270002D03*
X00734326D03*
X00209326Y00420001D03*
X00239326D03*
X00144325Y0071D03*
X00174325D03*
X00144325Y0101D03*
X00174325D03*
X00144325Y01309999D03*
X00174325D03*
X00144325Y01610001D03*
X00174325D03*
X00994326Y01510001D03*
X00964326D03*
X00994326Y01209999D03*
X00964326D03*
X00994326Y0091D03*
X00964326D03*
X00979325Y0061D03*
X00949325D03*
X00844326Y00335D03*
X00814326D03*
X00269326Y00340001D03*
X00299326D03*
X00159326Y0061D03*
X00189326D03*
X00144325Y0091D03*
X00174325D03*
X00144325Y01209999D03*
X00174325D03*
X00144325Y01510001D03*
X00174325D03*
X00994326Y01610001D03*
X00964326D03*
X00994326Y01309999D03*
X00964326D03*
X00994326Y0101D03*
X00964326D03*
X00994326Y0071D03*
X00964326D03*
X00904326Y00414999D03*
X00874326D03*
X00349326Y00275D03*
X00379326D03*
X00179326Y00514999D03*
X00209326D03*
X00144325Y0081D03*
X00174325D03*
X00144325Y01109999D03*
X00174325D03*
X00144325Y01410001D03*
X00174325D03*
X01394326Y00265D03*
X01364326D03*
X01394326Y0058D03*
X01364326D03*
X01394326Y00895D03*
X01364326D03*
X01394326Y01105D03*
X01364326D03*
X01394326Y0142D03*
X01364326D03*
X01394326Y00475D03*
X01364326D03*
X01394326Y0079D03*
X01364326D03*
X01394326Y01D03*
X01364326D03*
X01394326Y01315D03*
X01364326D03*
X01394326Y0162D03*
X01364326D03*
X01394326Y0037D03*
X01364326D03*
X01394326Y00685D03*
X01364326D03*
X01394326Y0121D03*
X01364326D03*
X01394326Y0152D03*
X01364326D03*
G54D13*
X00454326Y00215001D03*
Y00245001D03*
X00554325Y002D03*
Y0023D03*
X00654325Y00215001D03*
Y00245001D03*
X02009326Y0025D03*
Y0028D03*
X01694326Y0025D03*
Y0028D03*
X01879326Y00935D03*
Y00965D03*
X01569326Y00935D03*
Y00965D03*
X01484326Y01605D03*
Y01635D03*
X01799326Y01605D03*
Y01635D03*
X02109326Y01605D03*
Y01635D03*
Y0025D03*
Y0028D03*
X01799326Y0025D03*
Y0028D03*
X01484326Y0025D03*
Y0028D03*
X01979326Y00935D03*
Y00965D03*
X01674326Y00935D03*
Y00965D03*
X01694326Y01605D03*
Y01635D03*
X02009326Y01605D03*
Y01635D03*
X01904326Y0025D03*
Y0028D03*
X01589326Y0025D03*
Y0028D03*
X02079326Y00935D03*
Y00965D03*
X01779326Y00935D03*
Y00965D03*
X01464326Y00935D03*
Y00965D03*
X01589326Y01605D03*
Y01635D03*
X01904326Y01605D03*
Y01635D03*
G54D14*
X01087409Y01610001D03*
X01117409D03*
X01087409Y01309999D03*
X01117409D03*
X01087409Y0101D03*
X01117409D03*
X0108741Y0071D03*
X0111741D03*
X00985447Y00414999D03*
X01015447D03*
X00107857Y00514999D03*
X00077857D03*
X00070739Y0081D03*
X00040739D03*
X00070739Y01109999D03*
X00040739D03*
X00070742Y01410001D03*
X00040742D03*
X01487249Y00684999D03*
X01517249D03*
X01473867Y0121D03*
X01503867D03*
G54D15*
X00604936Y00181002D03*
Y00151003D03*
X00339327Y00212799D03*
Y00182799D03*
X02245328Y00338429D03*
Y00368429D03*
X02173527Y00338499D03*
Y00368499D03*
X01957999Y00338499D03*
Y00368499D03*
X01643999Y00338499D03*
Y00368499D03*
X01550499Y00373999D03*
Y00403999D03*
X02079326Y00857229D03*
Y00827229D03*
X01779326Y00857231D03*
Y00827231D03*
X01550499Y00857229D03*
Y00827229D03*
X01499569Y01513579D03*
Y01483579D03*
X01589326Y01513579D03*
Y01483579D03*
X01904326Y01513582D03*
Y01483582D03*
M02*