%FSTAX44Y44*%
%MOMM*%
%SFA1B1*%

%IPPOS*%
%AMD25*
4,1,8,0.299720,0.449580,-0.299720,0.449580,-0.398780,0.350520,-0.398780,-0.350520,-0.299720,-0.449580,0.299720,-0.449580,0.398780,-0.350520,0.398780,0.350520,0.299720,0.449580,0.0*
1,1,0.200000,0.299720,0.350520*
1,1,0.200000,-0.299720,0.350520*
1,1,0.200000,-0.299720,-0.350520*
1,1,0.200000,0.299720,-0.350520*
%
%AMD27*
4,1,8,0.599440,1.300480,-0.599440,1.300480,-0.749300,1.150620,-0.749300,-1.150620,-0.599440,-1.300480,0.599440,-1.300480,0.749300,-1.150620,0.749300,1.150620,0.599440,1.300480,0.0*
1,1,0.300000,0.599440,1.150620*
1,1,0.300000,-0.599440,1.150620*
1,1,0.300000,-0.599440,-1.150620*
1,1,0.300000,0.599440,-1.150620*
%
%AMD28*
4,1,8,1.300480,-0.599440,1.300480,0.599440,1.150620,0.749300,-1.150620,0.749300,-1.300480,0.599440,-1.300480,-0.599440,-1.150620,-0.749300,1.150620,-0.749300,1.300480,-0.599440,0.0*
1,1,0.300000,1.150620,-0.599440*
1,1,0.300000,1.150620,0.599440*
1,1,0.300000,-1.150620,0.599440*
1,1,0.300000,-1.150620,-0.599440*
%
%AMD29*
4,1,8,-0.459740,-0.899160,0.459740,-0.899160,0.574040,-0.784860,0.574040,0.784860,0.459740,0.899160,-0.459740,0.899160,-0.574040,0.784860,-0.574040,-0.784860,-0.459740,-0.899160,0.0*
1,1,0.230000,-0.459740,-0.784860*
1,1,0.230000,0.459740,-0.784860*
1,1,0.230000,0.459740,0.784860*
1,1,0.230000,-0.459740,0.784860*
%
%AMD30*
4,1,8,-0.899160,0.459740,-0.899160,-0.459740,-0.784860,-0.574040,0.784860,-0.574040,0.899160,-0.459740,0.899160,0.459740,0.784860,0.574040,-0.784860,0.574040,-0.899160,0.459740,0.0*
1,1,0.230000,-0.784860,0.459740*
1,1,0.230000,-0.784860,-0.459740*
1,1,0.230000,0.784860,-0.459740*
1,1,0.230000,0.784860,0.459740*
%
%ADD23C,0.050000*%
%ADD24C,0.649999*%
G04~CAMADD=25~8~0.0~0.0~315.0~354.3~39.4~0.0~15~0.0~0.0~0.0~0.0~0~0.0~0.0~0.0~0.0~0~0.0~0.0~0.0~0.0~315.0~354.3*
%ADD25D25*%
%ADD26O,2.949994X0.909998*%
G04~CAMADD=27~8~0.0~0.0~590.6~1023.6~59.1~0.0~15~0.0~0.0~0.0~0.0~0~0.0~0.0~0.0~0.0~0~0.0~0.0~0.0~0.0~590.6~1023.6*
%ADD27D27*%
G04~CAMADD=28~8~0.0~0.0~590.6~1023.6~59.1~0.0~15~0.0~0.0~0.0~0.0~0~0.0~0.0~0.0~0.0~0~0.0~0.0~0.0~270.0~1024.0~590.0*
%ADD28D28*%
G04~CAMADD=29~8~0.0~0.0~452.8~708.7~45.3~0.0~15~0.0~0.0~0.0~0.0~0~0.0~0.0~0.0~0.0~0~0.0~0.0~0.0~180.0~452.0~708.0*
%ADD29D29*%
G04~CAMADD=30~8~0.0~0.0~452.8~708.7~45.3~0.0~15~0.0~0.0~0.0~0.0~0~0.0~0.0~0.0~0.0~0~0.0~0.0~0.0~90.0~708.0~452.0*
%ADD30D30*%
%ADD31C,1.499997*%
%ADD32C,0.799998*%
%ADD33C,0.499999*%
%ADD34C,1.599997*%
%ADD35C,1.299997*%
%ADD36C,0.699999*%
%ADD37C,0.100000*%
%ADD38C,0.253999*%
%ADD39C,1.199998*%
%ADD40C,4.499991*%
%LNled_pd_ab_wh_3000149_(4f00228l_7p00501a)-1*%
%LPD*%
G36*
X02129326Y016755D02*
Y0163D01*
X02126826Y016275*
X02091826*
X02089326Y0163*
Y016755*
X02091826Y01678*
X02126826*
X02129326Y016755*
G37*
G36*
X02029326D02*
Y0163D01*
X02026826Y016275*
X01991826*
X01989326Y0163*
Y016755*
X01991826Y01678*
X02026826*
X02029326Y016755*
G37*
G36*
X01924326D02*
Y0163D01*
X01921826Y016275*
X01886826*
X01884326Y0163*
Y016755*
X01886826Y01678*
X01921826*
X01924326Y016755*
G37*
G36*
X01819326D02*
Y0163D01*
X01816826Y016275*
X01781826*
X01779326Y0163*
Y016755*
X01781826Y01678*
X01816826*
X01819326Y016755*
G37*
G36*
X01714326D02*
Y0163D01*
X01711826Y016275*
X01676826*
X01674326Y0163*
Y016755*
X01676826Y01678*
X01711826*
X01714326Y016755*
G37*
G36*
X01609326D02*
Y0163D01*
X01606826Y016275*
X01571826*
X01569326Y0163*
Y016755*
X01571826Y01678*
X01606826*
X01609326Y016755*
G37*
G36*
X01504326D02*
Y0163D01*
X01501826Y016275*
X01466826*
X01464326Y0163*
Y016755*
X01466826Y01678*
X01501826*
X01504326Y016755*
G37*
G36*
X01437326Y016375D02*
Y016025D01*
X01434826Y016*
X01389326*
X01386826Y016025*
Y016375*
X01389326Y0164*
X01434826*
X01437326Y016375*
G37*
G36*
X01371826D02*
Y016025D01*
X01369326Y016*
X01323826*
X01321326Y016025*
Y016375*
X01323826Y0164*
X01369326*
X01371826Y016375*
G37*
G36*
X01037326Y01627501D02*
Y01592501D01*
X01034826Y01590001*
X00989326*
X00986826Y01592501*
Y01627501*
X00989326Y01630001*
X01034826*
X01037326Y01627501*
G37*
G36*
X00971826D02*
Y01592501D01*
X00969326Y01590001*
X00923826*
X00921326Y01592501*
Y01627501*
X00923826Y01630001*
X00969326*
X00971826Y01627501*
G37*
G36*
X00217325D02*
Y01592501D01*
X00214825Y01590001*
X00169325*
X00166825Y01592501*
Y01627501*
X00169325Y01630001*
X00214825*
X00217325Y01627501*
G37*
G36*
X00151825D02*
Y01592501D01*
X00149325Y01590001*
X00103825*
X00101325Y01592501*
Y01627501*
X00103825Y01630001*
X00149325*
X00151825Y01627501*
G37*
G36*
X02129326Y0161D02*
Y015645D01*
X02126826Y01562*
X02091826*
X02089326Y015645*
Y0161*
X02091826Y016125*
X02126826*
X02129326Y0161*
G37*
G36*
X02029326D02*
Y015645D01*
X02026826Y01562*
X01991826*
X01989326Y015645*
Y0161*
X01991826Y016125*
X02026826*
X02029326Y0161*
G37*
G36*
X01924326D02*
Y015645D01*
X01921826Y01562*
X01886826*
X01884326Y015645*
Y0161*
X01886826Y016125*
X01921826*
X01924326Y0161*
G37*
G36*
X01819326D02*
Y015645D01*
X01816826Y01562*
X01781826*
X01779326Y015645*
Y0161*
X01781826Y016125*
X01816826*
X01819326Y0161*
G37*
G36*
X01714326D02*
Y015645D01*
X01711826Y01562*
X01676826*
X01674326Y015645*
Y0161*
X01676826Y016125*
X01711826*
X01714326Y0161*
G37*
G36*
X01609326D02*
Y015645D01*
X01606826Y01562*
X01571826*
X01569326Y015645*
Y0161*
X01571826Y016125*
X01606826*
X01609326Y0161*
G37*
G36*
X01504326D02*
Y015645D01*
X01501826Y01562*
X01466826*
X01464326Y015645*
Y0161*
X01466826Y016125*
X01501826*
X01504326Y0161*
G37*
G36*
X01437326Y015375D02*
Y015025D01*
X01434826Y015*
X01389326*
X01386826Y015025*
Y015375*
X01389326Y0154*
X01434826*
X01437326Y015375*
G37*
G36*
X01371826D02*
Y015025D01*
X01369326Y015*
X01323826*
X01321326Y015025*
Y015375*
X01323826Y0154*
X01369326*
X01371826Y015375*
G37*
G36*
X01037326Y01527501D02*
Y01492501D01*
X01034826Y01490001*
X00989326*
X00986826Y01492501*
Y01527501*
X00989326Y01530001*
X01034826*
X01037326Y01527501*
G37*
G36*
X00971826D02*
Y01492501D01*
X00969326Y01490001*
X00923826*
X00921326Y01492501*
Y01527501*
X00923826Y01530001*
X00969326*
X00971826Y01527501*
G37*
G36*
X00217325D02*
Y01492501D01*
X00214825Y01490001*
X00169325*
X00166825Y01492501*
Y01527501*
X00169325Y01530001*
X00214825*
X00217325Y01527501*
G37*
G36*
X00151825D02*
Y01492501D01*
X00149325Y01490001*
X00103825*
X00101325Y01492501*
Y01527501*
X00103825Y01530001*
X00149325*
X00151825Y01527501*
G37*
G36*
X01437326Y014375D02*
Y014025D01*
X01434826Y014*
X01389326*
X01386826Y014025*
Y014375*
X01389326Y0144*
X01434826*
X01437326Y014375*
G37*
G36*
X01371826D02*
Y014025D01*
X01369326Y014*
X01323826*
X01321326Y014025*
Y014375*
X01323826Y0144*
X01369326*
X01371826Y014375*
G37*
G36*
X01037326Y01427501D02*
Y01392501D01*
X01034826Y01390001*
X00989326*
X00986826Y01392501*
Y01427501*
X00989326Y01430001*
X01034826*
X01037326Y01427501*
G37*
G36*
X00971826D02*
Y01392501D01*
X00969326Y01390001*
X00923826*
X00921326Y01392501*
Y01427501*
X00923826Y01430001*
X00969326*
X00971826Y01427501*
G37*
G36*
X00217325D02*
Y01392501D01*
X00214825Y01390001*
X00169325*
X00166825Y01392501*
Y01427501*
X00169325Y01430001*
X00214825*
X00217325Y01427501*
G37*
G36*
X00151825D02*
Y01392501D01*
X00149325Y01390001*
X00103825*
X00101325Y01392501*
Y01427501*
X00103825Y01430001*
X00149325*
X00151825Y01427501*
G37*
G36*
X01437326Y013325D02*
Y012975D01*
X01434826Y01295*
X01389326*
X01386826Y012975*
Y013325*
X01389326Y01335*
X01434826*
X01437326Y013325*
G37*
G36*
X01371826D02*
Y012975D01*
X01369326Y01295*
X01323826*
X01321326Y012975*
Y013325*
X01323826Y01335*
X01369326*
X01371826Y013325*
G37*
G36*
X01037326Y01327499D02*
Y01292499D01*
X01034826Y01289999*
X00989326*
X00986826Y01292499*
Y01327499*
X00989326Y01329999*
X01034826*
X01037326Y01327499*
G37*
G36*
X00971826D02*
Y01292499D01*
X00969326Y01289999*
X00923826*
X00921326Y01292499*
Y01327499*
X00923826Y01329999*
X00969326*
X00971826Y01327499*
G37*
G36*
X00217325D02*
Y01292499D01*
X00214825Y01289999*
X00169325*
X00166825Y01292499*
Y01327499*
X00169325Y01329999*
X00214825*
X00217325Y01327499*
G37*
G36*
X00151825D02*
Y01292499D01*
X00149325Y01289999*
X00103825*
X00101325Y01292499*
Y01327499*
X00103825Y01329999*
X00149325*
X00151825Y01327499*
G37*
G36*
X02650373Y01245433D02*
X02657871D01*
Y0123879*
X02632727*
Y01239696*
Y01248448*
X02639289*
Y01245433*
X02644087*
Y01249009*
X02650373*
Y01245433*
G37*
G36*
X01437326Y012275D02*
Y011925D01*
X01434826Y0119*
X01389326*
X01386826Y011925*
Y012275*
X01389326Y0123*
X01434826*
X01437326Y012275*
G37*
G36*
X01371826D02*
Y011925D01*
X01369326Y0119*
X01323826*
X01321326Y011925*
Y012275*
X01323826Y0123*
X01369326*
X01371826Y012275*
G37*
G36*
X01037326Y01227499D02*
Y01192499D01*
X01034826Y01189999*
X00989326*
X00986826Y01192499*
Y01227499*
X00989326Y01229999*
X01034826*
X01037326Y01227499*
G37*
G36*
X00971826D02*
Y01192499D01*
X00969326Y01189999*
X00923826*
X00921326Y01192499*
Y01227499*
X00923826Y01229999*
X00969326*
X00971826Y01227499*
G37*
G36*
X00217325D02*
Y01192499D01*
X00214825Y01189999*
X00169325*
X00166825Y01192499*
Y01227499*
X00169325Y01229999*
X00214825*
X00217325Y01227499*
G37*
G36*
X00151825D02*
Y01192499D01*
X00149325Y01189999*
X00103825*
X00101325Y01192499*
Y01227499*
X00103825Y01229999*
X00149325*
X00151825Y01227499*
G37*
G36*
X01037326Y01127499D02*
Y01092499D01*
X01034826Y01089999*
X00989326*
X00986826Y01092499*
Y01127499*
X00989326Y01129999*
X01034826*
X01037326Y01127499*
G37*
G36*
X00971826D02*
Y01092499D01*
X00969326Y01089999*
X00923826*
X00921326Y01092499*
Y01127499*
X00923826Y01129999*
X00969326*
X00971826Y01127499*
G37*
G36*
X00217325D02*
Y01092499D01*
X00214825Y01089999*
X00169325*
X00166825Y01092499*
Y01127499*
X00169325Y01129999*
X00214825*
X00217325Y01127499*
G37*
G36*
X00151825D02*
Y01092499D01*
X00149325Y01089999*
X00103825*
X00101325Y01092499*
Y01127499*
X00103825Y01129999*
X00149325*
X00151825Y01127499*
G37*
G36*
X01437326Y011225D02*
Y01087501D01*
X01434826Y01085*
X01389326*
X01386826Y01087501*
Y011225*
X01389326Y01125*
X01434826*
X01437326Y011225*
G37*
G36*
X01371826D02*
Y01087501D01*
X01369326Y01085*
X01323826*
X01321326Y01087501*
Y011225*
X01323826Y01125*
X01369326*
X01371826Y011225*
G37*
G36*
X01037326Y010275D02*
Y009925D01*
X01034826Y0099*
X00989326*
X00986826Y009925*
Y010275*
X00989326Y0103*
X01034826*
X01037326Y010275*
G37*
G36*
X00971826D02*
Y009925D01*
X00969326Y0099*
X00923826*
X00921326Y009925*
Y010275*
X00923826Y0103*
X00969326*
X00971826Y010275*
G37*
G36*
X00217325D02*
Y009925D01*
X00214825Y0099*
X00169325*
X00166825Y009925*
Y010275*
X00169325Y0103*
X00214825*
X00217325Y010275*
G37*
G36*
X00151825D02*
Y009925D01*
X00149325Y0099*
X00103825*
X00101325Y009925*
Y010275*
X00103825Y0103*
X00149325*
X00151825Y010275*
G37*
G36*
X01437326Y010175D02*
Y009825D01*
X01434826Y0098*
X01389326*
X01386826Y009825*
Y010175*
X01389326Y0102*
X01434826*
X01437326Y010175*
G37*
G36*
X01371826D02*
Y009825D01*
X01369326Y0098*
X01323826*
X01321326Y009825*
Y010175*
X01323826Y0102*
X01369326*
X01371826Y010175*
G37*
G36*
X02099326Y010055D02*
Y0096D01*
X02096826Y009575*
X02061826*
X02059326Y0096*
Y010055*
X02061826Y01008*
X02096826*
X02099326Y010055*
G37*
G36*
X01999326D02*
Y0096D01*
X01996826Y009575*
X01961826*
X01959326Y0096*
Y010055*
X01961826Y01008*
X01996826*
X01999326Y010055*
G37*
G36*
X01899326D02*
Y0096D01*
X01896826Y009575*
X01861826*
X01859326Y0096*
Y010055*
X01861826Y01008*
X01896826*
X01899326Y010055*
G37*
G36*
X01799326D02*
Y0096D01*
X01796826Y009575*
X01761826*
X01759326Y0096*
Y010055*
X01761826Y01008*
X01796826*
X01799326Y010055*
G37*
G36*
X01694326D02*
Y0096D01*
X01691826Y009575*
X01656826*
X01654326Y0096*
Y010055*
X01656826Y01008*
X01691826*
X01694326Y010055*
G37*
G36*
X01589326D02*
Y0096D01*
X01586826Y009575*
X01551826*
X01549326Y0096*
Y010055*
X01551826Y01008*
X01586826*
X01589326Y010055*
G37*
G36*
X01484326D02*
Y0096D01*
X01481826Y009575*
X01446826*
X01444326Y0096*
Y010055*
X01446826Y01008*
X01481826*
X01484326Y010055*
G37*
G36*
X02099326Y0094D02*
Y008945D01*
X02096826Y00892*
X02061826*
X02059326Y008945*
Y0094*
X02061826Y009425*
X02096826*
X02099326Y0094*
G37*
G36*
X01999326D02*
Y008945D01*
X01996826Y00892*
X01961826*
X01959326Y008945*
Y0094*
X01961826Y009425*
X01996826*
X01999326Y0094*
G37*
G36*
X01899326D02*
Y008945D01*
X01896826Y00892*
X01861826*
X01859326Y008945*
Y0094*
X01861826Y009425*
X01896826*
X01899326Y0094*
G37*
G36*
X01799326D02*
Y008945D01*
X01796826Y00892*
X01761826*
X01759326Y008945*
Y0094*
X01761826Y009425*
X01796826*
X01799326Y0094*
G37*
G36*
X01694326D02*
Y008945D01*
X01691826Y00892*
X01656826*
X01654326Y008945*
Y0094*
X01656826Y009425*
X01691826*
X01694326Y0094*
G37*
G36*
X01589326D02*
Y008945D01*
X01586826Y00892*
X01551826*
X01549326Y008945*
Y0094*
X01551826Y009425*
X01586826*
X01589326Y0094*
G37*
G36*
X01484326D02*
Y008945D01*
X01481826Y00892*
X01446826*
X01444326Y008945*
Y0094*
X01446826Y009425*
X01481826*
X01484326Y0094*
G37*
G36*
X01037326Y009275D02*
Y008925D01*
X01034826Y0089*
X00989326*
X00986826Y008925*
Y009275*
X00989326Y0093*
X01034826*
X01037326Y009275*
G37*
G36*
X00971826D02*
Y008925D01*
X00969326Y0089*
X00923826*
X00921326Y008925*
Y009275*
X00923826Y0093*
X00969326*
X00971826Y009275*
G37*
G36*
X00217325D02*
Y008925D01*
X00214825Y0089*
X00169325*
X00166825Y008925*
Y009275*
X00169325Y0093*
X00214825*
X00217325Y009275*
G37*
G36*
X00151825D02*
Y008925D01*
X00149325Y0089*
X00103825*
X00101325Y008925*
Y009275*
X00103825Y0093*
X00149325*
X00151825Y009275*
G37*
G36*
X01437326Y009125D02*
Y008775D01*
X01434826Y00875*
X01389326*
X01386826Y008775*
Y009125*
X01389326Y00915*
X01434826*
X01437326Y009125*
G37*
G36*
X01371826D02*
Y008775D01*
X01369326Y00875*
X01323826*
X01321326Y008775*
Y009125*
X01323826Y00915*
X01369326*
X01371826Y009125*
G37*
G36*
X01037326Y008275D02*
Y007925D01*
X01034826Y0079*
X00989326*
X00986826Y007925*
Y008275*
X00989326Y0083*
X01034826*
X01037326Y008275*
G37*
G36*
X00971826D02*
Y007925D01*
X00969326Y0079*
X00923826*
X00921326Y007925*
Y008275*
X00923826Y0083*
X00969326*
X00971826Y008275*
G37*
G36*
X00217325D02*
Y007925D01*
X00214825Y0079*
X00169325*
X00166825Y007925*
Y008275*
X00169325Y0083*
X00214825*
X00217325Y008275*
G37*
G36*
X00151825D02*
Y007925D01*
X00149325Y0079*
X00103825*
X00101325Y007925*
Y008275*
X00103825Y0083*
X00149325*
X00151825Y008275*
G37*
G36*
X01437326Y008075D02*
Y007725D01*
X01434826Y00770001*
X01389326*
X01386826Y007725*
Y008075*
X01389326Y0081*
X01434826*
X01437326Y008075*
G37*
G36*
X01371826D02*
Y007725D01*
X01369326Y00770001*
X01323826*
X01321326Y007725*
Y008075*
X01323826Y0081*
X01369326*
X01371826Y008075*
G37*
G36*
X01037326Y007275D02*
Y006925D01*
X01034826Y0069*
X00989326*
X00986826Y006925*
Y007275*
X00989326Y0073*
X01034826*
X01037326Y007275*
G37*
G36*
X00971826D02*
Y006925D01*
X00969326Y0069*
X00923826*
X00921326Y006925*
Y007275*
X00923826Y0073*
X00969326*
X00971826Y007275*
G37*
G36*
X00217325D02*
Y006925D01*
X00214825Y0069*
X00169325*
X00166825Y006925*
Y007275*
X00169325Y0073*
X00214825*
X00217325Y007275*
G37*
G36*
X00151825D02*
Y006925D01*
X00149325Y0069*
X00103825*
X00101325Y006925*
Y007275*
X00103825Y0073*
X00149325*
X00151825Y007275*
G37*
G36*
X01437326Y007025D02*
Y006675D01*
X01434826Y00665*
X01389326*
X01386826Y006675*
Y007025*
X01389326Y00705*
X01434826*
X01437326Y007025*
G37*
G36*
X01371826D02*
Y006675D01*
X01369326Y00665*
X01323826*
X01321326Y006675*
Y007025*
X01323826Y00705*
X01369326*
X01371826Y007025*
G37*
G36*
X01022325Y006275D02*
Y005925D01*
X01019825Y0059*
X00974325*
X00971825Y005925*
Y006275*
X00974325Y0063*
X01019825*
X01022325Y006275*
G37*
G36*
X00956825D02*
Y005925D01*
X00954325Y0059*
X00908825*
X00906325Y005925*
Y006275*
X00908825Y0063*
X00954325*
X00956825Y006275*
G37*
G36*
X00232326D02*
Y005925D01*
X00229826Y0059*
X00184326*
X00181826Y005925*
Y006275*
X00184326Y0063*
X00229826*
X00232326Y006275*
G37*
G36*
X00166826D02*
Y005925D01*
X00164326Y0059*
X00118826*
X00116326Y005925*
Y006275*
X00118826Y0063*
X00164326*
X00166826Y006275*
G37*
G36*
X01437326Y005975D02*
Y005625D01*
X01434826Y0056*
X01389326*
X01386826Y005625*
Y005975*
X01389326Y006*
X01434826*
X01437326Y005975*
G37*
G36*
X01371826D02*
Y005625D01*
X01369326Y0056*
X01323826*
X01321326Y005625*
Y005975*
X01323826Y006*
X01369326*
X01371826Y005975*
G37*
G36*
X00252326Y00532499D02*
Y00497499D01*
X00249826Y00494999*
X00204326*
X00201826Y00497499*
Y00532499*
X00204326Y00534999*
X00249826*
X00252326Y00532499*
G37*
G36*
X00186826D02*
Y00497499D01*
X00184326Y00494999*
X00138826*
X00136326Y00497499*
Y00532499*
X00138826Y00534999*
X00184326*
X00186826Y00532499*
G37*
G36*
X00997326Y005275D02*
Y004925D01*
X00994826Y0049*
X00949326*
X00946826Y004925*
Y005275*
X00949326Y0053*
X00994826*
X00997326Y005275*
G37*
G36*
X00931826D02*
Y004925D01*
X00929326Y0049*
X00883826*
X00881326Y004925*
Y005275*
X00883826Y0053*
X00929326*
X00931826Y005275*
G37*
G36*
X01437326Y004925D02*
Y004575D01*
X01434826Y00455*
X01389326*
X01386826Y004575*
Y004925*
X01389326Y00495*
X01434826*
X01437326Y004925*
G37*
G36*
X01371826D02*
Y004575D01*
X01369326Y00455*
X01323826*
X01321326Y004575*
Y004925*
X01323826Y00495*
X01369326*
X01371826Y004925*
G37*
G36*
X00282326Y00437501D02*
Y00402501D01*
X00279826Y00400001*
X00234326*
X00231826Y00402501*
Y00437501*
X00234326Y00440001*
X00279826*
X00282326Y00437501*
G37*
G36*
X00216826D02*
Y00402501D01*
X00214326Y00400001*
X00168826*
X00166326Y00402501*
Y00437501*
X00168826Y00440001*
X00214326*
X00216826Y00437501*
G37*
G36*
X00947326Y00432499D02*
Y00397499D01*
X00944826Y00394999*
X00899326*
X00896826Y00397499*
Y00432499*
X00899326Y00434999*
X00944826*
X00947326Y00432499*
G37*
G36*
X00881826D02*
Y00397499D01*
X00879326Y00394999*
X00833826*
X00831326Y00397499*
Y00432499*
X00833826Y00434999*
X00879326*
X00881826Y00432499*
G37*
G36*
X01437326Y003875D02*
Y003525D01*
X01434826Y0035*
X01389326*
X01386826Y003525*
Y003875*
X01389326Y0039*
X01434826*
X01437326Y003875*
G37*
G36*
X01371826D02*
Y003525D01*
X01369326Y0035*
X01323826*
X01321326Y003525*
Y003875*
X01323826Y0039*
X01369326*
X01371826Y003875*
G37*
G36*
X00342326Y00357501D02*
Y00322501D01*
X00339826Y00320001*
X00294326*
X00291826Y00322501*
Y00357501*
X00294326Y00360001*
X00339826*
X00342326Y00357501*
G37*
G36*
X00276826D02*
Y00322501D01*
X00274326Y00320001*
X00228826*
X00226326Y00322501*
Y00357501*
X00228826Y00360001*
X00274326*
X00276826Y00357501*
G37*
G36*
X00887326Y003525D02*
Y003175D01*
X00884826Y00315*
X00839326*
X00836826Y003175*
Y003525*
X00839326Y00355*
X00884826*
X00887326Y003525*
G37*
G36*
X00821826D02*
Y003175D01*
X00819326Y00315*
X00773826*
X00771326Y003175*
Y003525*
X00773826Y00355*
X00819326*
X00821826Y003525*
G37*
G36*
X02129326Y003205D02*
Y00275D01*
X02126826Y002725*
X02091826*
X02089326Y00275*
Y003205*
X02091826Y00323*
X02126826*
X02129326Y003205*
G37*
G36*
X02029326D02*
Y00275D01*
X02026826Y002725*
X01991826*
X01989326Y00275*
Y003205*
X01991826Y00323*
X02026826*
X02029326Y003205*
G37*
G36*
X01924326D02*
Y00275D01*
X01921826Y002725*
X01886826*
X01884326Y00275*
Y003205*
X01886826Y00323*
X01921826*
X01924326Y003205*
G37*
G36*
X01819326D02*
Y00275D01*
X01816826Y002725*
X01781826*
X01779326Y00275*
Y003205*
X01781826Y00323*
X01816826*
X01819326Y003205*
G37*
G36*
X01714326D02*
Y00275D01*
X01711826Y002725*
X01676826*
X01674326Y00275*
Y003205*
X01676826Y00323*
X01711826*
X01714326Y003205*
G37*
G36*
X01609326D02*
Y00275D01*
X01606826Y002725*
X01571826*
X01569326Y00275*
Y003205*
X01571826Y00323*
X01606826*
X01609326Y003205*
G37*
G36*
X01504326D02*
Y00275D01*
X01501826Y002725*
X01466826*
X01464326Y00275*
Y003205*
X01466826Y00323*
X01501826*
X01504326Y003205*
G37*
G36*
X00422326Y002925D02*
Y002575D01*
X00419826Y00255*
X00374326*
X00371826Y002575*
Y002925*
X00374326Y00295*
X00419826*
X00422326Y002925*
G37*
G36*
X00356826D02*
Y002575D01*
X00354326Y00255*
X00308826*
X00306326Y002575*
Y002925*
X00308826Y00295*
X00354326*
X00356826Y002925*
G37*
G36*
X00807326Y00287501D02*
Y00252501D01*
X00804826Y00250001*
X00759326*
X00756826Y00252501*
Y00287501*
X00759326Y00290001*
X00804826*
X00807326Y00287501*
G37*
G36*
X00741826D02*
Y00252501D01*
X00739326Y00250001*
X00693826*
X00691326Y00252501*
Y00287501*
X00693826Y00290001*
X00739326*
X00741826Y00287501*
G37*
G36*
X01437326Y002825D02*
Y002475D01*
X01434826Y00245*
X01389326*
X01386826Y002475*
Y002825*
X01389326Y00285*
X01434826*
X01437326Y002825*
G37*
G36*
X01371826D02*
Y002475D01*
X01369326Y00245*
X01323826*
X01321326Y002475*
Y002825*
X01323826Y00285*
X01369326*
X01371826Y002825*
G37*
G36*
X00674325Y00285501D02*
Y00240001D01*
X00671825Y00237501*
X00636825*
X00634325Y00240001*
Y00285501*
X00636825Y00288001*
X00671825*
X00674325Y00285501*
G37*
G36*
X00474326D02*
Y00240001D01*
X00471826Y00237501*
X00436826*
X00434326Y00240001*
Y00285501*
X00436826Y00288001*
X00471826*
X00474326Y00285501*
G37*
G36*
X00574325Y002705D02*
Y00225D01*
X00571825Y002225*
X00536825*
X00534325Y00225*
Y002705*
X00536825Y00273*
X00571825*
X00574325Y002705*
G37*
G36*
X02129326Y00255D02*
Y002095D01*
X02126826Y00207*
X02091826*
X02089326Y002095*
Y00255*
X02091826Y002575*
X02126826*
X02129326Y00255*
G37*
G36*
X02029326D02*
Y002095D01*
X02026826Y00207*
X01991826*
X01989326Y002095*
Y00255*
X01991826Y002575*
X02026826*
X02029326Y00255*
G37*
G36*
X01924326D02*
Y002095D01*
X01921826Y00207*
X01886826*
X01884326Y002095*
Y00255*
X01886826Y002575*
X01921826*
X01924326Y00255*
G37*
G36*
X01819326D02*
Y002095D01*
X01816826Y00207*
X01781826*
X01779326Y002095*
Y00255*
X01781826Y002575*
X01816826*
X01819326Y00255*
G37*
G36*
X01714326D02*
Y002095D01*
X01711826Y00207*
X01676826*
X01674326Y002095*
Y00255*
X01676826Y002575*
X01711826*
X01714326Y00255*
G37*
G36*
X01609326D02*
Y002095D01*
X01606826Y00207*
X01571826*
X01569326Y002095*
Y00255*
X01571826Y002575*
X01606826*
X01609326Y00255*
G37*
G36*
X01504326D02*
Y002095D01*
X01501826Y00207*
X01466826*
X01464326Y002095*
Y00255*
X01466826Y002575*
X01501826*
X01504326Y00255*
G37*
G36*
X00674325Y00220001D02*
Y00174501D01*
X00671825Y00172001*
X00636825*
X00634325Y00174501*
Y00220001*
X00636825Y00222501*
X00671825*
X00674325Y00220001*
G37*
G36*
X00474326D02*
Y00174501D01*
X00471826Y00172001*
X00436826*
X00434326Y00174501*
Y00220001*
X00436826Y00222501*
X00471826*
X00474326Y00220001*
G37*
G36*
X00574325Y00205D02*
Y001595D01*
X00571825Y00157*
X00536825*
X00534325Y001595*
Y00205*
X00536825Y002075*
X00571825*
X00574325Y00205*
G37*
G54D23*
X02644049Y01290076D02*
D01*
D01*
G75*
G03X02643549I-00000250J0D01*
G74*G01*
D01*
G75*
G03X02644049I00000249J0D01*
G74*G01*
G54D24*
X02647164Y01248734D02*
D01*
D01*
G75*
G03X02636043Y01248229I-00005549J-00000485D01*
G74*G01*
G54D25*
X00604935Y00285D03*
X00614435Y00265D03*
X00595435D03*
X01421085Y0094541D03*
X01430585Y0092541D03*
X01411585D03*
X01019876Y01356505D03*
X01010376Y01376505D03*
X01029376D03*
X01019876Y01056681D03*
X01010376Y01076681D03*
X01029376D03*
X01019876Y00755936D03*
X01010376Y00775936D03*
X01029376D03*
X00979876Y00457363D03*
X00970376Y00477363D03*
X00989376D03*
X00789876Y00214802D03*
X00780376Y00234802D03*
X00799376D03*
X00503698Y00285D03*
X00513198Y00265D03*
X00494198D03*
X00264876Y00471114D03*
X00274376Y00451114D03*
X00255376D03*
X00199875Y00762242D03*
X00209375Y00742242D03*
X00190375D03*
X00199875Y01060973D03*
X00209375Y01040973D03*
X00190375D03*
X00199875Y013617D03*
X00209375Y013417D03*
X00190375D03*
X00199875Y01664608D03*
X00209375Y01644608D03*
X00190375D03*
X01019876Y01455404D03*
X01010376Y01475404D03*
X01029376D03*
X01019876Y01155834D03*
X01010376Y01175834D03*
X01029376D03*
X01019876Y00856461D03*
X01010376Y00876461D03*
X01029376D03*
X01004875Y00556462D03*
X00995375Y00576462D03*
X01014375D03*
X00869876Y0028048D03*
X00860376Y0030048D03*
X00879376D03*
X00324998Y00391999D03*
X00334498Y00371999D03*
X00315498D03*
X00214876Y00660718D03*
X00224376Y00640718D03*
X00205376D03*
X00199875Y00961554D03*
X00209375Y00941554D03*
X00190375D03*
X00199875Y01263273D03*
X00209375Y01243273D03*
X00190375D03*
X00199875Y01562674D03*
X00209375Y01542674D03*
X00190375D03*
X01019876Y01556236D03*
X01010376Y01576236D03*
X01029376D03*
X01019876Y01255987D03*
X01010376Y01275987D03*
X01029376D03*
X01019876Y00955751D03*
X01010376Y00975751D03*
X01029376D03*
X01019876Y00656021D03*
X01010376Y00676021D03*
X01029376D03*
X00929876Y00361443D03*
X00920376Y00381443D03*
X00939376D03*
X00707517Y00198751D03*
X00717017Y00178751D03*
X00698017D03*
X00404876Y00327143D03*
X00414376Y00307143D03*
X00395376D03*
X00234876Y00566672D03*
X00244376Y00546672D03*
X00225376D03*
X00199875Y00861748D03*
X00209375Y00841748D03*
X00190375D03*
X00199875Y01162272D03*
X00209375Y01142272D03*
X00190375D03*
X00199875Y01462622D03*
X00209375Y01442622D03*
X00190375D03*
X020615Y00175999D03*
X02052Y00195999D03*
X02071D03*
X017485Y00175999D03*
X01739Y00195999D03*
X01758D03*
X01421085Y0031625D03*
X01430585Y0029625D03*
X01411585D03*
X01421085Y00631553D03*
X01430585Y00611553D03*
X01411585D03*
X01929618Y01034749D03*
X01939118Y01014749D03*
X01920118D03*
X01622437Y01034749D03*
X01631937Y01014749D03*
X01612937D03*
X01421085Y01155839D03*
X01430585Y01135839D03*
X01411585D03*
X01419876Y01471428D03*
X01429376Y01451428D03*
X01410376D03*
X01537208Y01705264D03*
X01546708Y01685264D03*
X01527708D03*
X0185101Y01705264D03*
X0186051Y01685264D03*
X0184151D03*
X0216627Y01705264D03*
X0217577Y01685264D03*
X0215677D03*
X02162294Y00175999D03*
X02152794Y00195999D03*
X02171794D03*
X01850499Y00175999D03*
X01840999Y00195999D03*
X01859999D03*
X01539327Y00175926D03*
X01529827Y00195926D03*
X01548827D03*
X01421085Y00526178D03*
X01430585Y00506178D03*
X01411585D03*
X01421085Y00841163D03*
X01430585Y00821163D03*
X01411585D03*
X02031134Y01034749D03*
X02040634Y01014749D03*
X02021634D03*
X01726998Y01034749D03*
X01736498Y01014749D03*
X01717498D03*
X01419876Y01051234D03*
X01429376Y01031234D03*
X01410376D03*
X01419876Y01368153D03*
X01429376Y01348153D03*
X01410376D03*
X01419876Y0167125D03*
X01429376Y0165125D03*
X01410376D03*
X01747539Y01705264D03*
X01757039Y01685264D03*
X01738039D03*
X02059257Y01705264D03*
X02068757Y01685264D03*
X02049757D03*
X0195575Y00175999D03*
X0194625Y00195999D03*
X0196525D03*
X0164175Y00175999D03*
X0163225Y00195999D03*
X0165125D03*
X01420998Y00422499D03*
X01430498Y00402499D03*
X01411498D03*
X01421085Y00736507D03*
X01430585Y00716507D03*
X01411585D03*
X02132726Y01034749D03*
X02142226Y01014749D03*
X02123226D03*
X01830998Y01034749D03*
X01840498Y01014749D03*
X01821498D03*
X01517498Y01034749D03*
X01526998Y01014749D03*
X01507998D03*
X01419876Y01262041D03*
X01429376Y01242041D03*
X01410376D03*
X01419876Y01572586D03*
X01429376Y01552586D03*
X01410376D03*
X01643152Y01705264D03*
X01652652Y01685264D03*
X01633652D03*
X01957324Y01705264D03*
X01966824Y01685264D03*
X01947824D03*
G54D26*
X02531699Y01397099D03*
Y01384399D03*
Y01409799D03*
Y01422499D03*
G54D27*
X00994326Y01410001D03*
X00964326D03*
X00994326Y01109999D03*
X00964326D03*
X00994326Y0081D03*
X00964326D03*
X00954326Y0051D03*
X00924326D03*
X00764326Y00270002D03*
X00734326D03*
X00209326Y00420001D03*
X00239326D03*
X00144325Y0071D03*
X00174325D03*
X00144325Y0101D03*
X00174325D03*
X00144325Y01309999D03*
X00174325D03*
X00144325Y01610001D03*
X00174325D03*
X00994326Y01510001D03*
X00964326D03*
X00994326Y01209999D03*
X00964326D03*
X00994326Y0091D03*
X00964326D03*
X00979325Y0061D03*
X00949325D03*
X00844326Y00335D03*
X00814326D03*
X00269326Y00340001D03*
X00299326D03*
X00159326Y0061D03*
X00189326D03*
X00144325Y0091D03*
X00174325D03*
X00144325Y01209999D03*
X00174325D03*
X00144325Y01510001D03*
X00174325D03*
X00994326Y01610001D03*
X00964326D03*
X00994326Y01309999D03*
X00964326D03*
X00994326Y0101D03*
X00964326D03*
X00994326Y0071D03*
X00964326D03*
X00904326Y00414999D03*
X00874326D03*
X00349326Y00275D03*
X00379326D03*
X00179326Y00514999D03*
X00209326D03*
X00144325Y0081D03*
X00174325D03*
X00144325Y01109999D03*
X00174325D03*
X00144325Y01410001D03*
X00174325D03*
X01394326Y00265D03*
X01364326D03*
X01394326Y0058D03*
X01364326D03*
X01394326Y00895D03*
X01364326D03*
X01394326Y01105D03*
X01364326D03*
X01394326Y0142D03*
X01364326D03*
X01394326Y00475D03*
X01364326D03*
X01394326Y0079D03*
X01364326D03*
X01394326Y01D03*
X01364326D03*
X01394326Y01315D03*
X01364326D03*
X01394326Y0162D03*
X01364326D03*
X01394326Y0037D03*
X01364326D03*
X01394326Y00685D03*
X01364326D03*
X01394326Y0121D03*
X01364326D03*
X01394326Y0152D03*
X01364326D03*
G54D28*
X00454326Y00215001D03*
Y00245001D03*
X00554325Y002D03*
Y0023D03*
X00654325Y00215001D03*
Y00245001D03*
X02009326Y0025D03*
Y0028D03*
X01694326Y0025D03*
Y0028D03*
X01879326Y00935D03*
Y00965D03*
X01569326Y00935D03*
Y00965D03*
X01484326Y01605D03*
Y01635D03*
X01799326Y01605D03*
Y01635D03*
X02109326Y01605D03*
Y01635D03*
Y0025D03*
Y0028D03*
X01799326Y0025D03*
Y0028D03*
X01484326Y0025D03*
Y0028D03*
X01979326Y00935D03*
Y00965D03*
X01674326Y00935D03*
Y00965D03*
X01694326Y01605D03*
Y01635D03*
X02009326Y01605D03*
Y01635D03*
X01904326Y0025D03*
Y0028D03*
X01589326Y0025D03*
Y0028D03*
X02079326Y00935D03*
Y00965D03*
X01779326Y00935D03*
Y00965D03*
X01464326Y00935D03*
Y00965D03*
X01589326Y01605D03*
Y01635D03*
X01904326Y01605D03*
Y01635D03*
G54D29*
X01087409Y01610001D03*
X01117409D03*
X01087409Y01309999D03*
X01117409D03*
X01087409Y0101D03*
X01117409D03*
X0108741Y0071D03*
X0111741D03*
X00985447Y00414999D03*
X01015447D03*
X00107857Y00514999D03*
X00077857D03*
X00070739Y0081D03*
X00040739D03*
X00070739Y01109999D03*
X00040739D03*
X00070742Y01410001D03*
X00040742D03*
X01487249Y00684999D03*
X01517249D03*
X01473867Y0121D03*
X01503867D03*
G54D30*
X00604936Y00181002D03*
Y00151003D03*
X00339327Y00212799D03*
Y00182799D03*
X02245328Y00338429D03*
Y00368429D03*
X02173527Y00338499D03*
Y00368499D03*
X01957999Y00338499D03*
Y00368499D03*
X01643999Y00338499D03*
Y00368499D03*
X01550499Y00373999D03*
Y00403999D03*
X02079326Y00857229D03*
Y00827229D03*
X01779326Y00857231D03*
Y00827231D03*
X01550499Y00857229D03*
Y00827229D03*
X01499569Y01513579D03*
Y01483579D03*
X01589326Y01513579D03*
Y01483579D03*
X01904326Y01513582D03*
Y01483582D03*
G54D31*
X00075749Y01820999D03*
X02743499Y00155749D03*
X00108249Y00074749D03*
G54D32*
X02553574Y01397099D02*
X0256101Y01389663D01*
X02540485Y01397099D02*
X02553574D01*
X02504228Y01409722D02*
X02531699Y01409799D01*
X02507762Y01430161D02*
D01*
X02515424Y01422499D01*
X02531699*
X01550499Y00403999D02*
Y00684725D01*
Y00827229*
X01554504Y01243773D02*
Y01384399D01*
X0152073Y0121D02*
X01554504Y01243773D01*
X01503867Y0121D02*
X0152073D01*
X01904326Y01385362D02*
X01905289Y01384399D01*
X01904326Y01385362D02*
Y01483582D01*
X01589326Y01385092D02*
X01590019Y01384399D01*
X01589326Y01385092D02*
Y01483579D01*
X02079326Y00812401D02*
X0209158Y00800147D01*
X02079326Y00812401D02*
Y00827229D01*
X01777871Y00684725D02*
X01779326Y00686179D01*
Y00827231*
X01643999Y00684113D02*
X01644611Y00684725D01*
X01643999Y00368499D02*
Y00684113D01*
X01957999Y00684016D02*
X01958708Y00684725D01*
X01957999Y00368499D02*
Y00684016D01*
X01983355Y00691923D02*
X02173527Y00501751D01*
Y00368499D02*
Y00501751D01*
X02503176Y01384399D02*
X02531699D01*
X0156939Y01175086D02*
X01745951D01*
X01287383D02*
X0156939D01*
X01879326Y00965D02*
Y01041712D01*
X01745951Y01175086D02*
X01879326Y01041712D01*
X01284559Y01172262D02*
X01287383Y01175086D01*
X01693901Y00353158D02*
X019899D01*
X01463138D02*
X01693901D01*
X019899D02*
X02009312Y00333746D01*
X01444936Y00334956D02*
X01463138Y00353158D01*
X01284559Y00334956D02*
X01444936D01*
X02009312Y00315978D02*
Y00333746D01*
G54D33*
X02531699Y01397099D02*
X02540485D01*
X00964326Y0141027D02*
X00969045Y0140555D01*
X00964326Y01110446D02*
X00969045Y01105726D01*
X00924326Y00511128D02*
X00929045Y00506409D01*
X01849626Y01725304D02*
X0185101Y01723921D01*
X0216627Y01724831D02*
X02166743Y01725304D01*
X0182036Y01705264D02*
X0185101D01*
X01414593Y00374072D02*
X01550499D01*
X0213562Y01705264D02*
X0216627D01*
X0212411Y01693753D02*
X0213562Y01705264D01*
X0212411Y01672953D02*
Y01693753D01*
X02171794Y00195999D02*
X02211719D01*
X02245328Y00229607*
Y00338429*
X02224661Y00368429D02*
X02245328D01*
X02194731Y00338499D02*
X02224661Y00368429D01*
X02173527Y00338499D02*
X02194731D01*
X01570201Y01034858D02*
X0157031Y01034749D01*
X01622437*
X0216627Y01705264D02*
Y01724831D01*
X0185101Y01705264D02*
Y01723921D01*
X01536847Y01725304D02*
X01537208Y01724943D01*
Y01705264D02*
Y01724943D01*
X01284559Y01419074D02*
X01285523Y01420038D01*
X01329131*
X01284559Y01107484D02*
X01287412Y0110463D01*
X01331922*
X01284559Y00898101D02*
X01285986Y00896674D01*
X01330496*
X01284559Y00580995D02*
X01284916Y00580638D01*
X01331922*
X0169337Y00352628D02*
X01693901Y00353158D01*
X0169337Y00312902D02*
Y00352628D01*
X0196525Y00195999D02*
Y00212789D01*
X01961719Y00216319D02*
X0196525Y00212789D01*
X01959676Y00216319D02*
X01961719D01*
X01911279D02*
X01959676D01*
X01957999Y00217996D02*
X01959676Y00216319D01*
X01957999Y00217996D02*
Y00338499D01*
X01644479Y00216319D02*
X01648053D01*
X01597279D02*
X01644479D01*
X01643999Y00216799D02*
X01644479Y00216319D01*
X01643999Y00216799D02*
Y00338499D01*
X0165125Y00195999D02*
Y00213122D01*
X01648053Y00216319D02*
X0165125Y00213122D01*
X01167442Y00414999D02*
X0116815Y00414291D01*
X01015447Y00414999D02*
X01167442D01*
X01167607Y0071D02*
X0116815Y00709458D01*
X0111741Y0071D02*
X01167607D01*
X01167254Y0101D02*
X0116815Y01010896D01*
X01117409Y0101D02*
X01167254D01*
X01167607Y01309999D02*
X0116815Y01310541D01*
X01117409Y01309999D02*
X01167607D01*
X00325159Y00159966D02*
X00339327Y00174135D01*
Y00182799*
Y00267325D02*
X00340736Y00268734D01*
X00339327Y00212799D02*
Y00267325D01*
X00604936Y00131833D02*
X00605912Y00130857D01*
X00604936Y00131833D02*
Y00151003D01*
Y00181002D02*
X00650867D01*
X00019165Y00513939D02*
X00020226Y00514999D01*
X00077857*
X00019165Y00810417D02*
X00019582Y0081D01*
X00040739*
X00019165Y01109946D02*
X00019218Y01109999D01*
X00040739*
X01480661Y00872142D02*
Y00899548D01*
Y00872142D02*
X01495574Y00857229D01*
X01550499*
X01457549Y01608476D02*
X01467676D01*
X01448689Y01617336D02*
X01457549Y01608476D01*
X01448689Y01617336D02*
Y01663629D01*
X01441069Y0167125D02*
X01448689Y01663629D01*
X01419876Y0167125D02*
X01441069D01*
X01904326Y01580281D02*
X01905289Y01581245D01*
X01904326Y01513582D02*
Y01580281D01*
X01589326Y01513579D02*
Y01576557D01*
X01420998Y00422499D02*
Y00471243D01*
X01411585Y00479133D02*
Y00506178D01*
X01420259Y00575674D02*
X01421085Y00574849D01*
Y00526178D02*
Y00574849D01*
X01409877Y00593748D02*
X01411585Y00595455D01*
Y00611553*
X01428795Y00684999D02*
X01487249D01*
X01411585Y00694665D02*
Y00716507D01*
X01421085Y00736507D02*
Y00781537D01*
X01411585Y00803681D02*
Y00821163D01*
X01421085Y00841163D02*
Y00889592D01*
X01411585Y00906782D02*
X01412184Y00906183D01*
X01411585Y00906782D02*
Y0092541D01*
X01431603Y0099578D02*
X01452945D01*
X01410376Y01003933D02*
Y01031234D01*
X01418914Y01095759D02*
X01419876Y01094797D01*
Y01051234D02*
Y01094797D01*
X01409877Y01118254D02*
X01411585Y01119962D01*
Y01135839*
X01417918Y0121D02*
X01473867D01*
X01408339Y01221887D02*
X01410376Y01223924D01*
Y01242041*
X01419876Y01262041D02*
Y01302061D01*
X01410069Y01323789D02*
X01410376Y01324095D01*
Y01348153*
X01419875Y01411463D02*
X01419876Y01411462D01*
Y01368153D02*
Y01411462D01*
X01410376Y0142965D02*
Y01451428D01*
X01415315Y01513579D02*
X01499569D01*
X01409411Y01533006D02*
X01410376Y01533972D01*
Y01552586*
X01419876Y01618994D02*
X01421402Y0162052D01*
X01419876Y01572586D02*
Y01618994D01*
X01409666Y01631236D02*
X01410376Y01631947D01*
Y0165125*
X01375073Y0167125D02*
X01419876D01*
X01365711Y01661887D02*
X01375073Y0167125D01*
X01365711Y01636444D02*
Y01661887D01*
X01375073Y01572586D02*
X01419876D01*
X01365711Y01563223D02*
X01375073Y01572586D01*
X01365711Y0153778D02*
Y01563223D01*
X01375073Y01471428D02*
X01419876D01*
X01365711Y01462065D02*
X01375073Y01471428D01*
X01365711Y01436622D02*
Y01462065D01*
X01375073Y01368153D02*
X01419876D01*
X01365711Y01358791D02*
X01375073Y01368153D01*
X01365711Y01333348D02*
Y01358791D01*
X01375073Y01262041D02*
X01419876D01*
X01365711Y01252679D02*
X01375073Y01262041D01*
X01365711Y01227236D02*
Y01252679D01*
X01376282Y01155839D02*
X01421085D01*
X01366919Y01146477D02*
X01376282Y01155839D01*
X01366919Y01121034D02*
Y01146477D01*
X01375073Y01051234D02*
X01419876D01*
X01365711Y01041872D02*
X01375073Y01051234D01*
X01365711Y01016429D02*
Y01041872D01*
X01376282Y0094541D02*
X01421085D01*
X01366919Y00936047D02*
X01376282Y0094541D01*
X01366919Y00910604D02*
Y00936047D01*
X01376282Y00841163D02*
X01421085D01*
X01366919Y00831801D02*
X01376282Y00841163D01*
X01366919Y00806358D02*
Y00831801D01*
X01376282Y00736507D02*
X01421085D01*
X01366919Y00727144D02*
X01376282Y00736507D01*
X01366919Y00701702D02*
Y00727144D01*
X01376282Y00631553D02*
X01421085D01*
X01366919Y00622191D02*
X01376282Y00631553D01*
X01366919Y00596748D02*
Y00622191D01*
X01376282Y00526178D02*
X01421085D01*
X01366919Y00516815D02*
X01376282Y00526178D01*
X01366919Y00491372D02*
Y00516815D01*
X01376195Y00422499D02*
X01420998D01*
X01366833Y00413137D02*
X01376195Y00422499D01*
X01366833Y00387694D02*
Y00413137D01*
X01411498Y00376239D02*
Y00402499D01*
X01413238Y00375427D02*
X01414593Y00374072D01*
X01366919Y00281445D02*
Y00306887D01*
X01376282Y0031625*
X01421085*
X01455714Y00263495D02*
Y00269853D01*
Y00207744D02*
Y00263495D01*
X01455539Y00263321D02*
X01455714Y00263495D01*
X01434535Y00263321D02*
X01455539D01*
X01411585Y00281914D02*
X01414494Y00279005D01*
X01411585Y00281914D02*
Y0029625D01*
X01455714Y00269853D02*
X01462687Y00276826D01*
X01455714Y00207744D02*
X01487531Y00175926D01*
X01665797Y00270837D02*
X01671859Y00276899D01*
X01665797Y00206906D02*
Y00270837D01*
Y00206906D02*
X01696704Y00175999D01*
X01671859Y00276899D02*
X01680749D01*
X01696704Y00175999D02*
X017485D01*
X01548827Y00263155D02*
X01565282Y0027961D01*
X0157954*
X01548827Y00197131D02*
Y00263155D01*
X01487531Y00175926D02*
X01539327D01*
X01462687Y00276826D02*
X01471576D01*
X01758Y00206599D02*
Y00263228D01*
Y00197204D02*
Y00206599D01*
Y00197204D02*
X01759205Y00195999D01*
X01774454Y00279682D02*
X01788712D01*
X01758Y00263228D02*
X01774454Y00279682D01*
X01859999Y00195999D02*
Y00262023D01*
X01876453Y00278477*
X01890711*
X01604974Y00175999D02*
X0164175D01*
X01584974Y00195999D02*
X01604974Y00175999D01*
X01550456Y00195999D02*
X01584974D01*
X01759205D02*
X01793723D01*
X01813723Y00175999D02*
X01850499D01*
X01793723Y00195999D02*
X01813723Y00175999D01*
X01918974D02*
X0195575D01*
X01898974Y00195999D02*
X01918974Y00175999D01*
X01859999Y00195999D02*
X01898974D01*
X01493045Y00217225D02*
X01547929D01*
X01704029Y00216319D02*
X01757421D01*
X01806028D02*
X01859679D01*
X01984859Y00276899D02*
X01993749D01*
X01980414Y00272454D02*
X01984859Y00276899D01*
X01980414Y00208003D02*
Y00272454D01*
Y00208003D02*
X02012418Y00175999D01*
X020615*
X02071Y00255045D02*
Y00268356D01*
Y00195999D02*
Y00255045D01*
X02070815Y0025486D02*
X02071Y00255045D01*
X02024678Y0025486D02*
X02070815D01*
X02079702Y00277058D02*
X02094371D01*
X02071Y00268356D02*
X02079702Y00277058D01*
X02071Y00195999D02*
X02105518D01*
X02125518Y00175999*
X02162294*
X02127065Y00249087D02*
X02127345Y00248807D01*
X02117823Y00216319D02*
X02162074D01*
X02171794Y00206599*
Y00195999D02*
Y00206599D01*
X01778628Y00919864D02*
X01779326Y00919166D01*
Y00857231D02*
Y00919166D01*
X02079326Y00935D02*
D01*
Y00857229D02*
Y00935D01*
X01612937Y00999321D02*
X01663674D01*
X01717498D02*
X01768235D01*
X01920118D02*
X01970855D01*
X02021634D02*
Y01014749D01*
Y00947601D02*
Y00999321D01*
X02072371D02*
X02072902Y00999852D01*
X02021634Y00999321D02*
X02072371D01*
X01643152Y01705264D02*
X01654654D01*
X01665317Y01694601*
Y01614927D02*
Y01694601D01*
Y01614927D02*
X0167062Y01609624D01*
X016782*
X01747539Y01705264D02*
X0175904D01*
X01769704Y01694601*
Y01614927D02*
Y01694601D01*
Y01614927D02*
X01775007Y01609624D01*
X01782586*
X01957324Y01705264D02*
X01968825D01*
X01979488Y01694601*
Y01614927D02*
Y01694601D01*
Y01614927D02*
X01984792Y01609624D01*
X01992371*
X02086724D02*
X02094304D01*
X02081421Y01614927D02*
X02086724Y01609624D01*
X02081421Y01614927D02*
Y01694601D01*
X02070758Y01705264D02*
X02081421Y01694601D01*
X02059257Y01705264D02*
X02070758D01*
X02102076Y01034749D02*
X02132726D01*
X02090565Y01023239D02*
X02102076Y01034749D01*
X02090565Y01002438D02*
Y01023239D01*
Y01002438D02*
X02092628Y01000375D01*
X02000484Y01034749D02*
X02031134D01*
X01988974Y01023239D02*
X02000484Y01034749D01*
X01988974Y01002438D02*
Y01023239D01*
Y01002438D02*
X01991036Y01000375D01*
X01880119Y01034749D02*
X01929618D01*
X01887457Y01002438D02*
X0188952Y01000375D01*
X01800348Y01034749D02*
X01830998D01*
X01788838Y01023239D02*
X01800348Y01034749D01*
X01788838Y01002438D02*
Y01023239D01*
Y01002438D02*
X017909Y01000375D01*
X01696348Y01034749D02*
X01726998D01*
X01684838Y01023239D02*
X01696348Y01034749D01*
X01684838Y01002438D02*
Y01023239D01*
Y01002438D02*
X016869Y01000375D01*
X01580277Y01002438D02*
X01582339Y01000375D01*
X01486848Y01034749D02*
X01517498D01*
X01475338Y01023239D02*
X01486848Y01034749D01*
X01475338Y01002438D02*
Y01023239D01*
Y01002438D02*
X014774Y01000375D01*
X01506558Y01705264D02*
X01537208D01*
X01495048Y01693753D02*
X01506558Y01705264D01*
X01495048Y01672953D02*
Y01693753D01*
Y01672953D02*
X0149711Y01670891D01*
X01612503Y01705264D02*
X01643152D01*
X01600992Y01693753D02*
X01612503Y01705264D01*
X01600992Y01672953D02*
Y01693753D01*
Y01672953D02*
X01603055Y01670891D01*
X01716889Y01705264D02*
X01747539D01*
X01705378Y01693753D02*
X01716889Y01705264D01*
X01705378Y01672953D02*
Y01693753D01*
Y01672953D02*
X01707441Y01670891D01*
X01808849Y01693753D02*
X0182036Y01705264D01*
X01808849Y01672953D02*
Y01693753D01*
Y01672953D02*
X01810912Y01670891D01*
X01926674Y01705264D02*
X01957324D01*
X01915163Y01693753D02*
X01926674Y01705264D01*
X01915163Y01672953D02*
Y01693753D01*
Y01672953D02*
X01917226Y01670891D01*
X02028607Y01705264D02*
X02059257D01*
X02017096Y01693753D02*
X02028607Y01705264D01*
X02017096Y01672953D02*
Y01693753D01*
X02123226Y00947601D02*
Y01014749D01*
X02114116Y00938491D02*
X02123226Y00947601D01*
X02089706Y00938491D02*
X02114116D01*
X02012524D02*
X02021634Y00947601D01*
X01988114Y00938491D02*
X02012524D01*
X01920118Y00947601D02*
Y01014749D01*
X01911008Y00938491D02*
X01920118Y00947601D01*
X01886598Y00938491D02*
X01911008D01*
X01821498Y00947601D02*
Y01014749D01*
X01812388Y00938491D02*
X01821498Y00947601D01*
X01787978Y00938491D02*
X01812388D01*
X01717498Y00947601D02*
Y01014749D01*
X01708388Y00938491D02*
X01717498Y00947601D01*
X01683978Y00938491D02*
X01708388D01*
X01612937Y00947601D02*
Y01014749D01*
X01603827Y00938491D02*
X01612937Y00947601D01*
X01579417Y00938491D02*
X01603827D01*
X01507998Y00947601D02*
Y01014749D01*
X01498888Y00938491D02*
X01507998Y00947601D01*
X01474478Y00938491D02*
X01498888D01*
X01527708Y01618116D02*
Y01685264D01*
X01518598Y01609006D02*
X01527708Y01618116D01*
X01494188Y01609006D02*
X01518598D01*
X01633652Y01618116D02*
Y01685264D01*
X01624543Y01609006D02*
X01633652Y01618116D01*
X01600132Y01609006D02*
X01624543D01*
X01738039Y01618116D02*
Y01685264D01*
X01728929Y01609006D02*
X01738039Y01618116D01*
X01704519Y01609006D02*
X01728929D01*
X0184151Y01618116D02*
Y01685264D01*
X018324Y01609006D02*
X0184151Y01618116D01*
X0180799Y01609006D02*
X018324D01*
X01947824Y01618116D02*
Y01685264D01*
X01938714Y01609006D02*
X01947824Y01618116D01*
X01914304Y01609006D02*
X01938714D01*
X02049757Y01618116D02*
Y01685264D01*
X02040647Y01609006D02*
X02049757Y01618116D01*
X02016237Y01609006D02*
X02040647D01*
X0212325D02*
X0214766D01*
X0215677Y01618116*
Y01685264*
X0212411Y01672953D02*
X02126172Y01670891D01*
X01028465Y01504315D02*
X01029376Y01503402D01*
Y01475404D02*
Y01503402D01*
X01017585Y01418161D02*
X01019876Y01420453D01*
Y01455404*
X01029376Y01408415D02*
X01030463Y01409502D01*
X01029376Y01376505D02*
Y01408415D01*
X01021803Y01310248D02*
X01022053Y01309999D01*
X01087409*
X01029376Y01303166D02*
X01032017Y01305808D01*
X01029376Y01275987D02*
Y01303166D01*
X01017363Y01214326D02*
X01019876Y01216839D01*
Y01255987*
X0102802Y0120389D02*
X01029376Y01202535D01*
Y01175834D02*
Y01202535D01*
X01019361Y01120402D02*
X01019876Y01120917D01*
Y01155834*
X01029376Y01076681D02*
Y01105548D01*
X0102876Y0101D02*
X01087409D01*
X01020717D02*
X0102876D01*
X01029376Y01009384*
Y00975751D02*
Y01009384D01*
X01018399Y00915724D02*
X01019876Y00917201D01*
Y00955751*
X0102876Y00903419D02*
X01029376Y00902804D01*
Y00876461D02*
Y00902804D01*
X01019876Y00821641D02*
X01020989Y00820528D01*
X01019876Y00821641D02*
Y00856461D01*
X01025199Y00805957D02*
X01029376Y0080178D01*
Y00775936D02*
Y0080178D01*
X01021703Y0071D02*
X0108741D01*
X01029376Y00676021D02*
Y00707417D01*
X01016238Y00623231D02*
X01019876Y00626869D01*
Y00656021*
X01014218Y00600702D02*
X01014375Y00600546D01*
Y00576462D02*
Y00600546D01*
X00988402Y00556462D02*
X01004875D01*
X00975781D02*
X00988402D01*
X00988076Y00556136D02*
X00988402Y00556462D01*
X00988076Y00526178D02*
Y00556136D01*
X00988073Y00499804D02*
X00989376Y00498501D01*
Y00477363D02*
Y00498501D01*
X00927104Y00414487D02*
X00927616Y00414999D01*
X00985447*
X0093877Y00411926D02*
X00939376Y0041132D01*
Y00381443D02*
Y0041132D01*
X00874326Y00415207D02*
X00879045Y00410488D01*
Y00346916D02*
X00879055Y00346907D01*
X00801505Y00286455D02*
Y00329851D01*
X00878558Y00325232D02*
X00879376Y00324415D01*
Y0030048D02*
Y00324415D01*
X00799376Y00234802D02*
Y00267219D01*
X00760782Y00214802D02*
X00789876D01*
X00739046Y00236539D02*
X00760782Y00214802D01*
X00739046Y00236539D02*
Y00263847D01*
X00734326Y00268567D02*
X00739046Y00263847D01*
X00840782Y0028048D02*
X00869876D01*
X00819045Y00302217D02*
X00840782Y0028048D01*
X00819045Y00302217D02*
Y00329525D01*
X00814326Y00334245D02*
X00819045Y00329525D01*
X00879938Y00361443D02*
X00929876D01*
X00879045Y00346916D02*
Y00410488D01*
X00950782Y00457363D02*
X00979876D01*
X00929045Y004791D02*
X00950782Y00457363D01*
X00929045Y004791D02*
Y00506409D01*
X00954044Y00578199D02*
X00975781Y00556462D01*
X00954044Y00578199D02*
Y00605507D01*
X00949325Y00610227D02*
X00954044Y00605507D01*
X00990782Y00656021D02*
X01019876D01*
X00969045Y00677758D02*
X00990782Y00656021D01*
X00969045Y00677758D02*
Y00705067D01*
X00964326Y00709786D02*
X00969045Y00705067D01*
X00990782Y00755936D02*
X01019876D01*
X00969045Y00777673D02*
X00990782Y00755936D01*
X00969045Y00777673D02*
Y00804981D01*
X00964326Y00809701D02*
X00969045Y00804981D01*
X00990782Y00856461D02*
X01019876D01*
X00969045Y00878198D02*
X00990782Y00856461D01*
X00969045Y00878198D02*
Y00905506D01*
X00964326Y00910226D02*
X00969045Y00905506D01*
X00990782Y00955751D02*
X01019876D01*
X00969045Y00977488D02*
X00990782Y00955751D01*
X00969045Y00977488D02*
Y01004796D01*
X00964326Y01009516D02*
X00969045Y01004796D01*
X00990782Y01056681D02*
X01019876D01*
X00969045Y01078418D02*
X00990782Y01056681D01*
X00969045Y01078418D02*
Y01105726D01*
X00990782Y01155834D02*
X01019876D01*
X00969045Y01177571D02*
X00990782Y01155834D01*
X00969045Y01177571D02*
Y01204879D01*
X00964326Y01209599D02*
X00969045Y01204879D01*
X00990782Y01255987D02*
X01019876D01*
X00969045Y01277724D02*
X00990782Y01255987D01*
X00969045Y01277724D02*
Y01305032D01*
X00964326Y01309752D02*
X00969045Y01305032D01*
X00990782Y01356505D02*
X01019876D01*
X00969045Y01378242D02*
X00990782Y01356505D01*
X00969045Y01378242D02*
Y0140555D01*
X00990782Y01455404D02*
X01019876D01*
X00969045Y01477141D02*
X00990782Y01455404D01*
X00969045Y01477141D02*
Y0150445D01*
X00964326Y01509169D02*
X00969045Y0150445D01*
X01019876Y01521378D02*
Y01556236D01*
X00964326Y01610001D02*
X00969045Y01605281D01*
Y01577973D02*
Y01605281D01*
Y01577973D02*
X00990782Y01556236D01*
X01019876*
X01027779Y01610001D02*
X01087409D01*
X01015299D02*
X01027779D01*
X01029376Y01608404*
Y01576236D02*
Y01608404D01*
X00654481Y00179539D02*
X00655268Y00178751D01*
X00698017*
X00654325Y00245001D02*
X00658606Y0024072D01*
X00685624*
X00707517Y00218828*
Y00198751D02*
Y00218828D01*
X00595435Y00247749D02*
Y00265D01*
Y00213003D02*
Y00247749D01*
X00651577D02*
X00654325Y00245001D01*
X00595435Y00247749D02*
X00651577D01*
X00568974Y00202574D02*
X00570633Y00204232D01*
X00586665*
X00595435Y00213003*
X00571185Y00267993D02*
Y0027905D01*
X00577135Y00285*
X00604935*
X00494198Y00247458D02*
Y00265D01*
Y00231158D02*
Y00247458D01*
X00495117Y0024654*
X00537873*
X00454326Y00215001D02*
X00458488Y00219164D01*
X00482204*
X00494198Y00231158*
X00466648Y00285D02*
X00503698D01*
X00273463Y00314497D02*
Y00326649D01*
Y00314497D02*
X00276799Y00311161D01*
X00344706*
X00360688Y00327143*
X00404876*
X00209326Y00420001D02*
X00213181Y00416146D01*
Y00395032D02*
Y00416146D01*
Y00395032D02*
X00216214Y00391999D01*
X00324998*
X00159326Y0061D02*
X00163859Y00605467D01*
Y00578976D02*
Y00605467D01*
Y00578976D02*
X00176164Y00566672D01*
X00234876*
X00144325Y0071D02*
X00148371Y00705954D01*
Y00679765D02*
Y00705954D01*
Y00679765D02*
X00167418Y00660718D01*
X00214876*
X00166283Y00861748D02*
X00199875D01*
X00144325Y00883706D02*
X00166283Y00861748D01*
X00144325Y00883706D02*
Y00909075D01*
X00166283Y00961554D02*
X00199875D01*
X00144325Y00983512D02*
X00166283Y00961554D01*
X00144325Y00983512D02*
Y01008881D01*
X00166283Y01162272D02*
X00199875D01*
X00144325Y0118423D02*
X00166283Y01162272D01*
X00144325Y0118423D02*
Y01209598D01*
X00166283Y01263273D02*
X00199875D01*
X00144325Y01285231D02*
X00166283Y01263273D01*
X00144325Y01285231D02*
Y013106D01*
X00166283Y01462622D02*
X00199875D01*
X00144325Y0148458D02*
X00166283Y01462622D01*
X00144325Y0148458D02*
Y01509948D01*
Y01584632D02*
Y01610001D01*
Y01584632D02*
X00166283Y01562674D01*
X00199875*
X00404876Y00327143D02*
X00423393D01*
X00430818Y00319718*
Y00293762D02*
Y00319718D01*
X00425874Y00288818D02*
X00430818Y00293762D01*
X00418149Y00288818D02*
X00425874D01*
X00324998Y00391999D02*
X00343515D01*
X00350941Y00384574*
Y00358618D02*
Y00384574D01*
X00345997Y00353674D02*
X00350941Y00358618D01*
X00338272Y00353674D02*
X00345997D01*
X00264876Y00471114D02*
X00283393D01*
X00290818Y00463689*
Y00437733D02*
Y00463689D01*
X00285874Y00432789D02*
X00290818Y00437733D01*
X0027815Y00432789D02*
X00285874D01*
X00234876Y00566672D02*
X00253393D01*
X00260818Y00559246*
Y00533291D02*
Y00559246D01*
X00255875Y00528347D02*
X00260818Y00533291D01*
X0024815Y00528347D02*
X00255875D01*
X00214876Y00660718D02*
X00233393D01*
X00240818Y00653293*
Y00627337D02*
Y00653293D01*
X00235875Y00622394D02*
X00240818Y00627337D01*
X0022815Y00622394D02*
X00235875D01*
X00199875Y00762242D02*
X00218392D01*
X00225817Y00754817*
Y00728861D02*
Y00754817D01*
X00220873Y00723917D02*
X00225817Y00728861D01*
X00213149Y00723917D02*
X00220873D01*
X00199875Y00861748D02*
X00218392D01*
X00225818Y00854323*
Y00828367D02*
Y00854323D01*
X00220874Y00823423D02*
X00225818Y00828367D01*
X00213149Y00823423D02*
X00220874D01*
X00199875Y00961554D02*
X00218392D01*
X00225817Y00954129*
Y00928174D02*
Y00954129D01*
X00220874Y0092323D02*
X00225817Y00928174D01*
X00213149Y0092323D02*
X00220874D01*
X00199875Y01060973D02*
X00218392D01*
X00225817Y01053547*
Y01027592D02*
Y01053547D01*
X00220873Y01022648D02*
X00225817Y01027592D01*
X00213149Y01022648D02*
X00220873D01*
X00199875Y01162272D02*
X00218392D01*
X00225817Y01154846*
Y01128891D02*
Y01154846D01*
X00220874Y01123947D02*
X00225817Y01128891D01*
X00213149Y01123947D02*
X00220874D01*
X00199875Y01263273D02*
X00218392D01*
X00225817Y01255848*
Y01229893D02*
Y01255848D01*
X00220874Y01224949D02*
X00225817Y01229893D01*
X00213149Y01224949D02*
X00220874D01*
X00199875Y013617D02*
X00218392D01*
X00225817Y01354275*
Y01328319D02*
Y01354275D01*
X00220874Y01323375D02*
X00225817Y01328319D01*
X00213149Y01323375D02*
X00220874D01*
X00199875Y01462622D02*
X00218392D01*
X00225817Y01455196*
Y01429241D02*
Y01455196D01*
X00220874Y01424297D02*
X00225817Y01429241D01*
X00213149Y01424297D02*
X00220874D01*
X00199875Y01562674D02*
X00218392D01*
X00225817Y01555249*
Y01529294D02*
Y01555249D01*
X00220873Y0152435D02*
X00225817Y01529294D01*
X00213149Y0152435D02*
X00220873D01*
X00213149Y01626284D02*
X00220873D01*
X00225817Y01631227*
Y01657183*
X00218392Y01664608D02*
X00225817Y01657183D01*
X00199875Y01664608D02*
X00218392D01*
X00358362Y00307143D02*
X00395376D01*
X00352576Y00301357D02*
X00358362Y00307143D01*
X00352576Y00288091D02*
Y00301357D01*
X00278484Y00371999D02*
X00315498D01*
X00272698Y00366213D02*
X00278484Y00371999D01*
X00272698Y00352947D02*
Y00366213D01*
X00218362Y00451114D02*
X00255376D01*
X00212576Y00445328D02*
X00218362Y00451114D01*
X00212576Y00432062D02*
Y00445328D01*
X001568Y00514999D02*
X00156901Y00514898D01*
X00107857Y00514999D02*
X001568D01*
X00188362Y00546672D02*
X00225376D01*
X00182576Y00540885D02*
X00188362Y00546672D01*
X00182576Y00527619D02*
Y00540885D01*
X00168362Y00640718D02*
X00205376D01*
X00162576Y00634932D02*
X00168362Y00640718D01*
X00162576Y00621666D02*
Y00634932D01*
X00153361Y00742242D02*
X00190375D01*
X00147575Y00736456D02*
X00153361Y00742242D01*
X00147575Y0072319D02*
Y00736456D01*
X00127719Y0081D02*
X0012837Y00809349D01*
X00070739Y0081D02*
X00127719D01*
X00153361Y00841748D02*
X00190375D01*
X00147575Y00835962D02*
X00153361Y00841748D01*
X00147575Y00822696D02*
Y00835962D01*
X00153361Y00941554D02*
X00190375D01*
X00147575Y00935769D02*
X00153361Y00941554D01*
X00147575Y00922502D02*
Y00935769D01*
X00118792Y01410001D02*
X0012006Y01411269D01*
X00070742Y01410001D02*
X00118792D01*
X00111921Y01109999D02*
X00112581Y01109339D01*
X00070739Y01109999D02*
X00111921D01*
X00153361Y01040973D02*
X00190375D01*
X00147575Y01035187D02*
X00153361Y01040973D01*
X00147575Y01021921D02*
Y01035187D01*
X00153361Y01142272D02*
X00190375D01*
X00147575Y01136486D02*
X00153361Y01142272D01*
X00147575Y0112322D02*
Y01136486D01*
X00153361Y01243273D02*
X00190375D01*
X00147575Y01237488D02*
X00153361Y01243273D01*
X00147575Y01224221D02*
Y01237488D01*
X00153361Y013417D02*
X00190375D01*
X00147575Y01335914D02*
X00153361Y013417D01*
X00147575Y01322648D02*
Y01335914D01*
X00153361Y01442622D02*
X00190375D01*
X00147575Y01436836D02*
X00153361Y01442622D01*
X00147575Y0142357D02*
Y01436836D01*
X00153361Y01542674D02*
X00190375D01*
X00147575Y01536888D02*
X00153361Y01542674D01*
X00147575Y01523622D02*
Y01536888D01*
Y01625556D02*
Y01638822D01*
X00153361Y01644608*
X00190375*
G54D34*
X0256101Y01389663D02*
X02563304Y01387369D01*
Y00521176D02*
Y01387369D01*
X02492847Y01409799D02*
X02504228Y01409722D01*
X02177342Y01725304D02*
X02492847Y01409799D01*
X02166743Y01725304D02*
X02177342D01*
X02187605Y01750318D02*
X02507762Y01430161D01*
X00997066Y01750318D02*
X02187605D01*
X0098001Y01733262D02*
X00997066Y01750318D01*
X01849626Y01725304D02*
X02166743D01*
X01284559Y01627794D02*
X01382068Y01725304D01*
X01536847D02*
X01849626D01*
X00785493Y01538746D02*
X0098001Y01733262D01*
X00586736Y00425883D02*
X00686912Y00325708D01*
X00574376Y00438244D02*
X00586736Y00425883D01*
X00686912Y00325708D02*
X00712847Y00299773D01*
X01554504Y01384399D02*
X01590019D01*
X01545624D02*
X01554504D01*
X01905289D02*
X02213115D01*
X01590019D02*
X01905289D01*
X02213115D02*
X02503176D01*
X01499569Y01430454D02*
Y01479972D01*
Y01430454D02*
X01545624Y01384399D01*
X01312886Y00265D02*
X01364326D01*
X01284559Y00293327D02*
X01312886Y00265D01*
X01284559Y00293327D02*
Y00334956D01*
X0116815Y01310541D02*
Y01574658D01*
X01132484Y01610323D02*
X0116815Y01574658D01*
X01120209Y01610323D02*
X01132484D01*
X01382068Y01725304D02*
X01536847D01*
X01284559Y01419074D02*
Y01627794D01*
X02172985Y00130857D02*
X02563304Y00521176D01*
X0116815Y00130857D02*
X02172985D01*
X01284559Y01172262D02*
Y01419074D01*
Y01107484D02*
Y01172262D01*
Y00898101D02*
Y01107484D01*
Y00580995D02*
Y00898101D01*
Y00334956D02*
Y00580995D01*
X0116815Y00414291D02*
Y00709458D01*
Y00130857D02*
Y00414291D01*
Y00709458D02*
Y01010896D01*
Y01310541*
X00605912Y00130857D02*
X0116815D01*
X00325159Y00159966D02*
X00354268Y00130857D01*
X00019165Y0046596D02*
X00325159Y00159966D01*
X00354268Y00130857D02*
X00605912D01*
X00019165Y0046596D02*
Y00513939D01*
Y00810417D02*
Y00513939D01*
Y00810417D02*
Y01109946D01*
Y01401724D02*
Y01109946D01*
X00028113Y01410672D02*
X00037003D01*
X00019165Y01401724D02*
X00028113Y01410672D01*
X00574011Y01327263D02*
X00785493Y01538746D01*
X00567404Y01308603D02*
Y01107444D01*
Y01012546D02*
Y01107444D01*
Y01012546D02*
Y00808175D01*
Y00712722D02*
Y00808175D01*
Y00445216D02*
X00574376Y00438244D01*
X00567404Y00445216D02*
Y00712722D01*
Y01308603D02*
Y01320656D01*
X00574011Y01327263*
X00712847Y00279692D02*
Y00299773D01*
G54D35*
X01519492Y00684725D02*
X01550499D01*
X01644611*
X0209158Y00800147D02*
X02213115Y00921682D01*
X01983355Y00691923D02*
X0209158Y00800147D01*
X01777871Y00684725D02*
X01958708D01*
X01644611D02*
X01777871D01*
X01958708D02*
X01976157D01*
X01983355Y00691923*
X02213115Y01384399D02*
Y00921682D01*
G54D36*
X00454326Y00293473D02*
X00586736Y00425883D01*
X00454326Y00245001D02*
Y00293473D01*
X00871205Y0051D02*
X00924326D01*
X00686912Y00325708D02*
X00871205Y0051D01*
X01570201Y01034858D02*
Y01174276D01*
Y01002449D02*
Y01034858D01*
X0156939Y01175086D02*
X01570201Y01174276D01*
X00785493Y01538746D02*
X00914238Y01410001D01*
X00964326*
X00567404Y01107444D02*
X00569959Y01109999D01*
X00964326*
X00567404Y00808175D02*
X00569229Y0081D01*
X00964326*
X00556133Y00420001D02*
X00574376Y00438244D01*
X00239326Y00420001D02*
X00556133D01*
X00564682Y0071D02*
X00567404Y00712722D01*
X00174325Y0071D02*
X00564682D01*
X00564857Y0101D02*
X00567404Y01012546D01*
X00174325Y0101D02*
X00564857D01*
X00566008Y01309999D02*
X00567404Y01308603D01*
X00174325Y01309999D02*
X00566008D01*
X00291273Y01610001D02*
X00574011Y01327263D01*
X00174325Y01610001D02*
X00291273D01*
G54D37*
X02647359Y01265656D02*
X02647429Y01265636D01*
X02647679Y01265456*
X02647779Y01265156*
Y01265086D02*
Y01265156D01*
X02647639Y01264806D02*
X02647779Y01265086D01*
X02647359Y01264666D02*
X02647639Y01264806D01*
X02657389Y01262386D02*
X02657459Y01267846D01*
X02652239Y01261246D02*
Y01268596D01*
X02652979Y01261416D02*
Y01268486D01*
X02653729Y01261576D02*
Y01268376D01*
X02654479Y01261746D02*
Y01268276D01*
X02655219Y01261906D02*
Y01268166D01*
X02655969Y01262066D02*
Y01268056D01*
X02656719Y01262236D02*
Y01267946D01*
X02651489Y01261086D02*
Y01268706D01*
X02646259Y01259936D02*
Y01264486D01*
X02647009Y01260096D02*
Y01264606D01*
X02647749Y01260266D02*
Y01265036D01*
X02649989Y01260756D02*
Y01268916D01*
X02650739Y01260926D02*
Y01268816D01*
X02646259Y01265826D02*
Y01269456D01*
X02647009Y01265706D02*
Y01269356D01*
X02647749Y01265246D02*
Y01269246D01*
X02649249Y01260596D02*
Y01269026D01*
X02648499Y01260426D02*
Y01269136D01*
X02647509Y01275876D02*
X02647579Y01275856D01*
X02647829Y01275676*
X02647929Y01275376*
Y01275306D02*
Y01275376D01*
X02647789Y01275026D02*
X02647929Y01275306D01*
X02656719Y01272586D02*
Y01278256D01*
X02654479Y01272266D02*
Y01278756D01*
X02655219Y01272366D02*
Y01278586D01*
X02655969Y01272476D02*
Y01278426D01*
X02657459Y01272696D02*
Y01278086D01*
X02647509Y01274886D02*
X02647789Y01275026D01*
X02646259Y01271076D02*
Y01274696D01*
X02647009Y01271186D02*
Y01274806D01*
X02647749Y01271286D02*
Y01275006D01*
X02643679Y01270266D02*
Y01270336D01*
X02643829Y01270626*
X02644109Y01270766*
X02644039Y01269786D02*
X02644109Y01269776D01*
X02643779Y01269966D02*
X02644039Y01269786D01*
X02643679Y01270266D02*
X02643779Y01269966D01*
X02641029Y01266656D02*
Y01273896D01*
X02644019Y01266186D02*
Y01269796D01*
X02633239Y01267896D02*
Y01272706D01*
X02633569Y01267836D02*
Y01272756D01*
X02634309Y01267726D02*
Y01272866D01*
X02635059Y01267606D02*
Y01272976D01*
X02635809Y01267486D02*
Y01273096D01*
X02638789Y01267006D02*
Y01273556D01*
X02636549Y01267366D02*
Y01273206D01*
X02637299Y01267246D02*
Y01273326D01*
X02638049Y01267126D02*
Y01273436D01*
X02639539Y01266896D02*
Y01273666D01*
X02640289Y01266776D02*
Y01273776D01*
X02644019Y01270716D02*
Y01274346D01*
X02641779Y01266536D02*
Y01274006D01*
X02642529Y01266416D02*
Y01274126D01*
X02643269Y01266296D02*
Y01274236D01*
X02652379Y01285286D02*
Y01290116D01*
X02653129Y01285286D02*
Y01290126D01*
X02653869Y01285286D02*
Y01290126D01*
X02654619Y01285286D02*
Y01290126D01*
X02655369Y01285286D02*
Y01290136D01*
X02656109Y01285286D02*
Y01290136D01*
X02656859Y01285286D02*
Y01290136D01*
X02651629Y01285286D02*
Y01290116D01*
X02652379Y01292856D02*
Y01298626D01*
X02653129Y01293006D02*
Y01298476D01*
X02653869Y01293166D02*
Y01298326D01*
X02654619Y01293316D02*
Y01298176D01*
X02655369Y01293466D02*
Y01298026D01*
X02656109Y01293626D02*
Y01297876D01*
X02656859Y01293776D02*
Y01297726D01*
X02657539Y01285286D02*
Y01290136D01*
Y01293916D02*
Y01297586D01*
X02651629Y01292706D02*
Y01298776D01*
X02649389Y01285286D02*
Y01290106D01*
X02646409Y01285286D02*
Y01290096D01*
X02647149Y01285286D02*
Y01290096D01*
X02647899Y01285286D02*
Y01290096D01*
X02648649Y01285286D02*
Y01290106D01*
X02646919Y01296246D02*
X02647019Y01296216D01*
X02647259Y01296006*
X02647329Y01295696*
X02647189Y01295406D02*
X02647329Y01295696D01*
X02646919Y01295256D02*
X02647189Y01295406D01*
X02646409Y01291626D02*
Y01295166D01*
X02647149Y01291776D02*
Y01295386D01*
X02650139Y01285286D02*
Y01290106D01*
X02650889Y01285286D02*
Y01290116D01*
Y01292546D02*
Y01298926D01*
X02645659Y01285286D02*
Y01290086D01*
Y01291476D02*
Y01295026D01*
X02650139Y01292396D02*
Y01299076D01*
X02643619Y01290116D02*
X02643799Y01290076D01*
X02643379Y01290316D02*
X02643619Y01290116D01*
X02643299Y01290626D02*
X02643379Y01290316D01*
X02643299Y01290626D02*
X02643429Y01290916D01*
X02643699Y01291066*
X02643419Y01285286D02*
Y01290286D01*
X02644169Y01285286D02*
Y01290086D01*
X02640429Y01285286D02*
Y01294076D01*
X02641179Y01285286D02*
Y01294216D01*
X02641929Y01285286D02*
Y01294346D01*
X02642669Y01285286D02*
Y01294486D01*
X02643419Y01290896D02*
Y01294626D01*
X02644169Y01291166D02*
Y01294756D01*
X02638189Y01285286D02*
Y01293666D01*
X02638939Y01285286D02*
Y01293806D01*
X02633319Y01285286D02*
Y01292786D01*
X02633709Y01285286D02*
Y01292856D01*
X02634459Y01285286D02*
Y01292987D01*
X02635209Y01285286D02*
Y01293126D01*
X02635949Y01285286D02*
Y01293266D01*
X02636699Y01285286D02*
Y01293396D01*
X02637449Y01285286D02*
Y01293536D01*
X02639689Y01285286D02*
Y01293946D01*
X02652379Y01301366D02*
Y01306156D01*
X02653129Y01301366D02*
Y01306156D01*
X02653869Y01301366D02*
Y01306156D01*
X02654619Y01301366D02*
Y01306156D01*
X02655369Y01301366D02*
Y01306156D01*
X02656109Y01301366D02*
Y01306156D01*
X02656859Y01301366D02*
Y01306156D01*
X02651629Y01301366D02*
Y01306156D01*
X02657539Y01301366D02*
X02657609Y01306156D01*
X02649389Y01301366D02*
Y01306156D01*
X02646409Y01301366D02*
Y01306156D01*
X02647149Y01301366D02*
Y01306156D01*
X02647899Y01301366D02*
Y01306156D01*
X02648649Y01301366D02*
Y01306156D01*
X02650139Y01301366D02*
Y01306156D01*
X02650889Y01301366D02*
Y01306156D01*
X02645659Y01301366D02*
Y01306156D01*
X02643529Y01300446D02*
X02643699Y01300366D01*
X02643329Y01300686D02*
X02643529Y01300446D01*
X02643319Y01301006D02*
X02643329Y01300686D01*
X02643319Y01301006D02*
X02643499Y01301266D01*
X02643799Y01301366*
X02643419Y01301146D02*
Y01306156D01*
X02644169Y01301366D02*
Y01306156D01*
X02645509Y01259776D02*
Y01264376D01*
X02644769Y01259606D02*
Y01264256D01*
X02645509Y01265946D02*
Y01269566D01*
X02644769Y01266066D02*
Y01269676D01*
X02633239Y01267896D02*
X02647359Y01265656D01*
X02633169Y01262426D02*
X02647359Y01264666D01*
X02633249Y01278176D02*
X02647509Y01275876D01*
X02645509Y01270966D02*
Y01274576D01*
X02644769Y01270856D02*
Y01274466D01*
X02633239Y01272706D02*
X02647509Y01274886D01*
X02644909Y01285286D02*
Y01290086D01*
Y01291316D02*
Y01294896D01*
X02633319Y01298666D02*
X02646919Y01296246D01*
X02633319Y01292786D02*
X02646919Y01295256D01*
X02644909Y01301366D02*
Y01306156D01*
X02644109Y01270766D02*
X02657459Y01272696D01*
X02644109Y01269776D02*
X02657459Y01267846D01*
X02643799Y01290076D02*
X02657539Y01290136D01*
X02643699Y01291066D02*
X02657539Y01293916D01*
X02633319Y01285286D02*
X02657539D01*
X02643799Y01301366D02*
X02657539D01*
X02633319Y01306156D02*
X02657609D01*
X02646259Y01276076D02*
Y01280586D01*
X02647009Y01275956D02*
Y01280426D01*
X02647749Y01275736D02*
Y01280256D01*
X02652979Y01272046D02*
Y01279086D01*
X02653729Y01272156D02*
Y01278926D01*
X02652239Y01271936D02*
Y01279256D01*
X02651489Y01271826D02*
Y01279426D01*
X02649249Y01271506D02*
Y01279926D01*
X02648499Y01271397D02*
Y01280086D01*
X02649989Y01271616D02*
Y01279756D01*
X02650739Y01271726D02*
Y01279586D01*
X02646409Y01296336D02*
Y01299826D01*
X02647149Y01296096D02*
Y01299676D01*
X02649389Y01292246D02*
Y01299226D01*
X02647899Y01291936D02*
Y01299526D01*
X02648649Y01292086D02*
Y01299376D01*
X02645659Y01296466D02*
Y01299976D01*
X02641029Y01258786D02*
Y01263666D01*
X02641779Y01258956D02*
Y01263786D01*
X02642529Y01259116D02*
Y01263906D01*
X02643269Y01259276D02*
Y01264016D01*
X02644019Y01259446D02*
Y01264136D01*
X02638789Y01258296D02*
Y01263316D01*
X02635809Y01257636D02*
Y01262846D01*
X02636549Y01257806D02*
Y01262956D01*
X02637299Y01257966D02*
Y01263076D01*
X02638049Y01258126D02*
Y01263196D01*
X02633169Y01257056D02*
Y01262426D01*
X02633569Y01257146D02*
Y01262486D01*
X02634309Y01257306D02*
Y01262606D01*
X02635059Y01257476D02*
Y01262726D01*
X02641029Y01276916D02*
Y01281756D01*
X02641779Y01276796D02*
Y01281586D01*
X02642529Y01276676D02*
Y01281426D01*
X02643269Y01276556D02*
Y01281256D01*
X02644019Y01276436D02*
Y01281086D01*
X02638789Y01277276D02*
Y01282256D01*
X02633249Y01278176D02*
X02633309Y01283476D01*
X02633569Y01278116D02*
Y01283426D01*
X02634309Y01277996D02*
Y01283256D01*
X02635059Y01277876D02*
Y01283086D01*
X02635809Y01277756D02*
Y01282926D01*
X02636549Y01277636D02*
Y01282756D01*
X02637299Y01277516D02*
Y01282586D01*
X02638049Y01277396D02*
Y01282426D01*
X02639539Y01258456D02*
Y01263426D01*
X02640289Y01258626D02*
Y01263546D01*
X02639539Y01277156D02*
Y01282086D01*
X02640289Y01277036D02*
Y01281926D01*
X02643419Y01296866D02*
Y01300576D01*
X02644169Y01296736D02*
Y01300276D01*
X02640429Y01297396D02*
Y01306156D01*
X02641179Y01297266D02*
Y01306156D01*
X02641929Y01297136D02*
Y01306156D01*
X02642669Y01296996D02*
Y01306156D01*
X02638189Y01297796D02*
Y01306156D01*
X02638939Y01297666D02*
Y01306156D01*
X02633319Y01298666D02*
Y01306156D01*
X02633709Y01298596D02*
Y01306156D01*
X02634459Y01298466D02*
Y01306156D01*
X02635209Y01298326D02*
Y01306156D01*
X02635949Y01298196D02*
Y01306156D01*
X02636699Y01298067D02*
Y01306156D01*
X02637449Y01297926D02*
Y01306156D01*
X02639689Y01297536D02*
Y01306156D01*
X02645509Y01276196D02*
Y01280756D01*
X02644769Y01276316D02*
Y01280926D01*
X02644909Y01296606D02*
Y01300126D01*
X02633169Y01257056D02*
X02657389Y01262386D01*
X02633309Y01283476D02*
X02657459Y01278086D01*
X02643699Y01300366D02*
X02657539Y01297586D01*
G54D38*
X02675816Y01341603D02*
Y01350331D01*
X02682164Y0134557*
Y01347951*
X02682957Y01349538*
X02683751Y01350331*
X02686131Y01351125*
X02687718*
X02690098Y01350331*
X02691685Y01348744*
X02692479Y01346364*
Y01343984*
X02691685Y01341603*
X02690892Y0134081*
X02689305Y01340016*
X02675816Y01362789D02*
X02686925Y01354854D01*
Y01366757*
X02675816Y01362789D02*
X02692479D01*
X02675816Y01374453D02*
X02676609Y01372073D01*
X0267899Y01370486*
X02682957Y01369692*
X02685338*
X02689305Y01370486*
X02691685Y01372073*
X02692479Y01374453*
Y0137604*
X02691685Y01378421*
X02689305Y01380008*
X02685338Y01380801*
X02682957*
X0267899Y01380008*
X02676609Y01378421*
X02675816Y0137604*
Y01374453*
Y01389291D02*
X02676609Y01386911D01*
X0267899Y01385324*
X02682957Y01384531*
X02685338*
X02689305Y01385324*
X02691685Y01386911*
X02692479Y01389291*
Y01390878*
X02691685Y01393259*
X02689305Y01394846*
X02685338Y01395639*
X02682957*
X0267899Y01394846*
X02676609Y01393259*
X02675816Y01390878*
Y01389291*
X0267899Y01399369D02*
X02678196Y01400956D01*
X02675816Y01403336*
X02692479*
X02678196Y0142111D02*
X02676609Y01420317D01*
X02675816Y01417936*
Y01416349*
X02676609Y01413969*
X0267899Y01412382*
X02682957Y01411588*
X02686925*
X02690098Y01412382*
X02691685Y01413969*
X02692479Y01416349*
Y01417143*
X02691685Y01419523*
X02690098Y0142111*
X02687718Y01421903*
X02686925*
X02684544Y0142111*
X02682957Y01419523*
X02682164Y01417143*
Y01416349*
X02682957Y01413969*
X02684544Y01412382*
X02686925Y01411588*
X02675816Y01433488D02*
X02686925Y01425554D01*
Y01437456*
X02675816Y01433488D02*
X02692479D01*
X02675816Y01444359D02*
X02676609Y01441979D01*
X02678196Y01441185*
X02679783*
X0268137Y01441979*
X02682164Y01443566*
X02682957Y0144674*
X02683751Y0144912*
X02685338Y01450707*
X02686925Y014515*
X02689305*
X02690892Y01450707*
X02691685Y01449913*
X02692479Y01447533*
Y01444359*
X02691685Y01441979*
X02690892Y01441185*
X02689305Y01440392*
X02686925*
X02685338Y01441185*
X02683751Y01442772*
X02682957Y01445153*
X02682164Y01448326*
X0268137Y01449913*
X02679783Y01450707*
X02678196*
X02676609Y01449913*
X02675816Y01447533*
Y01444359*
X02692479Y01252712D02*
X02675816Y01246364D01*
X02692479Y01240016*
X02686925Y01242397D02*
Y01250331D01*
X0268137Y012566D02*
X02692479D01*
X02686131D02*
X02683751Y01257393D01*
X02682164Y0125898*
X0268137Y01260567*
Y01262948*
X02675816Y01266836D02*
X02689305D01*
X02691685Y01267629*
X02692479Y01269216*
Y01270803*
X0268137Y01264455D02*
Y0127001D01*
X02690892Y01273977D02*
X02691685Y01273184D01*
X02692479Y01273977*
X02691685Y01274771*
X02690892Y01273977*
X02675816Y01291513D02*
X02692479D01*
X02675816D02*
X02692479Y01302622D01*
X02675816D02*
X02692479D01*
X0268137Y01307224D02*
X02692479D01*
X02686131D02*
X02683751Y01308017D01*
X02682164Y01309605*
X0268137Y01311191*
Y01313572*
X02690892Y01315873D02*
X02691685Y0131508D01*
X02692479Y01315873*
X02691685Y01316666*
X02690892Y01315873*
X02675816Y01505016D02*
X02692479D01*
X02675816D02*
Y01512157D01*
X02676609Y01514538*
X02677403Y01515331*
X0267899Y01516126*
X02680577*
X02682164Y01515331*
X02682957Y01514538*
X02683751Y01512157*
Y01505016*
Y0151057D02*
X02692479Y01516126D01*
X02686131Y01519854D02*
Y01529376D01*
X02684544*
X02682957Y01528583*
X02682164Y01527789*
X0268137Y01526202*
Y01523822*
X02682164Y01522235*
X02683751Y01520648*
X02686131Y01519854*
X02687718*
X02690098Y01520648*
X02691685Y01522235*
X02692479Y01523822*
Y01526202*
X02691685Y01527789*
X02690098Y01529376*
X0268137Y01532947D02*
X02692479Y01537708D01*
X0268137Y01542468D02*
X02692479Y01537708D01*
X02690892Y0154596D02*
X02691685Y01545166D01*
X02692479Y0154596*
X02691685Y01546753*
X02690892Y0154596*
X02692479Y01576191D02*
X02675816Y01569844D01*
X02692479Y01563497*
X02686925Y01565876D02*
Y01573811D01*
X01815865Y00056726D02*
X01808307Y00040854D01*
X01805284Y00056726D02*
X01815865D01*
X01819417Y00048412D02*
X01826219D01*
X01828487Y00049168*
X01829242Y00049924*
X01829998Y00051436*
Y00053703*
X01829242Y00055215*
X01828487Y0005597*
X01826219Y00056726*
X01819417*
Y00040854*
X01838085Y00056726D02*
X01835818Y0005597D01*
X01834306Y00053703*
X0183355Y00049924*
Y00047657*
X01834306Y00043878*
X01835818Y0004161*
X01838085Y00040854*
X01839597*
X01841864Y0004161*
X01843376Y00043878*
X01844132Y00047657*
Y00049924*
X01843376Y00053703*
X01841864Y0005597*
X01839597Y00056726*
X01838085*
X01852219D02*
X01849951Y0005597D01*
X0184844Y00053703*
X01847684Y00049924*
Y00047657*
X0184844Y00043878*
X01849951Y0004161*
X01852219Y00040854*
X0185373*
X01855997Y0004161*
X01857509Y00043878*
X01858265Y00047657*
Y00049924*
X01857509Y00053703*
X01855997Y0005597*
X0185373Y00056726*
X01852219*
X01870886D02*
X01863329D01*
X01862573Y00049924*
X01863329Y0005068*
X01865596Y00051436*
X01867863*
X01870131Y0005068*
X01871642Y00049168*
X01872398Y00046901*
Y00045389*
X01871642Y00043122*
X01870131Y0004161*
X01867863Y00040854*
X01865596*
X01863329Y0004161*
X01862573Y00042366*
X01861817Y00043878*
X01880485Y00056726D02*
X01878218Y0005597D01*
X01876706Y00053703*
X0187595Y00049924*
Y00047657*
X01876706Y00043878*
X01878218Y0004161*
X01880485Y00040854*
X01881997*
X01884264Y0004161*
X01885776Y00043878*
X01886531Y00047657*
Y00049924*
X01885776Y00053703*
X01884264Y0005597*
X01881997Y00056726*
X01880485*
X01890084Y00053703D02*
X01891595Y00054459D01*
X01893863Y00056726*
Y00040854*
X01913815D02*
X01907769Y00056726D01*
X01901723Y00040854*
X0190399Y00046145D02*
X01911548D01*
X0196104Y00052947D02*
Y00053703D01*
X01961796Y00055215*
X01962551Y0005597*
X01964063Y00056726*
X01967086*
X01968598Y0005597*
X01969353Y00055215*
X01970109Y00053703*
Y00052191*
X01969353Y0005068*
X01967842Y00048412*
X01960284Y00040854*
X01970865*
X01975173Y00052947D02*
Y00053703D01*
X01975929Y00055215*
X01976685Y0005597*
X01978196Y00056726*
X01981219*
X01982731Y0005597*
X01983487Y00055215*
X01984242Y00053703*
Y00052191*
X01983487Y0005068*
X01981975Y00048412*
X01974417Y00040854*
X01984998*
X01989306Y00052947D02*
Y00053703D01*
X01990062Y00055215*
X01990818Y0005597*
X01992329Y00056726*
X01995353*
X01996864Y0005597*
X0199762Y00055215*
X01998376Y00053703*
Y00052191*
X0199762Y0005068*
X01996108Y00048412*
X0198855Y00040854*
X01999132*
X0200344Y00052947D02*
Y00053703D01*
X02004195Y00055215*
X02004951Y0005597*
X02006463Y00056726*
X02009486*
X02010997Y0005597*
X02011753Y00055215*
X02012509Y00053703*
Y00052191*
X02011753Y0005068*
X02010242Y00048412*
X02002684Y00040854*
X02013265*
X01610658Y0005661D02*
X01618972D01*
X01614437Y00050564*
X01616704*
X01618216Y00049808*
X01618972Y00049053*
X01619727Y00046785*
Y00045274*
X01618972Y00043006*
X0161746Y00041495*
X01615193Y00040739*
X01612925*
X01610658Y00041495*
X01609902Y0004225*
X01609146Y00043762*
X01627814Y0005661D02*
X01625547Y00055855D01*
X01624035Y00053587*
X01623279Y00049808*
Y00047541*
X01624035Y00043762*
X01625547Y00041495*
X01627814Y00040739*
X01629326*
X01631593Y00041495*
X01633105Y00043762*
X01633861Y00047541*
Y00049808*
X01633105Y00053587*
X01631593Y00055855*
X01629326Y0005661*
X01627814*
X01641948D02*
X0163968Y00055855D01*
X01638169Y00053587*
X01637413Y00049808*
Y00047541*
X01638169Y00043762*
X0163968Y00041495*
X01641948Y00040739*
X01643459*
X01645727Y00041495*
X01647238Y00043762*
X01647994Y00047541*
Y00049808*
X01647238Y00053587*
X01645727Y00055855*
X01643459Y0005661*
X01641948*
X01656081D02*
X01653814Y00055855D01*
X01652302Y00053587*
X01651546Y00049808*
Y00047541*
X01652302Y00043762*
X01653814Y00041495*
X01656081Y00040739*
X01657592*
X0165986Y00041495*
X01661371Y00043762*
X01662127Y00047541*
Y00049808*
X01661371Y00053587*
X0165986Y00055855*
X01657592Y0005661*
X01656081*
X01665679Y00053587D02*
X01667191Y00054343D01*
X01669458Y0005661*
Y00040739*
X01684876Y0005661D02*
X01677318Y00046029D01*
X01688655*
X01684876Y0005661D02*
Y00040739D01*
X01701277Y0005132D02*
X01700521Y00049053D01*
X0169901Y00047541*
X01696742Y00046785*
X01695987*
X01693719Y00047541*
X01692208Y00049053*
X01691452Y0005132*
Y00052076*
X01692208Y00054343*
X01693719Y00055855*
X01695987Y0005661*
X01696742*
X0169901Y00055855*
X01700521Y00054343*
X01701277Y0005132*
Y00047541*
X01700521Y00043762*
X0169901Y00041495*
X01696742Y00040739*
X01695231*
X01692963Y00041495*
X01692208Y00043006*
X01728637Y00054343D02*
X01727125Y00055855D01*
X01724858Y0005661*
X01721835*
X01719567Y00055855*
X01718056Y00054343*
Y00052832*
X01718811Y0005132*
X01719567Y00050564*
X01721079Y00049808*
X01725613Y00048297*
X01727125Y00047541*
X01727881Y00046785*
X01728637Y00045274*
Y00043006*
X01727125Y00041495*
X01724858Y00040739*
X01721835*
X01719567Y00041495*
X01718056Y00043006*
X01732189Y00046785D02*
X01741258D01*
Y00048297*
X01740503Y00049808*
X01739747Y00050564*
X01738235Y0005132*
X01735968*
X01734456Y00050564*
X01732945Y00049053*
X01732189Y00046785*
Y00045274*
X01732945Y00043006*
X01734456Y00041495*
X01735968Y00040739*
X01738235*
X01739747Y00041495*
X01741258Y00043006*
X01753729Y0005132D02*
Y00039227D01*
X01752973Y0003696*
X01752217Y00036204*
X01750706Y00035448*
X01748438*
X01746927Y00036204*
X01753729Y00049053D02*
X01752217Y00050564D01*
X01750706Y0005132*
X01748438*
X01746927Y00050564*
X01745415Y00049053*
X01744659Y00046785*
Y00045274*
X01745415Y00043006*
X01746927Y00041495*
X01748438Y00040739*
X01750706*
X01752217Y00041495*
X01753729Y00043006*
X01758717Y00052832D02*
Y00053587D01*
X01759473Y00055099*
X01760229Y00055855*
X0176174Y0005661*
X01764763*
X01766275Y00055855*
X01767031Y00055099*
X01767787Y00053587*
Y00052076*
X01767031Y00050564*
X01765519Y00048297*
X01757961Y00040739*
X01768542*
X02065969Y00040859D02*
X02059923Y0005673D01*
X02053876Y00040859*
X02056144Y00046149D02*
X02063702D01*
X02069672Y0005673D02*
Y00040859D01*
Y0005673D02*
X02074963D01*
X0207723Y00055975*
X02078742Y00054463*
X02079498Y00052951*
X02080253Y00050684*
Y00046905*
X02079498Y00044638*
X02078742Y00043126*
X0207723Y00041615*
X02074963Y00040859*
X02069672*
X02083805Y0005673D02*
X02089852Y00040859D01*
X02095898Y0005673D02*
X02089852Y00040859D01*
G54D39*
X02599999Y01409799D03*
Y01397099D03*
Y01384399D03*
Y01422499D03*
G54D40*
X00444999Y00049999D03*
X02294999D03*
X02795Y0185D03*
X02044999D03*
X00945D03*
M02*