%FSTAX44Y44*%
%MOMM*%
%SFA1B1*%

%IPPOS*%
%AMD17*
4,1,8,0.299720,0.551180,-0.299720,0.551180,-0.500380,0.350520,-0.500380,-0.350520,-0.299720,-0.551180,0.299720,-0.551180,0.500380,-0.350520,0.500380,0.350520,0.299720,0.551180,0.0*
1,1,0.403200,0.299720,0.350520*
1,1,0.403200,-0.299720,0.350520*
1,1,0.403200,-0.299720,-0.350520*
1,1,0.403200,0.299720,-0.350520*
%
%AMD18*
4,1,8,-1.000760,0.459740,-1.000760,-0.459740,-0.784860,-0.675640,0.784860,-0.675640,1.000760,-0.459740,1.000760,0.459740,0.784860,0.675640,-0.784860,0.675640,-1.000760,0.459740,0.0*
1,1,0.430000,-0.784860,0.459740*
1,1,0.430000,-0.784860,-0.459740*
1,1,0.430000,0.784860,-0.459740*
1,1,0.430000,0.784860,0.459740*
%
%AMD19*
4,1,8,-0.459740,-1.000760,0.459740,-1.000760,0.675640,-0.784860,0.675640,0.784860,0.459740,1.000760,-0.459740,1.000760,-0.675640,0.784860,-0.675640,-0.784860,-0.459740,-1.000760,0.0*
1,1,0.430000,-0.459740,-0.784860*
1,1,0.430000,0.459740,-0.784860*
1,1,0.430000,0.459740,0.784860*
1,1,0.430000,-0.459740,0.784860*
%
%AMD20*
4,1,8,-0.551180,0.299720,-0.551180,-0.299720,-0.350520,-0.500380,0.350520,-0.500380,0.551180,-0.299720,0.551180,0.299720,0.350520,0.500380,-0.350520,0.500380,-0.551180,0.299720,0.0*
1,1,0.403200,-0.350520,0.299720*
1,1,0.403200,-0.350520,-0.299720*
1,1,0.403200,0.350520,-0.299720*
1,1,0.403200,0.350520,0.299720*
%
G04~CAMADD=17~8~0.0~0.0~395.0~434.3~79.4~0.0~15~0.0~0.0~0.0~0.0~0~0.0~0.0~0.0~0.0~0~0.0~0.0~0.0~0.0~395.0~434.3*
%ADD17D17*%
G04~CAMADD=18~8~0.0~0.0~531.5~787.4~84.6~0.0~15~0.0~0.0~0.0~0.0~0~0.0~0.0~0.0~0.0~0~0.0~0.0~0.0~90.0~788.0~532.0*
%ADD18D18*%
G04~CAMADD=19~8~0.0~0.0~531.5~787.4~84.6~0.0~15~0.0~0.0~0.0~0.0~0~0.0~0.0~0.0~0.0~0~0.0~0.0~0.0~180.0~532.0~788.0*
%ADD19D19*%
G04~CAMADD=20~8~0.0~0.0~395.0~434.3~79.4~0.0~15~0.0~0.0~0.0~0.0~0~0.0~0.0~0.0~0.0~0~0.0~0.0~0.0~90.0~434.0~394.0*
%ADD20D20*%
%ADD21C,4.099992*%
%ADD22O,3.153194X1.113198*%
%ADD23C,4.703191*%
%ADD24C,1.403197*%
%LNled_pd_ab_wh_3000149_(4f00227l_7p00500a)-1*%
%LPD*%
G36*
X00729967Y01641491D02*
X00703967D01*
Y01657491*
X00729967*
Y01641491*
G37*
G36*
X00650477D02*
X00624477D01*
Y01657491*
X00650477*
Y01641491*
G37*
G36*
X03252589Y01631487D02*
X03226589D01*
Y01647487*
X03252589*
Y01631487*
G37*
G36*
X03152589D02*
X03126589D01*
Y01647487*
X03152589*
Y01631487*
G37*
G36*
X0305259D02*
X0302659D01*
Y01647487*
X0305259*
Y01631487*
G37*
G36*
X0295259D02*
X0292659D01*
Y01647487*
X0295259*
Y01631487*
G37*
G36*
X01877591Y01626491D02*
X01851591D01*
Y01642491*
X01877591*
Y01626491*
G37*
G36*
X01777591D02*
X01751591D01*
Y01642491*
X01777591*
Y01626491*
G37*
G36*
X01677591D02*
X01651591D01*
Y01642491*
X01677591*
Y01626491*
G37*
G36*
X01977591Y01621491D02*
X01951591D01*
Y01637491*
X01977591*
Y01621491*
G37*
G36*
X03352591Y01621487D02*
X03326591D01*
Y01637487*
X03352591*
Y01621487*
G37*
G36*
X00729967Y01612491D02*
X00703967D01*
Y01628491*
X00729967*
Y01612491*
G37*
G36*
X00650477D02*
X00624477D01*
Y01628491*
X00650477*
Y01612491*
G37*
G36*
X02077591Y01611491D02*
X02051591D01*
Y01627491*
X02077591*
Y01611491*
G37*
G36*
X04057091Y01606991D02*
X04041091D01*
Y01632991*
X04057091*
Y01606991*
G37*
G36*
X04028091D02*
X04012091D01*
Y01632991*
X04028091*
Y01606991*
G37*
G36*
X01587091D02*
X01571091D01*
Y01632991*
X01587091*
Y01606991*
G37*
G36*
X01558091D02*
X01542091D01*
Y01632991*
X01558091*
Y01606991*
G37*
G36*
X02862091Y01606985D02*
X02846091D01*
Y01632985*
X02862091*
Y01606985*
G37*
G36*
X02833091D02*
X02817091D01*
Y01632985*
X02833091*
Y01606985*
G37*
G36*
X03252589Y01602487D02*
X03226589D01*
Y01618488*
X03252589*
Y01602487*
G37*
G36*
X03152589D02*
X03126589D01*
Y01618488*
X03152589*
Y01602487*
G37*
G36*
X0305259D02*
X0302659D01*
Y01618488*
X0305259*
Y01602487*
G37*
G36*
X0295259D02*
X0292659D01*
Y01618488*
X0295259*
Y01602487*
G37*
G36*
X01877591Y01597491D02*
X01851591D01*
Y01613491*
X01877591*
Y01597491*
G37*
G36*
X01777591D02*
X01751591D01*
Y01613491*
X01777591*
Y01597491*
G37*
G36*
X01677591D02*
X01651591D01*
Y01613491*
X01677591*
Y01597491*
G37*
G36*
X01977591Y01592491D02*
X01951591D01*
Y01608491*
X01977591*
Y01592491*
G37*
G36*
X03352591Y01592487D02*
X03326591D01*
Y01608487*
X03352591*
Y01592487*
G37*
G36*
X02077591Y01582491D02*
X02051591D01*
Y01598491*
X02077591*
Y01582491*
G37*
G36*
X02172591Y01581491D02*
X02146591D01*
Y01597491*
X02172591*
Y01581491*
G37*
G36*
X03457089Y01571987D02*
X03441089D01*
Y01597987*
X03457089*
Y01571987*
G37*
G36*
X03428089D02*
X03412089D01*
Y01597987*
X03428089*
Y01571987*
G37*
G36*
X02172591Y01552491D02*
X02146591D01*
Y01568491*
X02172591*
Y01552491*
G37*
G36*
X02252591Y01521491D02*
X02226591D01*
Y01537491*
X02252591*
Y01521491*
G37*
G36*
X00775408Y01511991D02*
X00759408D01*
Y01537991*
X00775408*
Y01511991*
G37*
G36*
X00746408D02*
X00730408D01*
Y01537991*
X00746408*
Y01511991*
G37*
G36*
X00626942D02*
X00610942D01*
Y01537991*
X00626942*
Y01511991*
G37*
G36*
X00597942D02*
X00581942D01*
Y01537991*
X00597942*
Y01511991*
G37*
G36*
X01586612Y0150703D02*
X01570611D01*
Y0153303*
X01586612*
Y0150703*
G37*
G36*
X01557611D02*
X01541612D01*
Y0153303*
X01557611*
Y0150703*
G37*
G36*
X04057091Y01506991D02*
X04041091D01*
Y01532991*
X04057091*
Y01506991*
G37*
G36*
X04028091D02*
X04012091D01*
Y01532991*
X04028091*
Y01506991*
G37*
G36*
X02862091Y01506986D02*
X02846091D01*
Y01532986*
X02862091*
Y01506986*
G37*
G36*
X02833091D02*
X02817091D01*
Y01532986*
X02833091*
Y01506986*
G37*
G36*
X03527089Y01501987D02*
X03511089D01*
Y01527987*
X03527089*
Y01501987*
G37*
G36*
X03498089D02*
X03482089D01*
Y01527987*
X03498089*
Y01501987*
G37*
G36*
X02252591Y01492491D02*
X02226591D01*
Y01508491*
X02252591*
Y01492491*
G37*
G36*
X02322591Y01451491D02*
X02296591D01*
Y01467491*
X02322591*
Y01451491*
G37*
G36*
Y01422491D02*
X02296591D01*
Y01438491*
X02322591*
Y01422491*
G37*
G36*
X03577089Y01416986D02*
X03561088D01*
Y01442986*
X03577089*
Y01416986*
G37*
G36*
X03548089D02*
X03532089D01*
Y01442986*
X03548089*
Y01416986*
G37*
G36*
X00809713Y01406993D02*
X00793713D01*
Y01432993*
X00809713*
Y01406993*
G37*
G36*
X00780713D02*
X00764713D01*
Y01432993*
X00780713*
Y01406993*
G37*
G36*
X00595408D02*
X00579408D01*
Y01432993*
X00595408*
Y01406993*
G37*
G36*
X00566408D02*
X00550408D01*
Y01432993*
X00566408*
Y01406993*
G37*
G36*
X04057091Y01406991D02*
X04041091D01*
Y01432991*
X04057091*
Y01406991*
G37*
G36*
X04028091D02*
X04012091D01*
Y01432991*
X04028091*
Y01406991*
G37*
G36*
X01587091D02*
X01571091D01*
Y01432991*
X01587091*
Y01406991*
G37*
G36*
X01558091D02*
X01542091D01*
Y01432991*
X01558091*
Y01406991*
G37*
G36*
X02862091Y01406986D02*
X02846091D01*
Y01432987*
X02862091*
Y01406986*
G37*
G36*
X02833091D02*
X02817091D01*
Y01432987*
X02833091*
Y01406986*
G37*
G36*
X02372591Y01366491D02*
X02346591D01*
Y01382491*
X02372591*
Y01366491*
G37*
G36*
Y01337491D02*
X02346591D01*
Y01353491*
X02372591*
Y01337491*
G37*
G36*
X0359209Y01316987D02*
X0357609D01*
Y01342987*
X0359209*
Y01316987*
G37*
G36*
X0356309D02*
X0354709D01*
Y01342987*
X0356309*
Y01316987*
G37*
G36*
X00844021Y01301991D02*
X00828021D01*
Y01327992*
X00844021*
Y01301991*
G37*
G36*
X00815021D02*
X00799021D01*
Y01327992*
X00815021*
Y01301991*
G37*
G36*
X04057091D02*
X04041091D01*
Y01327991*
X04057091*
Y01301991*
G37*
G36*
X04028091D02*
X04012091D01*
Y01327991*
X04028091*
Y01301991*
G37*
G36*
X01587091D02*
X01571091D01*
Y01327991*
X01587091*
Y01301991*
G37*
G36*
X01558091D02*
X01542091D01*
Y01327991*
X01558091*
Y01301991*
G37*
G36*
X02862091Y01301986D02*
X02846091D01*
Y01327986*
X02862091*
Y01301986*
G37*
G36*
X02833091D02*
X02817091D01*
Y01327986*
X02833091*
Y01301986*
G37*
G36*
X00563749Y01301869D02*
X00547749D01*
Y01327869*
X00563749*
Y01301869*
G37*
G36*
X00534749D02*
X00518749D01*
Y01327869*
X00534749*
Y01301869*
G37*
G36*
X02422091Y01256991D02*
X02406091D01*
Y01282991*
X02422091*
Y01256991*
G37*
G36*
X02393091D02*
X02377091D01*
Y01282991*
X02393091*
Y01256991*
G37*
G36*
X0358209Y01216987D02*
X0356609D01*
Y01242987*
X0358209*
Y01216987*
G37*
G36*
X0355309D02*
X0353709D01*
Y01242987*
X0355309*
Y01216987*
G37*
G36*
X04057091Y01196991D02*
X04041091D01*
Y01222991*
X04057091*
Y01196991*
G37*
G36*
X04028091D02*
X04012091D01*
Y01222991*
X04028091*
Y01196991*
G37*
G36*
X01587091D02*
X01571091D01*
Y01222991*
X01587091*
Y01196991*
G37*
G36*
X01558091D02*
X01542091D01*
Y01222991*
X01558091*
Y01196991*
G37*
G36*
X00878328Y0119699D02*
X00862328D01*
Y0122299*
X00878328*
Y0119699*
G37*
G36*
X00849329D02*
X00833328D01*
Y0122299*
X00849329*
Y0119699*
G37*
G36*
X00532337D02*
X00516337D01*
Y0122299*
X00532337*
Y0119699*
G37*
G36*
X00503337D02*
X00487337D01*
Y0122299*
X00503337*
Y0119699*
G37*
G36*
X02862091Y01196988D02*
X02846091D01*
Y01222988*
X02862091*
Y01196988*
G37*
G36*
X02833091D02*
X02817091D01*
Y01222988*
X02833091*
Y01196988*
G37*
G36*
X02442091Y01156991D02*
X02426091D01*
Y01182991*
X02442091*
Y01156991*
G37*
G36*
X02413091D02*
X02397091D01*
Y01182991*
X02413091*
Y01156991*
G37*
G36*
X03537089Y01126988D02*
X03521089D01*
Y01152988*
X03537089*
Y01126988*
G37*
G36*
X03508089D02*
X03492089D01*
Y01152988*
X03508089*
Y01126988*
G37*
G36*
X00912636Y01091992D02*
X00896636D01*
Y01117992*
X00912636*
Y01091992*
G37*
G36*
X00883636D02*
X00867636D01*
Y01117992*
X00883636*
Y01091992*
G37*
G36*
X00500803D02*
X00484803D01*
Y01117992*
X00500803*
Y01091992*
G37*
G36*
X00471803D02*
X00455803D01*
Y01117992*
X00471803*
Y01091992*
G37*
G36*
X04057091Y01091991D02*
X04041091D01*
Y01117991*
X04057091*
Y01091991*
G37*
G36*
X04028091D02*
X04012091D01*
Y01117991*
X04028091*
Y01091991*
G37*
G36*
X01587091D02*
X01571091D01*
Y01117991*
X01587091*
Y01091991*
G37*
G36*
X01558091D02*
X01542091D01*
Y01117991*
X01558091*
Y01091991*
G37*
G36*
X02862091Y01091987D02*
X02846091D01*
Y01117987*
X02862091*
Y01091987*
G37*
G36*
X02833091D02*
X02817091D01*
Y01117987*
X02833091*
Y01091987*
G37*
G36*
X02457091Y01056991D02*
X02441091D01*
Y01082991*
X02457091*
Y01056991*
G37*
G36*
X02428091D02*
X02412091D01*
Y01082991*
X02428091*
Y01056991*
G37*
G36*
X03467089Y01056988D02*
X03451089D01*
Y01082988*
X03467089*
Y01056988*
G37*
G36*
X03438089D02*
X03422089D01*
Y01082988*
X03438089*
Y01056988*
G37*
G36*
X03272591Y01006489D02*
X03246591D01*
Y01022489*
X03272591*
Y01006489*
G37*
G36*
X03167591D02*
X0314159D01*
Y01022489*
X03167591*
Y01006489*
G37*
G36*
X0306259D02*
X0303659D01*
Y01022489*
X0306259*
Y01006489*
G37*
G36*
X02957591D02*
X02931592D01*
Y01022489*
X02957591*
Y01006489*
G37*
G36*
X04057091Y00986991D02*
X04041091D01*
Y01012991*
X04057091*
Y00986991*
G37*
G36*
X04028091D02*
X04012091D01*
Y01012991*
X04028091*
Y00986991*
G37*
G36*
X01587091D02*
X01571091D01*
Y01012991*
X01587091*
Y00986991*
G37*
G36*
X01558091D02*
X01542091D01*
Y01012991*
X01558091*
Y00986991*
G37*
G36*
X00946942D02*
X00930942D01*
Y01012991*
X00946942*
Y00986991*
G37*
G36*
X00917942D02*
X00901942D01*
Y01012991*
X00917942*
Y00986991*
G37*
G36*
X0338709Y00986989D02*
X03371089D01*
Y01012989*
X0338709*
Y00986989*
G37*
G36*
X0335809D02*
X03342089D01*
Y01012989*
X0335809*
Y00986989*
G37*
G36*
X02862091D02*
X02846091D01*
Y01012989*
X02862091*
Y00986989*
G37*
G36*
X02833091D02*
X02817091D01*
Y01012989*
X02833091*
Y00986989*
G37*
G36*
X00469249Y00986971D02*
X00453249D01*
Y01012971*
X00469249*
Y00986971*
G37*
G36*
X00440249D02*
X00424249D01*
Y01012971*
X00440249*
Y00986971*
G37*
G36*
X03272591Y00977489D02*
X03246591D01*
Y00993489*
X03272591*
Y00977489*
G37*
G36*
X03167591D02*
X0314159D01*
Y00993489*
X03167591*
Y00977489*
G37*
G36*
X0306259D02*
X0303659D01*
Y00993489*
X0306259*
Y00977489*
G37*
G36*
X02957591D02*
X02931592D01*
Y00993489*
X02957591*
Y00977489*
G37*
G36*
X02462091Y00951992D02*
X02446091D01*
Y00977991*
X02462091*
Y00951992*
G37*
G36*
X02433091D02*
X02417091D01*
Y00977991*
X02433091*
Y00951992*
G37*
G36*
X03457089Y00931988D02*
X03441089D01*
Y00957988*
X03457089*
Y00931988*
G37*
G36*
X03428089D02*
X03412089D01*
Y00957988*
X03428089*
Y00931988*
G37*
G36*
X00437749Y00882006D02*
X00421749D01*
Y00908006*
X00437749*
Y00882006*
G37*
G36*
X00408749D02*
X00392749D01*
Y00908006*
X00408749*
Y00882006*
G37*
G36*
X00981249Y00881992D02*
X00965249D01*
Y00907992*
X00981249*
Y00881992*
G37*
G36*
X00952249D02*
X00936249D01*
Y00907992*
X00952249*
Y00881992*
G37*
G36*
X04057091Y00881991D02*
X04041091D01*
Y00907991*
X04057091*
Y00881991*
G37*
G36*
X04028091D02*
X04012091D01*
Y00907991*
X04028091*
Y00881991*
G37*
G36*
X01587091D02*
X01571091D01*
Y00907991*
X01587091*
Y00881991*
G37*
G36*
X01558091D02*
X01542091D01*
Y00907991*
X01558091*
Y00881991*
G37*
G36*
X02862091Y00881988D02*
X02846091D01*
Y00907988*
X02862091*
Y00881988*
G37*
G36*
X02833091D02*
X02817091D01*
Y00907988*
X02833091*
Y00881988*
G37*
G36*
X03537089Y00876987D02*
X03521089D01*
Y00902987*
X03537089*
Y00876987*
G37*
G36*
X03508089D02*
X03492089D01*
Y00902987*
X03508089*
Y00876987*
G37*
G36*
X02457091Y00846991D02*
X02441091D01*
Y00872991*
X02457091*
Y00846991*
G37*
G36*
X02428091D02*
X02412091D01*
Y00872991*
X02428091*
Y00846991*
G37*
G36*
X03597091Y00796987D02*
X03581091D01*
Y00822987*
X03597091*
Y00796987*
G37*
G36*
X03568091D02*
X03552091D01*
Y00822987*
X03568091*
Y00796987*
G37*
G36*
X01015555Y00776991D02*
X00999555D01*
Y00802991*
X01015555*
Y00776991*
G37*
G36*
X00986555D02*
X00970555D01*
Y00802991*
X00986555*
Y00776991*
G37*
G36*
X00406496D02*
X00390496D01*
Y00802991*
X00406496*
Y00776991*
G37*
G36*
X00377496D02*
X00361496D01*
Y00802991*
X00377496*
Y00776991*
G37*
G36*
X04057091D02*
X04041091D01*
Y00802991*
X04057091*
Y00776991*
G37*
G36*
X04028091D02*
X04012091D01*
Y00802991*
X04028091*
Y00776991*
G37*
G36*
X01587091D02*
X01571091D01*
Y00802991*
X01587091*
Y00776991*
G37*
G36*
X01558091D02*
X01542091D01*
Y00802991*
X01558091*
Y00776991*
G37*
G36*
X02862091Y0077699D02*
X02846091D01*
Y0080299*
X02862091*
Y0077699*
G37*
G36*
X02833091D02*
X02817091D01*
Y0080299*
X02833091*
Y0077699*
G37*
G36*
X02442091Y00741991D02*
X02426091D01*
Y00767991*
X02442091*
Y00741991*
G37*
G36*
X02413091D02*
X02397091D01*
Y00767991*
X02413091*
Y00741991*
G37*
G36*
X00851996Y00736491D02*
X00825996D01*
Y00752491*
X00851996*
Y00736491*
G37*
G36*
X00751996D02*
X00725996D01*
Y00752491*
X00751996*
Y00736491*
G37*
G36*
X00651996D02*
X00625996D01*
Y00752491*
X00651996*
Y00736491*
G37*
G36*
X00551996D02*
X00525997D01*
Y00752491*
X00551996*
Y00736491*
G37*
G36*
X00961496Y00716991D02*
X00945496D01*
Y00742991*
X00961496*
Y00716991*
G37*
G36*
X00932496D02*
X00916496D01*
Y00742991*
X00932496*
Y00716991*
G37*
G36*
X00461499Y00716989D02*
X00445499D01*
Y00742989*
X00461499*
Y00716989*
G37*
G36*
X00432499D02*
X00416499D01*
Y00742989*
X00432499*
Y00716989*
G37*
G36*
X00851996Y00707491D02*
X00825996D01*
Y00723491*
X00851996*
Y00707491*
G37*
G36*
X00751996D02*
X00725996D01*
Y00723491*
X00751996*
Y00707491*
G37*
G36*
X00651996D02*
X00625996D01*
Y00723491*
X00651996*
Y00707491*
G37*
G36*
X00551996D02*
X00525997D01*
Y00723491*
X00551996*
Y00707491*
G37*
G36*
X03642089Y00706988D02*
X03626089D01*
Y00732988*
X03642089*
Y00706988*
G37*
G36*
X0361309D02*
X03597089D01*
Y00732988*
X0361309*
Y00706988*
G37*
G36*
X00374658Y00671999D02*
X00358658D01*
Y00697999*
X00374658*
Y00671999*
G37*
G36*
X00345658D02*
X00329658D01*
Y00697999*
X00345658*
Y00671999*
G37*
G36*
X04057091Y00671991D02*
X04041091D01*
Y00697992*
X04057091*
Y00671991*
G37*
G36*
X04028091D02*
X04012091D01*
Y00697992*
X04028091*
Y00671991*
G37*
G36*
X01587091D02*
X01571091D01*
Y00697992*
X01587091*
Y00671991*
G37*
G36*
X01558091D02*
X01542091D01*
Y00697992*
X01558091*
Y00671991*
G37*
G36*
X01049862Y0067199D02*
X01033862D01*
Y0069799*
X01049862*
Y0067199*
G37*
G36*
X01020862D02*
X01004862D01*
Y0069799*
X01020862*
Y0067199*
G37*
G36*
X02862091Y00671989D02*
X02846091D01*
Y00697989*
X02862091*
Y00671989*
G37*
G36*
X02833091D02*
X02817091D01*
Y00697989*
X02833091*
Y00671989*
G37*
G36*
X02422091Y00641991D02*
X02406091D01*
Y00667991*
X02422091*
Y00641991*
G37*
G36*
X02393091D02*
X02377091D01*
Y00667991*
X02393091*
Y00641991*
G37*
G36*
X03657092Y00606988D02*
X03641091D01*
Y00632988*
X03657092*
Y00606988*
G37*
G36*
X03628091D02*
X03612091D01*
Y00632988*
X03628091*
Y00606988*
G37*
G36*
X00343123Y00566999D02*
X00327123D01*
Y00592999*
X00343123*
Y00566999*
G37*
G36*
X00314123D02*
X00298123D01*
Y00592999*
X00314123*
Y00566999*
G37*
G36*
X0108417Y00566992D02*
X0106817D01*
Y00592992*
X0108417*
Y00566992*
G37*
G36*
X0105517D02*
X0103917D01*
Y00592992*
X0105517*
Y00566992*
G37*
G36*
X04057091Y00566991D02*
X04041091D01*
Y00592991*
X04057091*
Y00566991*
G37*
G36*
X04028091D02*
X04012091D01*
Y00592991*
X04028091*
Y00566991*
G37*
G36*
X01587091D02*
X01571091D01*
Y00592991*
X01587091*
Y00566991*
G37*
G36*
X01558091D02*
X01542091D01*
Y00592991*
X01558091*
Y00566991*
G37*
G36*
X02862091Y00566988D02*
X02846091D01*
Y00592988*
X02862091*
Y00566988*
G37*
G36*
X02833091D02*
X02817091D01*
Y00592988*
X02833091*
Y00566988*
G37*
G36*
X02377591Y00561491D02*
X02351591D01*
Y00577491*
X02377591*
Y00561491*
G37*
G36*
Y00532491D02*
X02351591D01*
Y00548491*
X02377591*
Y00532491*
G37*
G36*
X03642089Y00506989D02*
X03626089D01*
Y00532989*
X03642089*
Y00506989*
G37*
G36*
X0361309D02*
X03597089D01*
Y00532989*
X0361309*
Y00506989*
G37*
G36*
X02327591Y00471491D02*
X02301591D01*
Y00487491*
X02327591*
Y00471491*
G37*
G36*
X00311588Y00461999D02*
X00295588D01*
Y00487999*
X00311588*
Y00461999*
G37*
G36*
X00282588D02*
X00266588D01*
Y00487999*
X00282588*
Y00461999*
G37*
G36*
X04057091Y00461991D02*
X04041091D01*
Y00487991*
X04057091*
Y00461991*
G37*
G36*
X04028091D02*
X04012091D01*
Y00487991*
X04028091*
Y00461991*
G37*
G36*
X01587091D02*
X01571091D01*
Y00487991*
X01587091*
Y00461991*
G37*
G36*
X01558091D02*
X01542091D01*
Y00487991*
X01558091*
Y00461991*
G37*
G36*
X01118475D02*
X01102475D01*
Y00487991*
X01118475*
Y00461991*
G37*
G36*
X01089475D02*
X01073475D01*
Y00487991*
X01089475*
Y00461991*
G37*
G36*
X02862091Y0046199D02*
X02846091D01*
Y0048799*
X02862091*
Y0046199*
G37*
G36*
X02833091D02*
X02817091D01*
Y0048799*
X02833091*
Y0046199*
G37*
G36*
X02327591Y00442491D02*
X02301591D01*
Y00458491*
X02327591*
Y00442491*
G37*
G36*
X0360209Y00416989D02*
X0358609D01*
Y00442989*
X0360209*
Y00416989*
G37*
G36*
X0357309D02*
X0355709D01*
Y00442989*
X0357309*
Y00416989*
G37*
G36*
X02262591Y00391491D02*
X02236591D01*
Y00407491*
X02262591*
Y00391491*
G37*
G36*
Y00362491D02*
X02236591D01*
Y00378491*
X02262591*
Y00362491*
G37*
G36*
X00280053Y00356999D02*
X00264053D01*
Y00382999*
X00280053*
Y00356999*
G37*
G36*
X00251053D02*
X00235053D01*
Y00382999*
X00251053*
Y00356999*
G37*
G36*
X01152783Y00356992D02*
X01136783D01*
Y00382992*
X01152783*
Y00356992*
G37*
G36*
X01123783D02*
X01107783D01*
Y00382992*
X01123783*
Y00356992*
G37*
G36*
X04057091Y00356991D02*
X04041091D01*
Y00382991*
X04057091*
Y00356991*
G37*
G36*
X04028091D02*
X04012091D01*
Y00382991*
X04028091*
Y00356991*
G37*
G36*
X01587091D02*
X01571091D01*
Y00382991*
X01587091*
Y00356991*
G37*
G36*
X01558091D02*
X01542091D01*
Y00382991*
X01558091*
Y00356991*
G37*
G36*
X02862091Y00356989D02*
X02846091D01*
Y00382989*
X02862091*
Y00356989*
G37*
G36*
X02833091D02*
X02817091D01*
Y00382989*
X02833091*
Y00356989*
G37*
G36*
X0354209Y00336989D02*
X0352609D01*
Y00362989*
X0354209*
Y00336989*
G37*
G36*
X0351309D02*
X0349709D01*
Y00362989*
X0351309*
Y00336989*
G37*
G36*
X02182591Y00326491D02*
X02156591D01*
Y00342491*
X02182591*
Y00326491*
G37*
G36*
Y00297491D02*
X02156591D01*
Y00313491*
X02182591*
Y00297491*
G37*
G36*
X02087591Y00286491D02*
X02061591D01*
Y00302491*
X02087591*
Y00286491*
G37*
G36*
X03457089Y00281991D02*
X03441089D01*
Y00307991*
X03457089*
Y00281991*
G37*
G36*
X03428089D02*
X03412089D01*
Y00307991*
X03428089*
Y00281991*
G37*
G36*
X03352591Y0027649D02*
X03326591D01*
Y0029249*
X03352591*
Y0027649*
G37*
G36*
X04677591Y00271491D02*
X04651591D01*
Y00287491*
X04677591*
Y00271491*
G37*
G36*
X04572591D02*
X04546591D01*
Y00287491*
X04572591*
Y00271491*
G37*
G36*
X04467591D02*
X04441591D01*
Y00287491*
X04467591*
Y00271491*
G37*
G36*
X04362591D02*
X04336591D01*
Y00287491*
X04362591*
Y00271491*
G37*
G36*
X04257591D02*
X04231591D01*
Y00287491*
X04257591*
Y00271491*
G37*
G36*
X04152591D02*
X04126591D01*
Y00287491*
X04152591*
Y00271491*
G37*
G36*
X03252589D02*
X03226589D01*
Y00287491*
X03252589*
Y00271491*
G37*
G36*
X03152589D02*
X03126589D01*
Y00287491*
X03152589*
Y00271491*
G37*
G36*
X0305259D02*
X0302659D01*
Y00287491*
X0305259*
Y00271491*
G37*
G36*
X0295259D02*
X0292659D01*
Y00287491*
X0295259*
Y00271491*
G37*
G36*
X01982591D02*
X01956591D01*
Y00287491*
X01982591*
Y00271491*
G37*
G36*
X01677591D02*
X01651591D01*
Y00287491*
X01677591*
Y00271491*
G37*
G36*
X01877591Y00266491D02*
X01851591D01*
Y00282491*
X01877591*
Y00266491*
G37*
G36*
X01777591D02*
X01751591D01*
Y00282491*
X01777591*
Y00266491*
G37*
G36*
X02087591Y00257491D02*
X02061591D01*
Y00273491*
X02087591*
Y00257491*
G37*
G36*
X04057091Y00251991D02*
X04041091D01*
Y00277991*
X04057091*
Y00251991*
G37*
G36*
X04028091D02*
X04012091D01*
Y00277991*
X04028091*
Y00251991*
G37*
G36*
X02862091D02*
X02846091D01*
Y00277991*
X02862091*
Y00251991*
G37*
G36*
X02833091D02*
X02817091D01*
Y00277991*
X02833091*
Y00251991*
G37*
G36*
X01587091D02*
X01571091D01*
Y00277991*
X01587091*
Y00251991*
G37*
G36*
X01558091D02*
X01542091D01*
Y00277991*
X01558091*
Y00251991*
G37*
G36*
X01187091D02*
X01171091D01*
Y00277991*
X01187091*
Y00251991*
G37*
G36*
X01158091D02*
X01142091D01*
Y00277991*
X01158091*
Y00251991*
G37*
G36*
X00248525D02*
X00232525D01*
Y00277991*
X00248525*
Y00251991*
G37*
G36*
X00219525D02*
X00203525D01*
Y00277991*
X00219525*
Y00251991*
G37*
G36*
X03352591Y0024749D02*
X03326591D01*
Y0026349*
X03352591*
Y0024749*
G37*
G36*
X04677591Y00242491D02*
X04651591D01*
Y00258491*
X04677591*
Y00242491*
G37*
G36*
X04572591D02*
X04546591D01*
Y00258491*
X04572591*
Y00242491*
G37*
G36*
X04467591D02*
X04441591D01*
Y00258491*
X04467591*
Y00242491*
G37*
G36*
X04362591D02*
X04336591D01*
Y00258491*
X04362591*
Y00242491*
G37*
G36*
X04257591D02*
X04231591D01*
Y00258491*
X04257591*
Y00242491*
G37*
G36*
X04152591D02*
X04126591D01*
Y00258491*
X04152591*
Y00242491*
G37*
G36*
X03252589D02*
X03226589D01*
Y00258491*
X03252589*
Y00242491*
G37*
G36*
X03152589D02*
X03126589D01*
Y00258491*
X03152589*
Y00242491*
G37*
G36*
X0305259D02*
X0302659D01*
Y00258491*
X0305259*
Y00242491*
G37*
G36*
X0295259D02*
X0292659D01*
Y00258491*
X0295259*
Y00242491*
G37*
G36*
X01982591D02*
X01956591D01*
Y00258491*
X01982591*
Y00242491*
G37*
G36*
X01677591D02*
X01651591D01*
Y00258491*
X01677591*
Y00242491*
G37*
G36*
X01877591Y00237491D02*
X01851591D01*
Y00253492*
X01877591*
Y00237491*
G37*
G36*
X01777591D02*
X01751591D01*
Y00253492*
X01777591*
Y00237491*
G37*
G54D17*
X02870643Y00929172D03*
X02889643D03*
X02880143Y00949172D03*
X03092162Y00948738D03*
X03111162D03*
X03101662Y00968738D03*
X03196837Y00948738D03*
X03215837D03*
X03206337Y00968738D03*
X03298769Y00948738D03*
X03317769D03*
X03308269Y00968738D03*
X02870643Y00213741D03*
X02889643D03*
X02880143Y0023374D03*
X03518843Y00284991D03*
X03537843D03*
X03528343Y00304991D03*
X03384537Y0021874D03*
X03403537D03*
X03394037Y0023874D03*
X04602214Y00213741D03*
X04621214D03*
X04611714Y0023374D03*
X04495248Y00213749D03*
X04514248D03*
X04504748Y00233749D03*
X04392248Y00213741D03*
X04411248D03*
X04401748Y00233741D03*
X04287825Y00213741D03*
X04306825D03*
X04297325Y00233741D03*
X04180403Y00213741D03*
X04199403D03*
X04189903Y00233741D03*
X04065639Y00299019D03*
X04084639D03*
X04075139Y00319019D03*
X02870643Y01138706D03*
X02889643D03*
X02880143Y01158706D03*
X02870641Y0154964D03*
X02889641D03*
X02880141Y0156964D03*
X02870641Y01033479D03*
X02889641D03*
X02880141Y01053479D03*
X02932542Y00897473D03*
X02951542D03*
X02942042Y00917473D03*
X02980948Y00213741D03*
X02999948D03*
X02990448Y0023374D03*
X03079573Y00213741D03*
X03098573D03*
X03089073Y0023374D03*
X03180172Y00213741D03*
X03199172D03*
X03189672Y00233741D03*
X03280954Y00213741D03*
X03299954D03*
X03290454Y00233741D03*
X0365064Y00552621D03*
X0366964D03*
X0366014Y00572621D03*
X0360064Y01365141D03*
X0361964D03*
X0361014Y01385141D03*
X0359064Y01262684D03*
X0360964D03*
X03600141Y01282685D03*
X03545639Y0117385D03*
X03564639D03*
X03555139Y0119385D03*
X02870641Y01654917D03*
X02889641D03*
X02880141Y01674917D03*
X01668481Y01429991D03*
X01649481D03*
X01658981Y01409991D03*
X0161425Y01479749D03*
X0159525D03*
X0160475Y01459749D03*
X0159634Y0020944D03*
X0161534D03*
X0160584Y0022944D03*
X02005272Y00213741D03*
X02024273D03*
X02014773Y00233741D03*
X01900005Y00208741D03*
X01919005D03*
X01909505Y00228741D03*
X018007Y0020874D03*
X01819701D03*
X01810201Y00228741D03*
X01701197Y00213741D03*
X01720198D03*
X01710698Y00233741D03*
X02430643Y00688844D03*
X02449643D03*
X02440143Y00708844D03*
X01595641Y01654098D03*
X01614641D03*
X01605141Y01674098D03*
X00579688Y00797264D03*
X00598688D03*
X00589188Y00817264D03*
X00470049Y00667233D03*
X00489049D03*
X00479549Y00687233D03*
X02880141Y01369555D03*
X02889641Y01349555D03*
X02870641D03*
X02880141Y00843439D03*
X02889641Y00823439D03*
X02870641D03*
X02880141Y00527904D03*
X02889641Y00507904D03*
X02870641D03*
X03611242Y0035999D03*
X03620742Y0033999D03*
X03601742D03*
X03675141Y00672259D03*
X03684641Y00652259D03*
X03665641D03*
X03555141Y00945219D03*
X03564641Y00925219D03*
X03545641D03*
X03539134Y01079988D03*
X03548634Y01059988D03*
X03529633D03*
X03475138Y01640421D03*
X03484638Y01620421D03*
X03465638D03*
X02880141Y01469606D03*
X02889641Y01449606D03*
X02870641D03*
X02880141Y0063266D03*
X02889641Y0061266D03*
X02870641D03*
X03615143Y00864548D03*
X03624643Y00844548D03*
X03605643D03*
X03459313Y01009988D03*
X03468813Y00989988D03*
X03449813D03*
X0354514Y01569506D03*
X0355464Y01549506D03*
X0353564D03*
X02946402Y01227056D03*
X02955902Y01207056D03*
X02936902D03*
X02880141Y00738304D03*
X02889641Y00718304D03*
X02870641D03*
X02950843Y00407913D03*
X02960344Y00387913D03*
X02941343D03*
X03671441Y00439989D03*
X03680941Y00419989D03*
X03661941D03*
X03660142Y00773051D03*
X03669641Y00753051D03*
X03650641D03*
X03527127Y01009988D03*
X03536627Y00989988D03*
X03517627D03*
X03595138Y01486562D03*
X03604639Y01466561D03*
X03585639D03*
X04075139Y00423797D03*
X04084639Y00403797D03*
X04065639D03*
X04075142Y00738487D03*
X04084643Y00718487D03*
X04065643D03*
X04075139Y01052333D03*
X04084639Y01032333D03*
X04065639D03*
X04075141Y01367258D03*
X04084641Y01347258D03*
X04065641D03*
X04075142Y01674358D03*
X04084643Y01654358D03*
X04065643D03*
X04716777Y0023374D03*
X04726276Y00213741D03*
X04707277D03*
X04075139Y0063429D03*
X04084639Y0061429D03*
X04065639D03*
X04075139Y00948607D03*
X04084639Y00928607D03*
X04065639D03*
X04075139Y01261611D03*
X04084639Y01241611D03*
X04065639D03*
X04076811Y01573729D03*
X0408631Y01553729D03*
X0406731D03*
X04075139Y00528865D03*
X04084639Y00508865D03*
X04065639D03*
X04075139Y00843701D03*
X04084639Y00823701D03*
X04065639D03*
X04075139Y01157976D03*
X04084639Y01137976D03*
X04065639D03*
X04076811Y01472869D03*
X0408631Y01452869D03*
X0406731D03*
X01170833Y00406043D03*
X01161332Y00426043D03*
X01180332D03*
X01102222Y0061564D03*
X01092722Y0063564D03*
X01111722D03*
X00964991Y0103527D03*
X00955491Y0105527D03*
X00974491D03*
X00862073Y01352749D03*
X00852573Y01372749D03*
X00871573D03*
X00769204Y01644749D03*
X00778704Y01624749D03*
X00759704D03*
X00886127Y00817263D03*
X00895627Y00797263D03*
X00876627D03*
X00248537Y00511249D03*
X00239037Y00531249D03*
X00258037D03*
X00406201Y01038749D03*
X00396701Y01058749D03*
X00415701D03*
X00500701Y01352749D03*
X00491201Y01372749D03*
X00510201D03*
X00585998Y01644749D03*
X00595498Y01624749D03*
X00576498D03*
X01205142Y00298919D03*
X01195642Y00318919D03*
X01214642D03*
X01136524Y00511487D03*
X01127024Y00531487D03*
X01146024D03*
X00999299Y00931685D03*
X00989799Y00951685D03*
X01008799D03*
X00896381Y01247004D03*
X00886881Y01267004D03*
X00905881D03*
X00793458Y01581499D03*
X00802958Y01561499D03*
X00783958D03*
X00898445Y00657338D03*
X00888945Y00677338D03*
X00907945D03*
X00638996Y00847275D03*
X00648495Y00827275D03*
X00629495D03*
X00217003Y00406999D03*
X00207503Y00426999D03*
X00226503D03*
X00311608Y00719989D03*
X00302109Y00739989D03*
X00321109D03*
X00374701Y00933749D03*
X00365201Y00953749D03*
X00384201D03*
X00469048Y01247499D03*
X00459548Y01267499D03*
X00478548D03*
X00564151Y01581499D03*
X00573651Y01561499D03*
X00554651D03*
X01033606Y00824695D03*
X01024106Y00844695D03*
X01043106D03*
X00930689Y01140284D03*
X00921189Y01160284D03*
X00940189D03*
X00827764Y01474413D03*
X00837264Y01454413D03*
X00818264D03*
X01067176Y00721496D03*
X01057676Y00741496D03*
X01076676D03*
X00738995Y00847275D03*
X00748495Y00827275D03*
X00729495D03*
X00185475Y00302999D03*
X00175975Y00322999D03*
X00194975D03*
X00280074Y00615749D03*
X00270573Y00635749D03*
X00289574D03*
X00343189Y00828999D03*
X00333689Y00848999D03*
X00352689D03*
X00438012Y01142499D03*
X00428512Y01162499D03*
X00447512D03*
X00532359Y01475999D03*
X00541859Y01455999D03*
X00522859D03*
X01605841Y01368541D03*
X01615342Y01348541D03*
X01596341D03*
X01605841Y01053774D03*
X01615342Y01033774D03*
X01596341D03*
X01605841Y00738545D03*
X01615342Y00718545D03*
X01596341D03*
X0160584Y00424704D03*
X0161534Y00404704D03*
X0159634D03*
X02120622Y00248741D03*
X02130122Y00228741D03*
X02111122D03*
X0236459Y00433741D03*
X0237409Y00413741D03*
X0235509D03*
X02460141Y00809007D03*
X02469642Y00789007D03*
X02450641D03*
X02475142Y01124696D03*
X02484642Y01104696D03*
X02465642D03*
X01605841Y01159081D03*
X01615342Y01139081D03*
X01596341D03*
X01605841Y00844265D03*
X01615342Y00824265D03*
X01596341D03*
X0160584Y00528596D03*
X0161534Y00508596D03*
X0159634D03*
X02299142Y00353741D03*
X02308642Y00333741D03*
X02289642D03*
X02480143Y01019559D03*
X02489643Y00999559D03*
X02470643D03*
X02440142Y01327709D03*
X02449642Y01307709D03*
X02430642D03*
X01605841Y01263551D03*
X01615342Y01243551D03*
X01596341D03*
X01605841Y00948919D03*
X01615342Y00928919D03*
X01596341D03*
X01669038Y00585383D03*
X01678538Y00565383D03*
X01659538D03*
X02220291Y00288741D03*
X02229791Y00268741D03*
X02210791D03*
X02417585Y00594505D03*
X02427085Y00574505D03*
X02408085D03*
X02475142Y00914211D03*
X02484642Y00894211D03*
X02465642D03*
X0246014Y01226974D03*
X0246964Y01206973D03*
X0245064D03*
G54D18*
X03259591Y00874986D03*
Y00904987D03*
X0467334Y0039566D03*
Y0036566D03*
X03039499Y00370249D03*
Y00400249D03*
X0333959Y00369833D03*
Y00399833D03*
Y01524889D03*
Y01494888D03*
X03090749Y01574749D03*
Y01544749D03*
X04736499Y00365749D03*
Y00395749D03*
X04454591Y0036566D03*
Y0039566D03*
X01059749Y00282999D03*
Y00252999D03*
X00991669Y00489275D03*
Y00459275D03*
X01012715Y00252991D03*
Y00282991D03*
X00944915Y00459266D03*
Y00489266D03*
X00944995Y0064064D03*
Y0061064D03*
X00738996Y0064064D03*
Y0061064D03*
X0167334Y00363031D03*
Y00393031D03*
X01835549Y00357923D03*
Y00387923D03*
X02142612Y00417717D03*
Y00447718D03*
X02064591Y01502548D03*
Y01472548D03*
X01820743Y01542131D03*
Y01512131D03*
G54D19*
X02971395Y00361239D03*
X02941395D03*
X02990999Y01177999D03*
X02960999D03*
X0297175Y01519986D03*
X0294175D03*
X03388499Y00875499D03*
X03418499D03*
X02982204Y00858591D03*
X02952204D03*
X02259063Y00544761D03*
X02289063D03*
X02952204Y00684989D03*
X02982204D03*
X03480938Y00429989D03*
X03450938D03*
X03520887Y00719987D03*
X03490887D03*
X03417452Y01139988D03*
X03387452D03*
X03457356Y01429986D03*
X03427356D03*
X04137499Y00373404D03*
X04167499D03*
X04137499Y00474999D03*
X04167499D03*
X04137499Y00789999D03*
X04167499D03*
X04137499Y01104999D03*
X04167499D03*
X04137367Y01419991D03*
X04167367D03*
X00870137Y00863668D03*
X00840137D03*
X00791425Y01104992D03*
X00761425D03*
X00752372Y01362749D03*
X00722372D03*
X00315499Y00264991D03*
X00345499D03*
X00411749Y00579999D03*
X00441749D03*
X00478499Y00833499D03*
X00508499D03*
X00578999Y01105249D03*
X00608999D03*
X00605249Y01362749D03*
X00635249D03*
X01646591Y015132D03*
X01676591D03*
X01670249Y01209999D03*
X01700249D03*
X0166988Y00894991D03*
X01699881D03*
X01659589Y00524096D03*
X01689589D03*
X02337732Y00859991D03*
X02307732D03*
X02322898Y01169991D03*
X02292898D03*
X02257591Y01414358D03*
X02227591D03*
G54D20*
X03179749Y01701748D03*
X03199749Y01711248D03*
Y01692248D03*
X03279315Y01691184D03*
X03299315Y01700684D03*
Y01681684D03*
X02978526Y01701753D03*
X02998526Y01711253D03*
Y01692253D03*
X03376338Y01685369D03*
X03396338Y01694869D03*
Y01675869D03*
X03075582Y01701753D03*
X03095582Y01711253D03*
Y01692253D03*
X02393017Y01429146D03*
X02413017Y01438646D03*
Y01419646D03*
X02194457Y01645541D03*
X02214457Y01655042D03*
Y01636041D03*
X01906639Y01696498D03*
X01926639Y01705998D03*
Y01686998D03*
X02275918Y01584878D03*
X02295918Y01594378D03*
Y01575378D03*
X02006017Y01686947D03*
X02026017Y01696447D03*
Y01677447D03*
X01704249Y01696498D03*
X01724249Y01705998D03*
Y01686998D03*
X02344758Y01516071D03*
X02364758Y01525571D03*
Y01506571D03*
X02102625Y01676002D03*
X02122625Y01685501D03*
Y01666502D03*
X01800764Y01696498D03*
X01820764Y01705998D03*
Y01686998D03*
G54D21*
X04503999Y00054749D03*
X00136499Y00067999D03*
X00250999Y01780749D03*
G54D22*
X00426699Y01510199D03*
Y01497499D03*
Y01522899D03*
Y01535599D03*
G54D23*
X00300265Y0004996D03*
X01300263Y0004999D03*
X02300264D03*
X03300264D03*
X04300265D03*
X04800265Y01849992D03*
X03800264D03*
X02800266D03*
X01800266D03*
X00800265D03*
X00050264Y01850023D03*
G54D24*
X00494999Y01522899D03*
Y01510199D03*
Y01497499D03*
Y01535599D03*
M02*