%FSTAX44Y44*%
%MOMM*%
%SFA1B1*%

%IPPOS*%
%AMD27*
4,1,8,0.299720,0.449580,-0.299720,0.449580,-0.398780,0.350520,-0.398780,-0.350520,-0.299720,-0.449580,0.299720,-0.449580,0.398780,-0.350520,0.398780,0.350520,0.299720,0.449580,0.0*
1,1,0.200000,0.299720,0.350520*
1,1,0.200000,-0.299720,0.350520*
1,1,0.200000,-0.299720,-0.350520*
1,1,0.200000,0.299720,-0.350520*
%
%AMD28*
4,1,8,-0.899160,0.459740,-0.899160,-0.459740,-0.784860,-0.574040,0.784860,-0.574040,0.899160,-0.459740,0.899160,0.459740,0.784860,0.574040,-0.784860,0.574040,-0.899160,0.459740,0.0*
1,1,0.230000,-0.784860,0.459740*
1,1,0.230000,-0.784860,-0.459740*
1,1,0.230000,0.784860,-0.459740*
1,1,0.230000,0.784860,0.459740*
%
%AMD29*
4,1,8,0.599440,1.300480,-0.599440,1.300480,-0.749300,1.150620,-0.749300,-1.150620,-0.599440,-1.300480,0.599440,-1.300480,0.749300,-1.150620,0.749300,1.150620,0.599440,1.300480,0.0*
1,1,0.300000,0.599440,1.150620*
1,1,0.300000,-0.599440,1.150620*
1,1,0.300000,-0.599440,-1.150620*
1,1,0.300000,0.599440,-1.150620*
%
%AMD30*
4,1,8,-0.459740,-0.899160,0.459740,-0.899160,0.574040,-0.784860,0.574040,0.784860,0.459740,0.899160,-0.459740,0.899160,-0.574040,0.784860,-0.574040,-0.784860,-0.459740,-0.899160,0.0*
1,1,0.230000,-0.459740,-0.784860*
1,1,0.230000,0.459740,-0.784860*
1,1,0.230000,0.459740,0.784860*
1,1,0.230000,-0.459740,0.784860*
%
%AMD31*
4,1,8,1.300480,-0.599440,1.300480,0.599440,1.150620,0.749300,-1.150620,0.749300,-1.300480,0.599440,-1.300480,-0.599440,-1.150620,-0.749300,1.150620,-0.749300,1.300480,-0.599440,0.0*
1,1,0.300000,1.150620,-0.599440*
1,1,0.300000,1.150620,0.599440*
1,1,0.300000,-1.150620,0.599440*
1,1,0.300000,-1.150620,-0.599440*
%
%AMD32*
4,1,8,-0.449580,0.299720,-0.449580,-0.299720,-0.350520,-0.398780,0.350520,-0.398780,0.449580,-0.299720,0.449580,0.299720,0.350520,0.398780,-0.350520,0.398780,-0.449580,0.299720,0.0*
1,1,0.200000,-0.350520,0.299720*
1,1,0.200000,-0.350520,-0.299720*
1,1,0.200000,0.350520,-0.299720*
1,1,0.200000,0.350520,0.299720*
%
%ADD25C,0.649999*%
%ADD26C,0.050000*%
G04~CAMADD=27~8~0.0~0.0~315.0~354.3~39.4~0.0~15~0.0~0.0~0.0~0.0~0~0.0~0.0~0.0~0.0~0~0.0~0.0~0.0~0.0~315.0~354.3*
%ADD27D27*%
G04~CAMADD=28~8~0.0~0.0~452.8~708.7~45.3~0.0~15~0.0~0.0~0.0~0.0~0~0.0~0.0~0.0~0.0~0~0.0~0.0~0.0~90.0~708.0~452.0*
%ADD28D28*%
G04~CAMADD=29~8~0.0~0.0~590.6~1023.6~59.1~0.0~15~0.0~0.0~0.0~0.0~0~0.0~0.0~0.0~0.0~0~0.0~0.0~0.0~0.0~590.6~1023.6*
%ADD29D29*%
G04~CAMADD=30~8~0.0~0.0~452.8~708.7~45.3~0.0~15~0.0~0.0~0.0~0.0~0~0.0~0.0~0.0~0.0~0~0.0~0.0~0.0~180.0~452.0~708.0*
%ADD30D30*%
G04~CAMADD=31~8~0.0~0.0~590.6~1023.6~59.1~0.0~15~0.0~0.0~0.0~0.0~0~0.0~0.0~0.0~0.0~0~0.0~0.0~0.0~270.0~1024.0~590.0*
%ADD31D31*%
G04~CAMADD=32~8~0.0~0.0~315.0~354.3~39.4~0.0~15~0.0~0.0~0.0~0.0~0~0.0~0.0~0.0~0.0~0~0.0~0.0~0.0~90.0~354.0~314.0*
%ADD32D32*%
%ADD33C,1.499997*%
%ADD34O,2.949994X0.909998*%
%ADD35C,0.100000*%
%ADD36C,0.499999*%
%ADD37C,1.599997*%
%ADD38C,0.799998*%
%ADD39C,0.699999*%
%ADD40C,0.599999*%
%ADD41C,1.299997*%
%ADD42C,0.999998*%
%ADD43C,0.253999*%
%ADD44C,4.499991*%
%ADD45C,1.199998*%
%LNled_pd_ab_wh_3000149_(4f00227l_7p00500a)-1*%
%LPD*%
G36*
X00736967Y01690491D02*
Y01644991D01*
X00734467Y01642491*
X00699467*
X00696967Y01644991*
Y01690491*
X00699467Y01692991*
X00734467*
X00736967Y01690491*
G37*
G36*
X00657477D02*
Y01644991D01*
X00654977Y01642491*
X00619977*
X00617477Y01644991*
Y01690491*
X00619977Y01692991*
X00654977*
X00657477Y01690491*
G37*
G36*
X03259589Y01680487D02*
Y01634987D01*
X03257089Y01632487*
X03222089*
X03219589Y01634987*
Y01680487*
X03222089Y01682987*
X03257089*
X03259589Y01680487*
G37*
G36*
X03159589D02*
Y01634987D01*
X03157089Y01632487*
X03122089*
X03119589Y01634987*
Y01680487*
X03122089Y01682987*
X03157089*
X03159589Y01680487*
G37*
G36*
X0305959D02*
Y01634987D01*
X0305709Y01632487*
X0302209*
X0301959Y01634987*
Y01680487*
X0302209Y01682987*
X0305709*
X0305959Y01680487*
G37*
G36*
X0295959D02*
Y01634987D01*
X0295709Y01632487*
X0292209*
X0291959Y01634987*
Y01680487*
X0292209Y01682987*
X0295709*
X0295959Y01680487*
G37*
G36*
X01884591Y01675491D02*
Y01629991D01*
X01882091Y01627491*
X01847091*
X01844591Y01629991*
Y01675491*
X01847091Y01677991*
X01882091*
X01884591Y01675491*
G37*
G36*
X01784591D02*
Y01629991D01*
X01782091Y01627491*
X01747091*
X01744591Y01629991*
Y01675491*
X01747091Y01677991*
X01782091*
X01784591Y01675491*
G37*
G36*
X01684591D02*
Y01629991D01*
X01682091Y01627491*
X01647091*
X01644591Y01629991*
Y01675491*
X01647091Y01677991*
X01682091*
X01684591Y01675491*
G37*
G36*
X01984591Y01670491D02*
Y01624991D01*
X01982091Y01622491*
X01947091*
X01944591Y01624991*
Y01670491*
X01947091Y01672991*
X01982091*
X01984591Y01670491*
G37*
G36*
X03359591Y01670487D02*
Y01624987D01*
X03357091Y01622487*
X03322091*
X03319591Y01624987*
Y01670487*
X03322091Y01672987*
X03357091*
X03359591Y01670487*
G37*
G36*
X02084591Y01660491D02*
Y01614991D01*
X02082091Y01612491*
X02047091*
X02044591Y01614991*
Y01660491*
X02047091Y01662991*
X02082091*
X02084591Y01660491*
G37*
G36*
X04092591Y01637491D02*
Y01602491D01*
X04090091Y01599991*
X04044591*
X04042091Y01602491*
Y01637491*
X04044591Y01639991*
X04090091*
X04092591Y01637491*
G37*
G36*
X04027091D02*
Y01602491D01*
X04024591Y01599991*
X03979091*
X03976591Y01602491*
Y01637491*
X03979091Y01639991*
X04024591*
X04027091Y01637491*
G37*
G36*
X01622591D02*
Y01602491D01*
X01620091Y01599991*
X01574591*
X01572091Y01602491*
Y01637491*
X01574591Y01639991*
X01620091*
X01622591Y01637491*
G37*
G36*
X01557091D02*
Y01602491D01*
X01554591Y01599991*
X01509091*
X01506591Y01602491*
Y01637491*
X01509091Y01639991*
X01554591*
X01557091Y01637491*
G37*
G36*
X02897591Y01637485D02*
Y01602486D01*
X02895092Y01599985*
X02849591*
X02847091Y01602486*
Y01637485*
X02849591Y01639986*
X02895092*
X02897591Y01637485*
G37*
G36*
X02832091D02*
Y01602486D01*
X02829591Y01599985*
X02784091*
X02781591Y01602486*
Y01637485*
X02784091Y01639986*
X02829591*
X02832091Y01637485*
G37*
G36*
X02179591Y01630491D02*
Y01584991D01*
X02177091Y01582491*
X02142091*
X02139591Y01584991*
Y01630491*
X02142091Y01632991*
X02177091*
X02179591Y01630491*
G37*
G36*
X00736967Y01624991D02*
Y01579491D01*
X00734467Y01576991*
X00699467*
X00696967Y01579491*
Y01624991*
X00699467Y01627491*
X00734467*
X00736967Y01624991*
G37*
G36*
X00657477D02*
Y01579491D01*
X00654977Y01576991*
X00619977*
X00617477Y01579491*
Y01624991*
X00619977Y01627491*
X00654977*
X00657477Y01624991*
G37*
G36*
X03259589Y01614987D02*
Y01569487D01*
X03257089Y01566987*
X03222089*
X03219589Y01569487*
Y01614987*
X03222089Y01617487*
X03257089*
X03259589Y01614987*
G37*
G36*
X03159589D02*
Y01569487D01*
X03157089Y01566987*
X03122089*
X03119589Y01569487*
Y01614987*
X03122089Y01617487*
X03157089*
X03159589Y01614987*
G37*
G36*
X0305959D02*
Y01569487D01*
X0305709Y01566987*
X0302209*
X0301959Y01569487*
Y01614987*
X0302209Y01617487*
X0305709*
X0305959Y01614987*
G37*
G36*
X0295959D02*
Y01569487D01*
X0295709Y01566987*
X0292209*
X0291959Y01569487*
Y01614987*
X0292209Y01617487*
X0295709*
X0295959Y01614987*
G37*
G36*
X03492589Y01602487D02*
Y01567487D01*
X03490089Y01564987*
X03444589*
X03442089Y01567487*
Y01602487*
X03444589Y01604987*
X03490089*
X03492589Y01602487*
G37*
G36*
X03427089D02*
Y01567487D01*
X03424589Y01564987*
X03379089*
X03376589Y01567487*
Y01602487*
X03379089Y01604987*
X03424589*
X03427089Y01602487*
G37*
G36*
X01884591Y01609991D02*
Y01564491D01*
X01882091Y01561991*
X01847091*
X01844591Y01564491*
Y01609991*
X01847091Y01612491*
X01882091*
X01884591Y01609991*
G37*
G36*
X01784591D02*
Y01564491D01*
X01782091Y01561991*
X01747091*
X01744591Y01564491*
Y01609991*
X01747091Y01612491*
X01782091*
X01784591Y01609991*
G37*
G36*
X01684591D02*
Y01564491D01*
X01682091Y01561991*
X01647091*
X01644591Y01564491*
Y01609991*
X01647091Y01612491*
X01682091*
X01684591Y01609991*
G37*
G36*
X01984591Y01604991D02*
Y01559491D01*
X01982091Y01556991*
X01947091*
X01944591Y01559491*
Y01604991*
X01947091Y01607491*
X01982091*
X01984591Y01604991*
G37*
G36*
X03359591Y01604987D02*
Y01559487D01*
X03357091Y01556987*
X03322091*
X03319591Y01559487*
Y01604987*
X03322091Y01607487*
X03357091*
X03359591Y01604987*
G37*
G36*
X02084591Y01594991D02*
Y01549491D01*
X02082091Y01546991*
X02047091*
X02044591Y01549491*
Y01594991*
X02047091Y01597491*
X02082091*
X02084591Y01594991*
G37*
G36*
X02259591Y01570491D02*
Y01524991D01*
X02257091Y01522491*
X02222091*
X02219591Y01524991*
Y01570491*
X02222091Y01572991*
X02257091*
X02259591Y01570491*
G37*
G36*
X02179591Y01564991D02*
Y01519491D01*
X02177091Y01516991*
X02142091*
X02139591Y01519491*
Y01564991*
X02142091Y01567491*
X02177091*
X02179591Y01564991*
G37*
G36*
X00810908Y01542491D02*
Y01507491D01*
X00808408Y01504991*
X00762908*
X00760408Y01507491*
Y01542491*
X00762908Y01544991*
X00808408*
X00810908Y01542491*
G37*
G36*
X00745408D02*
Y01507491D01*
X00742908Y01504991*
X00697408*
X00694908Y01507491*
Y01542491*
X00697408Y01544991*
X00742908*
X00745408Y01542491*
G37*
G36*
X00662442D02*
Y01507491D01*
X00659942Y01504991*
X00614442*
X00611942Y01507491*
Y01542491*
X00614442Y01544991*
X00659942*
X00662442Y01542491*
G37*
G36*
X00596942D02*
Y01507491D01*
X00594442Y01504991*
X00548942*
X00546442Y01507491*
Y01542491*
X00548942Y01544991*
X00594442*
X00596942Y01542491*
G37*
G36*
X01622111Y0153753D02*
Y0150253D01*
X01619611Y0150003*
X01574112*
X01571612Y0150253*
Y0153753*
X01574112Y0154003*
X01619611*
X01622111Y0153753*
G37*
G36*
X01556612D02*
Y0150253D01*
X01554112Y0150003*
X01508612*
X01506112Y0150253*
Y0153753*
X01508612Y0154003*
X01554112*
X01556612Y0153753*
G37*
G36*
X04092591Y01537491D02*
Y01502491D01*
X04090091Y01499991*
X04044591*
X04042091Y01502491*
Y01537491*
X04044591Y01539991*
X04090091*
X04092591Y01537491*
G37*
G36*
X04027091D02*
Y01502491D01*
X04024591Y01499991*
X03979091*
X03976591Y01502491*
Y01537491*
X03979091Y01539991*
X04024591*
X04027091Y01537491*
G37*
G36*
X02897591Y01537486D02*
Y01502486D01*
X02895092Y01499986*
X02849591*
X02847091Y01502486*
Y01537486*
X02849591Y01539986*
X02895092*
X02897591Y01537486*
G37*
G36*
X02832091D02*
Y01502486D01*
X02829591Y01499986*
X02784091*
X02781591Y01502486*
Y01537486*
X02784091Y01539986*
X02829591*
X02832091Y01537486*
G37*
G36*
X03562589Y01532487D02*
Y01497487D01*
X03560089Y01494987*
X03514589*
X03512089Y01497487*
Y01532487*
X03514589Y01534987*
X03560089*
X03562589Y01532487*
G37*
G36*
X03497089D02*
Y01497487D01*
X03494589Y01494987*
X03449089*
X03446589Y01497487*
Y01532487*
X03449089Y01534987*
X03494589*
X03497089Y01532487*
G37*
G36*
X02259591Y01504991D02*
Y01459491D01*
X02257091Y01456991*
X02222091*
X02219591Y01459491*
Y01504991*
X02222091Y01507491*
X02257091*
X02259591Y01504991*
G37*
G36*
X02329591Y01500491D02*
Y01454991D01*
X02327091Y01452491*
X02292091*
X02289591Y01454991*
Y01500491*
X02292091Y01502991*
X02327091*
X02329591Y01500491*
G37*
G36*
X03612588Y01447486D02*
Y01412486D01*
X03610088Y01409986*
X03564589*
X03562089Y01412486*
Y01447486*
X03564589Y01449986*
X03610088*
X03612588Y01447486*
G37*
G36*
X03547089D02*
Y01412486D01*
X03544589Y01409986*
X03499088*
X03496588Y01412486*
Y01447486*
X03499088Y01449986*
X03544589*
X03547089Y01447486*
G37*
G36*
X00845213Y01437492D02*
Y01402493D01*
X00842713Y01399992*
X00797213*
X00794713Y01402493*
Y01437492*
X00797213Y01439993*
X00842713*
X00845213Y01437492*
G37*
G36*
X00779713D02*
Y01402493D01*
X00777213Y01399992*
X00731713*
X00729213Y01402493*
Y01437492*
X00731713Y01439993*
X00777213*
X00779713Y01437492*
G37*
G36*
X00630908D02*
Y01402493D01*
X00628408Y01399992*
X00582908*
X00580408Y01402493*
Y01437492*
X00582908Y01439993*
X00628408*
X00630908Y01437492*
G37*
G36*
X00565408D02*
Y01402493D01*
X00562908Y01399992*
X00517408*
X00514908Y01402493*
Y01437492*
X00517408Y01439993*
X00562908*
X00565408Y01437492*
G37*
G36*
X04092591Y01437491D02*
Y01402491D01*
X04090091Y01399991*
X04044591*
X04042091Y01402491*
Y01437491*
X04044591Y01439991*
X04090091*
X04092591Y01437491*
G37*
G36*
X04027091D02*
Y01402491D01*
X04024591Y01399991*
X03979091*
X03976591Y01402491*
Y01437491*
X03979091Y01439991*
X04024591*
X04027091Y01437491*
G37*
G36*
X01622591D02*
Y01402491D01*
X01620091Y01399991*
X01574591*
X01572091Y01402491*
Y01437491*
X01574591Y01439991*
X01620091*
X01622591Y01437491*
G37*
G36*
X01557091D02*
Y01402491D01*
X01554591Y01399991*
X01509091*
X01506591Y01402491*
Y01437491*
X01509091Y01439991*
X01554591*
X01557091Y01437491*
G37*
G36*
X02897591Y01437486D02*
Y01402486D01*
X02895092Y01399986*
X02849591*
X02847091Y01402486*
Y01437486*
X02849591Y01439986*
X02895092*
X02897591Y01437486*
G37*
G36*
X02832091D02*
Y01402486D01*
X02829591Y01399986*
X02784091*
X02781591Y01402486*
Y01437486*
X02784091Y01439986*
X02829591*
X02832091Y01437486*
G37*
G36*
X02329591Y01434991D02*
Y01389491D01*
X02327091Y01386991*
X02292091*
X02289591Y01389491*
Y01434991*
X02292091Y01437491*
X02327091*
X02329591Y01434991*
G37*
G36*
X02379591Y01415491D02*
Y01369991D01*
X02377091Y01367491*
X02342091*
X02339591Y01369991*
Y01415491*
X02342091Y01417991*
X02377091*
X02379591Y01415491*
G37*
G36*
X003155Y01349647D02*
X00322998D01*
Y01343004*
X00297854*
Y0134391*
Y01352662*
X00304416*
Y01349647*
X00309214*
Y01353223*
X003155*
Y01349647*
G37*
G36*
X0362759Y01347487D02*
Y01312487D01*
X0362509Y01309987*
X0357959*
X0357709Y01312487*
Y01347487*
X0357959Y01349987*
X0362509*
X0362759Y01347487*
G37*
G36*
X0356209D02*
Y01312487D01*
X0355959Y01309987*
X0351409*
X0351159Y01312487*
Y01347487*
X0351409Y01349987*
X0355959*
X0356209Y01347487*
G37*
G36*
X02379591Y01349991D02*
Y01304491D01*
X02377091Y01301991*
X02342091*
X02339591Y01304491*
Y01349991*
X02342091Y01352491*
X02377091*
X02379591Y01349991*
G37*
G36*
X00879521Y01332492D02*
Y01297492D01*
X00877021Y01294992*
X00831521*
X00829021Y01297492*
Y01332492*
X00831521Y01334992*
X00877021*
X00879521Y01332492*
G37*
G36*
X00814021D02*
Y01297492D01*
X00811521Y01294992*
X00766021*
X00763521Y01297492*
Y01332492*
X00766021Y01334992*
X00811521*
X00814021Y01332492*
G37*
G36*
X04092591Y01332491D02*
Y01297491D01*
X04090091Y01294991*
X04044591*
X04042091Y01297491*
Y01332491*
X04044591Y01334991*
X04090091*
X04092591Y01332491*
G37*
G36*
X04027091D02*
Y01297491D01*
X04024591Y01294991*
X03979091*
X03976591Y01297491*
Y01332491*
X03979091Y01334991*
X04024591*
X04027091Y01332491*
G37*
G36*
X01622591D02*
Y01297491D01*
X01620091Y01294991*
X01574591*
X01572091Y01297491*
Y01332491*
X01574591Y01334991*
X01620091*
X01622591Y01332491*
G37*
G36*
X01557091D02*
Y01297491D01*
X01554591Y01294991*
X01509091*
X01506591Y01297491*
Y01332491*
X01509091Y01334991*
X01554591*
X01557091Y01332491*
G37*
G36*
X02897591Y01332486D02*
Y01297486D01*
X02895092Y01294986*
X02849591*
X02847091Y01297486*
Y01332486*
X02849591Y01334986*
X02895092*
X02897591Y01332486*
G37*
G36*
X02832091D02*
Y01297486D01*
X02829591Y01294986*
X02784091*
X02781591Y01297486*
Y01332486*
X02784091Y01334986*
X02829591*
X02832091Y01332486*
G37*
G36*
X00599249Y01332369D02*
Y01297369D01*
X00596749Y01294869*
X00551249*
X00548749Y01297369*
Y01332369*
X00551249Y01334869*
X00596749*
X00599249Y01332369*
G37*
G36*
X00533749D02*
Y01297369D01*
X00531249Y01294869*
X00485749*
X00483249Y01297369*
Y01332369*
X00485749Y01334869*
X00531249*
X00533749Y01332369*
G37*
G36*
X02457591Y01287491D02*
Y01252491D01*
X02455091Y01249991*
X02409591*
X02407091Y01252491*
Y01287491*
X02409591Y01289991*
X02455091*
X02457591Y01287491*
G37*
G36*
X02392091D02*
Y01252491D01*
X02389591Y01249991*
X02344091*
X02341591Y01252491*
Y01287491*
X02344091Y01289991*
X02389591*
X02392091Y01287491*
G37*
G36*
X0361759Y01247487D02*
Y01212487D01*
X0361509Y01209987*
X0356959*
X0356709Y01212487*
Y01247487*
X0356959Y01249987*
X0361509*
X0361759Y01247487*
G37*
G36*
X0355209D02*
Y01212487D01*
X0354959Y01209987*
X0350409*
X0350159Y01212487*
Y01247487*
X0350409Y01249987*
X0354959*
X0355209Y01247487*
G37*
G36*
X04092591Y01227491D02*
Y01192491D01*
X04090091Y01189991*
X04044591*
X04042091Y01192491*
Y01227491*
X04044591Y01229991*
X04090091*
X04092591Y01227491*
G37*
G36*
X04027091D02*
Y01192491D01*
X04024591Y01189991*
X03979091*
X03976591Y01192491*
Y01227491*
X03979091Y01229991*
X04024591*
X04027091Y01227491*
G37*
G36*
X01622591D02*
Y01192491D01*
X01620091Y01189991*
X01574591*
X01572091Y01192491*
Y01227491*
X01574591Y01229991*
X01620091*
X01622591Y01227491*
G37*
G36*
X01557091D02*
Y01192491D01*
X01554591Y01189991*
X01509091*
X01506591Y01192491*
Y01227491*
X01509091Y01229991*
X01554591*
X01557091Y01227491*
G37*
G36*
X00913828Y0122749D02*
Y0119249D01*
X00911328Y0118999*
X00865828*
X00863328Y0119249*
Y0122749*
X00865828Y0122999*
X00911328*
X00913828Y0122749*
G37*
G36*
X00848328D02*
Y0119249D01*
X00845828Y0118999*
X00800329*
X00797829Y0119249*
Y0122749*
X00800329Y0122999*
X00845828*
X00848328Y0122749*
G37*
G36*
X00567837D02*
Y0119249D01*
X00565337Y0118999*
X00519837*
X00517337Y0119249*
Y0122749*
X00519837Y0122999*
X00565337*
X00567837Y0122749*
G37*
G36*
X00502337D02*
Y0119249D01*
X00499837Y0118999*
X00454337*
X00451837Y0119249*
Y0122749*
X00454337Y0122999*
X00499837*
X00502337Y0122749*
G37*
G36*
X02897591Y01227487D02*
Y01192487D01*
X02895092Y01189987*
X02849591*
X02847091Y01192487*
Y01227487*
X02849591Y01229987*
X02895092*
X02897591Y01227487*
G37*
G36*
X02832091D02*
Y01192487D01*
X02829591Y01189987*
X02784091*
X02781591Y01192487*
Y01227487*
X02784091Y01229987*
X02829591*
X02832091Y01227487*
G37*
G36*
X02477591Y01187491D02*
Y01152491D01*
X02475091Y01149991*
X02429591*
X02427091Y01152491*
Y01187491*
X02429591Y01189991*
X02475091*
X02477591Y01187491*
G37*
G36*
X02412091D02*
Y01152491D01*
X02409591Y01149991*
X02364091*
X02361591Y01152491*
Y01187491*
X02364091Y01189991*
X02409591*
X02412091Y01187491*
G37*
G36*
X03572589Y01157488D02*
Y01122488D01*
X03570089Y01119988*
X03524589*
X03522089Y01122488*
Y01157488*
X03524589Y01159988*
X03570089*
X03572589Y01157488*
G37*
G36*
X03507089D02*
Y01122488D01*
X03504589Y01119988*
X03459089*
X03456589Y01122488*
Y01157488*
X03459089Y01159988*
X03504589*
X03507089Y01157488*
G37*
G36*
X00948136Y01122492D02*
Y01087492D01*
X00945636Y01084992*
X00900136*
X00897636Y01087492*
Y01122492*
X00900136Y01124992*
X00945636*
X00948136Y01122492*
G37*
G36*
X00882636D02*
Y01087492D01*
X00880136Y01084992*
X00834636*
X00832136Y01087492*
Y01122492*
X00834636Y01124992*
X00880136*
X00882636Y01122492*
G37*
G36*
X00536303D02*
Y01087492D01*
X00533803Y01084992*
X00488303*
X00485803Y01087492*
Y01122492*
X00488303Y01124992*
X00533803*
X00536303Y01122492*
G37*
G36*
X00470803D02*
Y01087492D01*
X00468303Y01084992*
X00422803*
X00420303Y01087492*
Y01122492*
X00422803Y01124992*
X00468303*
X00470803Y01122492*
G37*
G36*
X04092591Y01122491D02*
Y01087491D01*
X04090091Y01084991*
X04044591*
X04042091Y01087491*
Y01122491*
X04044591Y01124991*
X04090091*
X04092591Y01122491*
G37*
G36*
X04027091D02*
Y01087491D01*
X04024591Y01084991*
X03979091*
X03976591Y01087491*
Y01122491*
X03979091Y01124991*
X04024591*
X04027091Y01122491*
G37*
G36*
X01622591D02*
Y01087491D01*
X01620091Y01084991*
X01574591*
X01572091Y01087491*
Y01122491*
X01574591Y01124991*
X01620091*
X01622591Y01122491*
G37*
G36*
X01557091D02*
Y01087491D01*
X01554591Y01084991*
X01509091*
X01506591Y01087491*
Y01122491*
X01509091Y01124991*
X01554591*
X01557091Y01122491*
G37*
G36*
X02897591Y01122487D02*
Y01087487D01*
X02895092Y01084987*
X02849591*
X02847091Y01087487*
Y01122487*
X02849591Y01124987*
X02895092*
X02897591Y01122487*
G37*
G36*
X02832091D02*
Y01087487D01*
X02829591Y01084987*
X02784091*
X02781591Y01087487*
Y01122487*
X02784091Y01124987*
X02829591*
X02832091Y01122487*
G37*
G36*
X02492591Y01087491D02*
Y01052491D01*
X02490091Y01049991*
X02444591*
X02442091Y01052491*
Y01087491*
X02444591Y01089991*
X02490091*
X02492591Y01087491*
G37*
G36*
X02427091D02*
Y01052491D01*
X02424591Y01049991*
X02379091*
X02376591Y01052491*
Y01087491*
X02379091Y01089991*
X02424591*
X02427091Y01087491*
G37*
G36*
X03502589Y01087488D02*
Y01052488D01*
X03500089Y01049988*
X03454589*
X03452089Y01052488*
Y01087488*
X03454589Y01089988*
X03500089*
X03502589Y01087488*
G37*
G36*
X03437089D02*
Y01052488D01*
X03434589Y01049988*
X03389089*
X03386589Y01052488*
Y01087488*
X03389089Y01089988*
X03434589*
X03437089Y01087488*
G37*
G36*
X03279591Y01055489D02*
Y01009989D01*
X03277091Y01007489*
X03242091*
X03239591Y01009989*
Y01055489*
X03242091Y01057989*
X03277091*
X03279591Y01055489*
G37*
G36*
X03174591D02*
Y01009989D01*
X03172091Y01007489*
X03137091*
X03134591Y01009989*
Y01055489*
X03137091Y01057989*
X03172091*
X03174591Y01055489*
G37*
G36*
X0306959D02*
Y01009989D01*
X0306709Y01007489*
X0303209*
X0302959Y01009989*
Y01055489*
X0303209Y01057989*
X0306709*
X0306959Y01055489*
G37*
G36*
X02964592D02*
Y01009989D01*
X02962092Y01007489*
X02927092*
X02924592Y01009989*
Y01055489*
X02927092Y01057989*
X02962092*
X02964592Y01055489*
G37*
G36*
X04092591Y01017491D02*
Y00982491D01*
X04090091Y00979991*
X04044591*
X04042091Y00982491*
Y01017491*
X04044591Y01019991*
X04090091*
X04092591Y01017491*
G37*
G36*
X04027091D02*
Y00982491D01*
X04024591Y00979991*
X03979091*
X03976591Y00982491*
Y01017491*
X03979091Y01019991*
X04024591*
X04027091Y01017491*
G37*
G36*
X01622591D02*
Y00982491D01*
X01620091Y00979991*
X01574591*
X01572091Y00982491*
Y01017491*
X01574591Y01019991*
X01620091*
X01622591Y01017491*
G37*
G36*
X01557091D02*
Y00982491D01*
X01554591Y00979991*
X01509091*
X01506591Y00982491*
Y01017491*
X01509091Y01019991*
X01554591*
X01557091Y01017491*
G37*
G36*
X00982442D02*
Y00982491D01*
X00979941Y00979991*
X00934442*
X00931942Y00982491*
Y01017491*
X00934442Y01019991*
X00979941*
X00982442Y01017491*
G37*
G36*
X00916942D02*
Y00982491D01*
X00914442Y00979991*
X00868942*
X00866441Y00982491*
Y01017491*
X00868942Y01019991*
X00914442*
X00916942Y01017491*
G37*
G36*
X0342259Y01017489D02*
Y00982489D01*
X0342009Y00979989*
X03374589*
X03372089Y00982489*
Y01017489*
X03374589Y01019989*
X0342009*
X0342259Y01017489*
G37*
G36*
X03357089D02*
Y00982489D01*
X03354589Y00979989*
X0330909*
X0330659Y00982489*
Y01017489*
X0330909Y01019989*
X03354589*
X03357089Y01017489*
G37*
G36*
X02897591D02*
Y00982489D01*
X02895092Y00979989*
X02849591*
X02847091Y00982489*
Y01017489*
X02849591Y01019989*
X02895092*
X02897591Y01017489*
G37*
G36*
X02832091D02*
Y00982489D01*
X02829591Y00979989*
X02784091*
X02781591Y00982489*
Y01017489*
X02784091Y01019989*
X02829591*
X02832091Y01017489*
G37*
G36*
X00504749Y01017471D02*
Y00982472D01*
X00502249Y00979971*
X00456749*
X00454249Y00982472*
Y01017471*
X00456749Y01019971*
X00502249*
X00504749Y01017471*
G37*
G36*
X00439249D02*
Y00982472D01*
X00436749Y00979971*
X00391249*
X00388749Y00982472*
Y01017471*
X00391249Y01019971*
X00436749*
X00439249Y01017471*
G37*
G36*
X02497591Y00982491D02*
Y00947491D01*
X02495091Y00944991*
X02449591*
X02447091Y00947491*
Y00982491*
X02449591Y00984991*
X02495091*
X02497591Y00982491*
G37*
G36*
X02432091D02*
Y00947491D01*
X02429591Y00944991*
X02384091*
X02381591Y00947491*
Y00982491*
X02384091Y00984991*
X02429591*
X02432091Y00982491*
G37*
G36*
X03279591Y00989989D02*
Y00944489D01*
X03277091Y00941989*
X03242091*
X03239591Y00944489*
Y00989989*
X03242091Y00992489*
X03277091*
X03279591Y00989989*
G37*
G36*
X03174591D02*
Y00944489D01*
X03172091Y00941989*
X03137091*
X03134591Y00944489*
Y00989989*
X03137091Y00992489*
X03172091*
X03174591Y00989989*
G37*
G36*
X0306959D02*
Y00944489D01*
X0306709Y00941989*
X0303209*
X0302959Y00944489*
Y00989989*
X0303209Y00992489*
X0306709*
X0306959Y00989989*
G37*
G36*
X02964592D02*
Y00944489D01*
X02962092Y00941989*
X02927092*
X02924592Y00944489*
Y00989989*
X02927092Y00992489*
X02962092*
X02964592Y00989989*
G37*
G36*
X03492589Y00962488D02*
Y00927488D01*
X03490089Y00924988*
X03444589*
X03442089Y00927488*
Y00962488*
X03444589Y00964988*
X03490089*
X03492589Y00962488*
G37*
G36*
X03427089D02*
Y00927488D01*
X03424589Y00924988*
X03379089*
X03376589Y00927488*
Y00962488*
X03379089Y00964988*
X03424589*
X03427089Y00962488*
G37*
G36*
X00473249Y00912506D02*
Y00877506D01*
X00470749Y00875006*
X00425249*
X00422749Y00877506*
Y00912506*
X00425249Y00915006*
X00470749*
X00473249Y00912506*
G37*
G36*
X00407749D02*
Y00877506D01*
X00405249Y00875006*
X00359749*
X00357249Y00877506*
Y00912506*
X00359749Y00915006*
X00405249*
X00407749Y00912506*
G37*
G36*
X01016749Y00912492D02*
Y00877492D01*
X01014249Y00874992*
X00968749*
X00966249Y00877492*
Y00912492*
X00968749Y00914992*
X01014249*
X01016749Y00912492*
G37*
G36*
X00951249D02*
Y00877492D01*
X00948749Y00874992*
X00903249*
X00900749Y00877492*
Y00912492*
X00903249Y00914992*
X00948749*
X00951249Y00912492*
G37*
G36*
X04092591Y00912491D02*
Y00877491D01*
X04090091Y00874991*
X04044591*
X04042091Y00877491*
Y00912491*
X04044591Y00914991*
X04090091*
X04092591Y00912491*
G37*
G36*
X04027091D02*
Y00877491D01*
X04024591Y00874991*
X03979091*
X03976591Y00877491*
Y00912491*
X03979091Y00914991*
X04024591*
X04027091Y00912491*
G37*
G36*
X01622591D02*
Y00877491D01*
X01620091Y00874991*
X01574591*
X01572091Y00877491*
Y00912491*
X01574591Y00914991*
X01620091*
X01622591Y00912491*
G37*
G36*
X01557091D02*
Y00877491D01*
X01554591Y00874991*
X01509091*
X01506591Y00877491*
Y00912491*
X01509091Y00914991*
X01554591*
X01557091Y00912491*
G37*
G36*
X02897591Y00912488D02*
Y00877488D01*
X02895092Y00874988*
X02849591*
X02847091Y00877488*
Y00912488*
X02849591Y00914988*
X02895092*
X02897591Y00912488*
G37*
G36*
X02832091D02*
Y00877488D01*
X02829591Y00874988*
X02784091*
X02781591Y00877488*
Y00912488*
X02784091Y00914988*
X02829591*
X02832091Y00912488*
G37*
G36*
X03572589Y00907487D02*
Y00872487D01*
X03570089Y00869987*
X03524589*
X03522089Y00872487*
Y00907487*
X03524589Y00909987*
X03570089*
X03572589Y00907487*
G37*
G36*
X03507089D02*
Y00872487D01*
X03504589Y00869987*
X03459089*
X03456589Y00872487*
Y00907487*
X03459089Y00909987*
X03504589*
X03507089Y00907487*
G37*
G36*
X02492591Y00877491D02*
Y00842491D01*
X02490091Y00839991*
X02444591*
X02442091Y00842491*
Y00877491*
X02444591Y00879991*
X02490091*
X02492591Y00877491*
G37*
G36*
X02427091D02*
Y00842491D01*
X02424591Y00839991*
X02379091*
X02376591Y00842491*
Y00877491*
X02379091Y00879991*
X02424591*
X02427091Y00877491*
G37*
G36*
X03632591Y00827487D02*
Y00792487D01*
X03630091Y00789987*
X03584591*
X03582091Y00792487*
Y00827487*
X03584591Y00829987*
X03630091*
X03632591Y00827487*
G37*
G36*
X03567091D02*
Y00792487D01*
X03564591Y00789987*
X03519091*
X03516591Y00792487*
Y00827487*
X03519091Y00829987*
X03564591*
X03567091Y00827487*
G37*
G36*
X01051055Y00807491D02*
Y00772491D01*
X01048555Y00769991*
X01003055*
X01000555Y00772491*
Y00807491*
X01003055Y00809991*
X01048555*
X01051055Y00807491*
G37*
G36*
X00985555D02*
Y00772491D01*
X00983055Y00769991*
X00937555*
X00935055Y00772491*
Y00807491*
X00937555Y00809991*
X00983055*
X00985555Y00807491*
G37*
G36*
X00441996D02*
Y00772491D01*
X00439496Y00769991*
X00393996*
X00391496Y00772491*
Y00807491*
X00393996Y00809991*
X00439496*
X00441996Y00807491*
G37*
G36*
X00376496D02*
Y00772491D01*
X00373996Y00769991*
X00328496*
X00325996Y00772491*
Y00807491*
X00328496Y00809991*
X00373996*
X00376496Y00807491*
G37*
G36*
X04092591D02*
Y00772491D01*
X04090091Y00769991*
X04044591*
X04042091Y00772491*
Y00807491*
X04044591Y00809991*
X04090091*
X04092591Y00807491*
G37*
G36*
X04027091D02*
Y00772491D01*
X04024591Y00769991*
X03979091*
X03976591Y00772491*
Y00807491*
X03979091Y00809991*
X04024591*
X04027091Y00807491*
G37*
G36*
X01622591D02*
Y00772491D01*
X01620091Y00769991*
X01574591*
X01572091Y00772491*
Y00807491*
X01574591Y00809991*
X01620091*
X01622591Y00807491*
G37*
G36*
X01557091D02*
Y00772491D01*
X01554591Y00769991*
X01509091*
X01506591Y00772491*
Y00807491*
X01509091Y00809991*
X01554591*
X01557091Y00807491*
G37*
G36*
X02897591Y0080749D02*
Y0077249D01*
X02895092Y0076999*
X02849591*
X02847091Y0077249*
Y0080749*
X02849591Y0080999*
X02895092*
X02897591Y0080749*
G37*
G36*
X02832091D02*
Y0077249D01*
X02829591Y0076999*
X02784091*
X02781591Y0077249*
Y0080749*
X02784091Y0080999*
X02829591*
X02832091Y0080749*
G37*
G36*
X00858996Y00785491D02*
Y00739991D01*
X00856496Y00737491*
X00821496*
X00818996Y00739991*
Y00785491*
X00821496Y00787991*
X00856496*
X00858996Y00785491*
G37*
G36*
X00758996D02*
Y00739991D01*
X00756496Y00737491*
X00721496*
X00718996Y00739991*
Y00785491*
X00721496Y00787991*
X00756496*
X00758996Y00785491*
G37*
G36*
X00658996D02*
Y00739991D01*
X00656496Y00737491*
X00621496*
X00618996Y00739991*
Y00785491*
X00621496Y00787991*
X00656496*
X00658996Y00785491*
G37*
G36*
X00558997D02*
Y00739991D01*
X00556496Y00737491*
X00521497*
X00518996Y00739991*
Y00785491*
X00521497Y00787991*
X00556496*
X00558997Y00785491*
G37*
G36*
X02477591Y00772491D02*
Y00737491D01*
X02475091Y00734991*
X02429591*
X02427091Y00737491*
Y00772491*
X02429591Y00774991*
X02475091*
X02477591Y00772491*
G37*
G36*
X02412091D02*
Y00737491D01*
X02409591Y00734991*
X02364091*
X02361591Y00737491*
Y00772491*
X02364091Y00774991*
X02409591*
X02412091Y00772491*
G37*
G36*
X00996996Y00747491D02*
Y00712491D01*
X00994496Y00709991*
X00948996*
X00946496Y00712491*
Y00747491*
X00948996Y00749991*
X00994496*
X00996996Y00747491*
G37*
G36*
X00931496D02*
Y00712491D01*
X00928996Y00709991*
X00883496*
X00880996Y00712491*
Y00747491*
X00883496Y00749991*
X00928996*
X00931496Y00747491*
G37*
G36*
X00496999Y00747489D02*
Y00712489D01*
X00494499Y00709989*
X00448999*
X00446499Y00712489*
Y00747489*
X00448999Y00749989*
X00494499*
X00496999Y00747489*
G37*
G36*
X00431499D02*
Y00712489D01*
X00428999Y00709989*
X00383499*
X00381Y00712489*
Y00747489*
X00383499Y00749989*
X00428999*
X00431499Y00747489*
G37*
G36*
X0367759Y00737487D02*
Y00702487D01*
X0367509Y00699987*
X03629589*
X03627089Y00702487*
Y00737487*
X03629589Y00739987*
X0367509*
X0367759Y00737487*
G37*
G36*
X03612089D02*
Y00702487D01*
X03609589Y00699987*
X0356409*
X0356159Y00702487*
Y00737487*
X0356409Y00739987*
X03609589*
X03612089Y00737487*
G37*
G36*
X00858996Y00719991D02*
Y00674491D01*
X00856496Y00671991*
X00821496*
X00818996Y00674491*
Y00719991*
X00821496Y00722491*
X00856496*
X00858996Y00719991*
G37*
G36*
X00758996D02*
Y00674491D01*
X00756496Y00671991*
X00721496*
X00718996Y00674491*
Y00719991*
X00721496Y00722491*
X00756496*
X00758996Y00719991*
G37*
G36*
X00658996D02*
Y00674491D01*
X00656496Y00671991*
X00621496*
X00618996Y00674491*
Y00719991*
X00621496Y00722491*
X00656496*
X00658996Y00719991*
G37*
G36*
X00558997D02*
Y00674491D01*
X00556496Y00671991*
X00521497*
X00518996Y00674491*
Y00719991*
X00521497Y00722491*
X00556496*
X00558997Y00719991*
G37*
G36*
X00410158Y00702499D02*
Y00667499D01*
X00407658Y00664999*
X00362158*
X00359658Y00667499*
Y00702499*
X00362158Y00704999*
X00407658*
X00410158Y00702499*
G37*
G36*
X00344658D02*
Y00667499D01*
X00342158Y00664999*
X00296658*
X00294158Y00667499*
Y00702499*
X00296658Y00704999*
X00342158*
X00344658Y00702499*
G37*
G36*
X04092591Y00702491D02*
Y00667491D01*
X04090091Y00664991*
X04044591*
X04042091Y00667491*
Y00702491*
X04044591Y00704991*
X04090091*
X04092591Y00702491*
G37*
G36*
X04027091D02*
Y00667491D01*
X04024591Y00664991*
X03979091*
X03976591Y00667491*
Y00702491*
X03979091Y00704991*
X04024591*
X04027091Y00702491*
G37*
G36*
X01622591D02*
Y00667491D01*
X01620091Y00664991*
X01574591*
X01572091Y00667491*
Y00702491*
X01574591Y00704991*
X01620091*
X01622591Y00702491*
G37*
G36*
X01557091D02*
Y00667491D01*
X01554591Y00664991*
X01509091*
X01506591Y00667491*
Y00702491*
X01509091Y00704991*
X01554591*
X01557091Y00702491*
G37*
G36*
X01085362Y0070249D02*
Y0066749D01*
X01082862Y0066499*
X01037362*
X01034862Y0066749*
Y0070249*
X01037362Y0070499*
X01082862*
X01085362Y0070249*
G37*
G36*
X01019862D02*
Y0066749D01*
X01017362Y0066499*
X00971862*
X00969362Y0066749*
Y0070249*
X00971862Y0070499*
X01017362*
X01019862Y0070249*
G37*
G36*
X02897591Y00702489D02*
Y00667489D01*
X02895092Y00664989*
X02849591*
X02847091Y00667489*
Y00702489*
X02849591Y00704989*
X02895092*
X02897591Y00702489*
G37*
G36*
X02832091D02*
Y00667489D01*
X02829591Y00664989*
X02784091*
X02781591Y00667489*
Y00702489*
X02784091Y00704989*
X02829591*
X02832091Y00702489*
G37*
G36*
X02457591Y00672491D02*
Y00637491D01*
X02455091Y00634991*
X02409591*
X02407091Y00637491*
Y00672491*
X02409591Y00674991*
X02455091*
X02457591Y00672491*
G37*
G36*
X02392091D02*
Y00637491D01*
X02389591Y00634991*
X02344091*
X02341591Y00637491*
Y00672491*
X02344091Y00674991*
X02389591*
X02392091Y00672491*
G37*
G36*
X03692591Y00637488D02*
Y00602488D01*
X03690091Y00599988*
X03644591*
X03642091Y00602488*
Y00637488*
X03644591Y00639988*
X03690091*
X03692591Y00637488*
G37*
G36*
X03627091D02*
Y00602488D01*
X03624591Y00599988*
X03579091*
X03576591Y00602488*
Y00637488*
X03579091Y00639988*
X03624591*
X03627091Y00637488*
G37*
G36*
X02384591Y00610491D02*
Y00564991D01*
X02382091Y00562491*
X02347091*
X02344591Y00564991*
Y00610491*
X02347091Y00612991*
X02382091*
X02384591Y00610491*
G37*
G36*
X00378623Y00597499D02*
Y00562499D01*
X00376123Y00559999*
X00330623*
X00328123Y00562499*
Y00597499*
X00330623Y00599999*
X00376123*
X00378623Y00597499*
G37*
G36*
X00313123D02*
Y00562499D01*
X00310623Y00559999*
X00265123*
X00262623Y00562499*
Y00597499*
X00265123Y00599999*
X00310623*
X00313123Y00597499*
G37*
G36*
X0111967Y00597492D02*
Y00562492D01*
X0111717Y00559992*
X0107167*
X0106917Y00562492*
Y00597492*
X0107167Y00599992*
X0111717*
X0111967Y00597492*
G37*
G36*
X0105417D02*
Y00562492D01*
X0105167Y00559992*
X0100617*
X0100367Y00562492*
Y00597492*
X0100617Y00599992*
X0105167*
X0105417Y00597492*
G37*
G36*
X04092591Y00597491D02*
Y00562491D01*
X04090091Y00559991*
X04044591*
X04042091Y00562491*
Y00597491*
X04044591Y00599991*
X04090091*
X04092591Y00597491*
G37*
G36*
X04027091D02*
Y00562491D01*
X04024591Y00559991*
X03979091*
X03976591Y00562491*
Y00597491*
X03979091Y00599991*
X04024591*
X04027091Y00597491*
G37*
G36*
X01622591D02*
Y00562491D01*
X01620091Y00559991*
X01574591*
X01572091Y00562491*
Y00597491*
X01574591Y00599991*
X01620091*
X01622591Y00597491*
G37*
G36*
X01557091D02*
Y00562491D01*
X01554591Y00559991*
X01509091*
X01506591Y00562491*
Y00597491*
X01509091Y00599991*
X01554591*
X01557091Y00597491*
G37*
G36*
X02897591Y00597488D02*
Y00562488D01*
X02895092Y00559988*
X02849591*
X02847091Y00562488*
Y00597488*
X02849591Y00599988*
X02895092*
X02897591Y00597488*
G37*
G36*
X02832091D02*
Y00562488D01*
X02829591Y00559988*
X02784091*
X02781591Y00562488*
Y00597488*
X02784091Y00599988*
X02829591*
X02832091Y00597488*
G37*
G36*
X0367759Y00537489D02*
Y00502489D01*
X0367509Y00499989*
X03629589*
X03627089Y00502489*
Y00537489*
X03629589Y00539989*
X0367509*
X0367759Y00537489*
G37*
G36*
X03612089D02*
Y00502489D01*
X03609589Y00499989*
X0356409*
X0356159Y00502489*
Y00537489*
X0356409Y00539989*
X03609589*
X03612089Y00537489*
G37*
G36*
X02384591Y00544991D02*
Y00499491D01*
X02382091Y00496991*
X02347091*
X02344591Y00499491*
Y00544991*
X02347091Y00547491*
X02382091*
X02384591Y00544991*
G37*
G36*
X02334591Y00520491D02*
Y00474991D01*
X02332091Y00472491*
X02297091*
X02294591Y00474991*
Y00520491*
X02297091Y00522991*
X02332091*
X02334591Y00520491*
G37*
G36*
X00347088Y00492499D02*
Y00457499D01*
X00344588Y00454999*
X00299088*
X00296588Y00457499*
Y00492499*
X00299088Y00494999*
X00344588*
X00347088Y00492499*
G37*
G36*
X00281588D02*
Y00457499D01*
X00279088Y00454999*
X00233588*
X00231088Y00457499*
Y00492499*
X00233588Y00494999*
X00279088*
X00281588Y00492499*
G37*
G36*
X04092591Y00492491D02*
Y00457491D01*
X04090091Y00454991*
X04044591*
X04042091Y00457491*
Y00492491*
X04044591Y00494991*
X04090091*
X04092591Y00492491*
G37*
G36*
X04027091D02*
Y00457491D01*
X04024591Y00454991*
X03979091*
X03976591Y00457491*
Y00492491*
X03979091Y00494991*
X04024591*
X04027091Y00492491*
G37*
G36*
X01622591D02*
Y00457491D01*
X01620091Y00454991*
X01574591*
X01572091Y00457491*
Y00492491*
X01574591Y00494991*
X01620091*
X01622591Y00492491*
G37*
G36*
X01557091D02*
Y00457491D01*
X01554591Y00454991*
X01509091*
X01506591Y00457491*
Y00492491*
X01509091Y00494991*
X01554591*
X01557091Y00492491*
G37*
G36*
X01153975D02*
Y00457491D01*
X01151475Y00454991*
X01105975*
X01103475Y00457491*
Y00492491*
X01105975Y00494991*
X01151475*
X01153975Y00492491*
G37*
G36*
X01088475D02*
Y00457491D01*
X01085975Y00454991*
X01040475*
X01037975Y00457491*
Y00492491*
X01040475Y00494991*
X01085975*
X01088475Y00492491*
G37*
G36*
X02897591Y0049249D02*
Y0045749D01*
X02895092Y0045499*
X02849591*
X02847091Y0045749*
Y0049249*
X02849591Y0049499*
X02895092*
X02897591Y0049249*
G37*
G36*
X02832091D02*
Y0045749D01*
X02829591Y0045499*
X02784091*
X02781591Y0045749*
Y0049249*
X02784091Y0049499*
X02829591*
X02832091Y0049249*
G37*
G36*
X0363759Y00447489D02*
Y00412489D01*
X0363509Y00409989*
X0358959*
X0358709Y00412489*
Y00447489*
X0358959Y00449989*
X0363509*
X0363759Y00447489*
G37*
G36*
X0357209D02*
Y00412489D01*
X0356959Y00409989*
X0352409*
X0352159Y00412489*
Y00447489*
X0352409Y00449989*
X0356959*
X0357209Y00447489*
G37*
G36*
X02334591Y00454991D02*
Y00409491D01*
X02332091Y00406991*
X02297091*
X02294591Y00409491*
Y00454991*
X02297091Y00457491*
X02332091*
X02334591Y00454991*
G37*
G36*
X02269591Y00440491D02*
Y00394991D01*
X02267091Y00392491*
X02232091*
X02229591Y00394991*
Y00440491*
X02232091Y00442991*
X02267091*
X02269591Y00440491*
G37*
G36*
X00315553Y00387499D02*
Y00352499D01*
X00313053Y00349999*
X00267553*
X00265053Y00352499*
Y00387499*
X00267553Y00389999*
X00313053*
X00315553Y00387499*
G37*
G36*
X00250053D02*
Y00352499D01*
X00247553Y00349999*
X00202053*
X00199553Y00352499*
Y00387499*
X00202053Y00389999*
X00247553*
X00250053Y00387499*
G37*
G36*
X01188283Y00387492D02*
Y00352492D01*
X01185783Y00349992*
X01140283*
X01137783Y00352492*
Y00387492*
X01140283Y00389992*
X01185783*
X01188283Y00387492*
G37*
G36*
X01122783D02*
Y00352492D01*
X01120283Y00349992*
X01074783*
X01072283Y00352492*
Y00387492*
X01074783Y00389992*
X01120283*
X01122783Y00387492*
G37*
G36*
X04092591Y00387491D02*
Y00352491D01*
X04090091Y00349991*
X04044591*
X04042091Y00352491*
Y00387491*
X04044591Y00389991*
X04090091*
X04092591Y00387491*
G37*
G36*
X04027091D02*
Y00352491D01*
X04024591Y00349991*
X03979091*
X03976591Y00352491*
Y00387491*
X03979091Y00389991*
X04024591*
X04027091Y00387491*
G37*
G36*
X01622591D02*
Y00352491D01*
X01620091Y00349991*
X01574591*
X01572091Y00352491*
Y00387491*
X01574591Y00389991*
X01620091*
X01622591Y00387491*
G37*
G36*
X01557091D02*
Y00352491D01*
X01554591Y00349991*
X01509091*
X01506591Y00352491*
Y00387491*
X01509091Y00389991*
X01554591*
X01557091Y00387491*
G37*
G36*
X02897591Y00387489D02*
Y00352489D01*
X02895092Y00349989*
X02849591*
X02847091Y00352489*
Y00387489*
X02849591Y00389989*
X02895092*
X02897591Y00387489*
G37*
G36*
X02832091D02*
Y00352489D01*
X02829591Y00349989*
X02784091*
X02781591Y00352489*
Y00387489*
X02784091Y00389989*
X02829591*
X02832091Y00387489*
G37*
G36*
X0357759Y00367489D02*
Y00332489D01*
X0357509Y00329989*
X0352959*
X0352709Y00332489*
Y00367489*
X0352959Y00369989*
X0357509*
X0357759Y00367489*
G37*
G36*
X0351209D02*
Y00332489D01*
X0350959Y00329989*
X0346409*
X0346159Y00332489*
Y00367489*
X0346409Y00369989*
X0350959*
X0351209Y00367489*
G37*
G36*
X02189591Y00375491D02*
Y00329991D01*
X02187091Y00327491*
X02152091*
X02149591Y00329991*
Y00375491*
X02152091Y00377991*
X02187091*
X02189591Y00375491*
G37*
G36*
X02269591Y00374991D02*
Y00329491D01*
X02267091Y00326991*
X02232091*
X02229591Y00329491*
Y00374991*
X02232091Y00377491*
X02267091*
X02269591Y00374991*
G37*
G36*
X02094591Y00335491D02*
Y00289991D01*
X02092091Y00287491*
X02057091*
X02054591Y00289991*
Y00335491*
X02057091Y00337991*
X02092091*
X02094591Y00335491*
G37*
G36*
X03359591Y0032549D02*
Y0027999D01*
X03357091Y0027749*
X03322091*
X03319591Y0027999*
Y0032549*
X03322091Y0032799*
X03357091*
X03359591Y0032549*
G37*
G36*
X03492589Y00312491D02*
Y00277491D01*
X03490089Y00274991*
X03444589*
X03442089Y00277491*
Y00312491*
X03444589Y00314991*
X03490089*
X03492589Y00312491*
G37*
G36*
X03427089D02*
Y00277491D01*
X03424589Y00274991*
X03379089*
X03376589Y00277491*
Y00312491*
X03379089Y00314991*
X03424589*
X03427089Y00312491*
G37*
G36*
X04684591Y00320491D02*
Y00274991D01*
X04682091Y00272491*
X04647091*
X04644591Y00274991*
Y00320491*
X04647091Y00322991*
X04682091*
X04684591Y00320491*
G37*
G36*
X04579591D02*
Y00274991D01*
X04577091Y00272491*
X04542091*
X04539591Y00274991*
Y00320491*
X04542091Y00322991*
X04577091*
X04579591Y00320491*
G37*
G36*
X04474591D02*
Y00274991D01*
X04472091Y00272491*
X04437091*
X04434591Y00274991*
Y00320491*
X04437091Y00322991*
X04472091*
X04474591Y00320491*
G37*
G36*
X04369591D02*
Y00274991D01*
X04367091Y00272491*
X04332091*
X04329591Y00274991*
Y00320491*
X04332091Y00322991*
X04367091*
X04369591Y00320491*
G37*
G36*
X04264591D02*
Y00274991D01*
X04262091Y00272491*
X04227091*
X04224591Y00274991*
Y00320491*
X04227091Y00322991*
X04262091*
X04264591Y00320491*
G37*
G36*
X04159591D02*
Y00274991D01*
X04157091Y00272491*
X04122091*
X04119591Y00274991*
Y00320491*
X04122091Y00322991*
X04157091*
X04159591Y00320491*
G37*
G36*
X03259589D02*
Y00274991D01*
X03257089Y00272491*
X03222089*
X03219589Y00274991*
Y00320491*
X03222089Y00322991*
X03257089*
X03259589Y00320491*
G37*
G36*
X03159589D02*
Y00274991D01*
X03157089Y00272491*
X03122089*
X03119589Y00274991*
Y00320491*
X03122089Y00322991*
X03157089*
X03159589Y00320491*
G37*
G36*
X0305959D02*
Y00274991D01*
X0305709Y00272491*
X0302209*
X0301959Y00274991*
Y00320491*
X0302209Y00322991*
X0305709*
X0305959Y00320491*
G37*
G36*
X0295959D02*
Y00274991D01*
X0295709Y00272491*
X0292209*
X0291959Y00274991*
Y00320491*
X0292209Y00322991*
X0295709*
X0295959Y00320491*
G37*
G36*
X01989591D02*
Y00274991D01*
X01987091Y00272491*
X01952091*
X01949591Y00274991*
Y00320491*
X01952091Y00322991*
X01987091*
X01989591Y00320491*
G37*
G36*
X01684591D02*
Y00274991D01*
X01682091Y00272491*
X01647091*
X01644591Y00274991*
Y00320491*
X01647091Y00322991*
X01682091*
X01684591Y00320491*
G37*
G36*
X01884591Y00315491D02*
Y00269991D01*
X01882091Y00267491*
X01847091*
X01844591Y00269991*
Y00315491*
X01847091Y00317991*
X01882091*
X01884591Y00315491*
G37*
G36*
X01784591D02*
Y00269991D01*
X01782091Y00267491*
X01747091*
X01744591Y00269991*
Y00315491*
X01747091Y00317991*
X01782091*
X01784591Y00315491*
G37*
G36*
X02189591Y00309991D02*
Y00264491D01*
X02187091Y00261991*
X02152091*
X02149591Y00264491*
Y00309991*
X02152091Y00312491*
X02187091*
X02189591Y00309991*
G37*
G36*
X04092591Y00282491D02*
Y00247491D01*
X04090091Y00244991*
X04044591*
X04042091Y00247491*
Y00282491*
X04044591Y00284991*
X04090091*
X04092591Y00282491*
G37*
G36*
X04027091D02*
Y00247491D01*
X04024591Y00244991*
X03979091*
X03976591Y00247491*
Y00282491*
X03979091Y00284991*
X04024591*
X04027091Y00282491*
G37*
G36*
X02897591D02*
Y00247491D01*
X02895092Y00244991*
X02849591*
X02847091Y00247491*
Y00282491*
X02849591Y00284991*
X02895092*
X02897591Y00282491*
G37*
G36*
X02832091D02*
Y00247491D01*
X02829591Y00244991*
X02784091*
X02781591Y00247491*
Y00282491*
X02784091Y00284991*
X02829591*
X02832091Y00282491*
G37*
G36*
X01622591D02*
Y00247491D01*
X01620091Y00244991*
X01574591*
X01572091Y00247491*
Y00282491*
X01574591Y00284991*
X01620091*
X01622591Y00282491*
G37*
G36*
X01557091D02*
Y00247491D01*
X01554591Y00244991*
X01509091*
X01506591Y00247491*
Y00282491*
X01509091Y00284991*
X01554591*
X01557091Y00282491*
G37*
G36*
X01222591D02*
Y00247491D01*
X01220091Y00244991*
X01174591*
X01172091Y00247491*
Y00282491*
X01174591Y00284991*
X01220091*
X01222591Y00282491*
G37*
G36*
X01157091D02*
Y00247491D01*
X01154591Y00244991*
X01109091*
X01106591Y00247491*
Y00282491*
X01109091Y00284991*
X01154591*
X01157091Y00282491*
G37*
G36*
X00284025D02*
Y00247491D01*
X00281525Y00244991*
X00236025*
X00233525Y00247491*
Y00282491*
X00236025Y00284991*
X00281525*
X00284025Y00282491*
G37*
G36*
X00218525D02*
Y00247491D01*
X00216025Y00244991*
X00170525*
X00168025Y00247491*
Y00282491*
X00170525Y00284991*
X00216025*
X00218525Y00282491*
G37*
G36*
X02094591Y00269991D02*
Y00224491D01*
X02092091Y00221991*
X02057091*
X02054591Y00224491*
Y00269991*
X02057091Y00272491*
X02092091*
X02094591Y00269991*
G37*
G36*
X03359591Y0025999D02*
Y0021449D01*
X03357091Y0021199*
X03322091*
X03319591Y0021449*
Y0025999*
X03322091Y0026249*
X03357091*
X03359591Y0025999*
G37*
G36*
X04684591Y00254991D02*
Y00209491D01*
X04682091Y00206991*
X04647091*
X04644591Y00209491*
Y00254991*
X04647091Y00257491*
X04682091*
X04684591Y00254991*
G37*
G36*
X04579591D02*
Y00209491D01*
X04577091Y00206991*
X04542091*
X04539591Y00209491*
Y00254991*
X04542091Y00257491*
X04577091*
X04579591Y00254991*
G37*
G36*
X04474591D02*
Y00209491D01*
X04472091Y00206991*
X04437091*
X04434591Y00209491*
Y00254991*
X04437091Y00257491*
X04472091*
X04474591Y00254991*
G37*
G36*
X04369591D02*
Y00209491D01*
X04367091Y00206991*
X04332091*
X04329591Y00209491*
Y00254991*
X04332091Y00257491*
X04367091*
X04369591Y00254991*
G37*
G36*
X04264591D02*
Y00209491D01*
X04262091Y00206991*
X04227091*
X04224591Y00209491*
Y00254991*
X04227091Y00257491*
X04262091*
X04264591Y00254991*
G37*
G36*
X04159591D02*
Y00209491D01*
X04157091Y00206991*
X04122091*
X04119591Y00209491*
Y00254991*
X04122091Y00257491*
X04157091*
X04159591Y00254991*
G37*
G36*
X03259589D02*
Y00209491D01*
X03257089Y00206991*
X03222089*
X03219589Y00209491*
Y00254991*
X03222089Y00257491*
X03257089*
X03259589Y00254991*
G37*
G36*
X03159589D02*
Y00209491D01*
X03157089Y00206991*
X03122089*
X03119589Y00209491*
Y00254991*
X03122089Y00257491*
X03157089*
X03159589Y00254991*
G37*
G36*
X0305959D02*
Y00209491D01*
X0305709Y00206991*
X0302209*
X0301959Y00209491*
Y00254991*
X0302209Y00257491*
X0305709*
X0305959Y00254991*
G37*
G36*
X0295959D02*
Y00209491D01*
X0295709Y00206991*
X0292209*
X0291959Y00209491*
Y00254991*
X0292209Y00257491*
X0295709*
X0295959Y00254991*
G37*
G36*
X01989591D02*
Y00209491D01*
X01987091Y00206991*
X01952091*
X01949591Y00209491*
Y00254991*
X01952091Y00257491*
X01987091*
X01989591Y00254991*
G37*
G36*
X01684591D02*
Y00209491D01*
X01682091Y00206991*
X01647091*
X01644591Y00209491*
Y00254991*
X01647091Y00257491*
X01682091*
X01684591Y00254991*
G37*
G36*
X01884591Y00249991D02*
Y00204491D01*
X01882091Y00201991*
X01847091*
X01844591Y00204491*
Y00249991*
X01847091Y00252491*
X01882091*
X01884591Y00249991*
G37*
G36*
X01784591D02*
Y00204491D01*
X01782091Y00201991*
X01747091*
X01744591Y00204491*
Y00249991*
X01747091Y00252491*
X01782091*
X01784591Y00249991*
G37*
G54D25*
X00312291Y01352949D02*
D01*
D01*
G75*
G03X0030117Y01352444I-00005549J-00000485D01*
G74*G01*
G54D26*
X00309176Y0139429D02*
D01*
D01*
G75*
G03X00308676I-00000249J0D01*
G74*G01*
D01*
G75*
G03X00309176I00000249J0D01*
G74*G01*
G54D27*
X02870643Y00929172D03*
X02889643D03*
X02880143Y00949172D03*
X03092162Y00948738D03*
X03111162D03*
X03101662Y00968738D03*
X03196837Y00948738D03*
X03215837D03*
X03206337Y00968738D03*
X03298769Y00948738D03*
X03317769D03*
X03308269Y00968738D03*
X02870643Y00213741D03*
X02889643D03*
X02880143Y0023374D03*
X03518843Y00284991D03*
X03537843D03*
X03528343Y00304991D03*
X03384537Y0021874D03*
X03403537D03*
X03394037Y0023874D03*
X04602214Y00213741D03*
X04621214D03*
X04611714Y0023374D03*
X04495248Y00213749D03*
X04514248D03*
X04504748Y00233749D03*
X04392248Y00213741D03*
X04411248D03*
X04401748Y00233741D03*
X04287825Y00213741D03*
X04306825D03*
X04297325Y00233741D03*
X04180403Y00213741D03*
X04199403D03*
X04189903Y00233741D03*
X04065639Y00299019D03*
X04084639D03*
X04075139Y00319019D03*
X02870643Y01138706D03*
X02889643D03*
X02880143Y01158706D03*
X02870641Y0154964D03*
X02889641D03*
X02880141Y0156964D03*
X02870641Y01033479D03*
X02889641D03*
X02880141Y01053479D03*
X02932542Y00897473D03*
X02951542D03*
X02942042Y00917473D03*
X02980948Y00213741D03*
X02999948D03*
X02990448Y0023374D03*
X03079573Y00213741D03*
X03098573D03*
X03089073Y0023374D03*
X03180172Y00213741D03*
X03199172D03*
X03189672Y00233741D03*
X03280954Y00213741D03*
X03299954D03*
X03290454Y00233741D03*
X0365064Y00552621D03*
X0366964D03*
X0366014Y00572621D03*
X0360064Y01365141D03*
X0361964D03*
X0361014Y01385141D03*
X0359064Y01262684D03*
X0360964D03*
X03600141Y01282685D03*
X03545639Y0117385D03*
X03564639D03*
X03555139Y0119385D03*
X02870641Y01654917D03*
X02889641D03*
X02880141Y01674917D03*
X01668481Y01429991D03*
X01649481D03*
X01658981Y01409991D03*
X0161425Y01479749D03*
X0159525D03*
X0160475Y01459749D03*
X0159634Y0020944D03*
X0161534D03*
X0160584Y0022944D03*
X02005272Y00213741D03*
X02024273D03*
X02014773Y00233741D03*
X01900005Y00208741D03*
X01919005D03*
X01909505Y00228741D03*
X018007Y0020874D03*
X01819701D03*
X01810201Y00228741D03*
X01701197Y00213741D03*
X01720198D03*
X01710698Y00233741D03*
X02430643Y00688844D03*
X02449643D03*
X02440143Y00708844D03*
X01595641Y01654098D03*
X01614641D03*
X01605141Y01674098D03*
X00579688Y00797264D03*
X00598688D03*
X00589188Y00817264D03*
X00470049Y00667233D03*
X00489049D03*
X00479549Y00687233D03*
X02880141Y01369555D03*
X02889641Y01349555D03*
X02870641D03*
X02880141Y00843439D03*
X02889641Y00823439D03*
X02870641D03*
X02880141Y00527904D03*
X02889641Y00507904D03*
X02870641D03*
X03611242Y0035999D03*
X03620742Y0033999D03*
X03601742D03*
X03675141Y00672259D03*
X03684641Y00652259D03*
X03665641D03*
X03555141Y00945219D03*
X03564641Y00925219D03*
X03545641D03*
X03539134Y01079988D03*
X03548634Y01059988D03*
X03529633D03*
X03475138Y01640421D03*
X03484638Y01620421D03*
X03465638D03*
X02880141Y01469606D03*
X02889641Y01449606D03*
X02870641D03*
X02880141Y0063266D03*
X02889641Y0061266D03*
X02870641D03*
X03615143Y00864548D03*
X03624643Y00844548D03*
X03605643D03*
X03459313Y01009988D03*
X03468813Y00989988D03*
X03449813D03*
X0354514Y01569506D03*
X0355464Y01549506D03*
X0353564D03*
X02946402Y01227056D03*
X02955902Y01207056D03*
X02936902D03*
X02880141Y00738304D03*
X02889641Y00718304D03*
X02870641D03*
X02950843Y00407913D03*
X02960344Y00387913D03*
X02941343D03*
X03671441Y00439989D03*
X03680941Y00419989D03*
X03661941D03*
X03660142Y00773051D03*
X03669641Y00753051D03*
X03650641D03*
X03527127Y01009988D03*
X03536627Y00989988D03*
X03517627D03*
X03595138Y01486562D03*
X03604639Y01466561D03*
X03585639D03*
X04075139Y00423797D03*
X04084639Y00403797D03*
X04065639D03*
X04075142Y00738487D03*
X04084643Y00718487D03*
X04065643D03*
X04075139Y01052333D03*
X04084639Y01032333D03*
X04065639D03*
X04075141Y01367258D03*
X04084641Y01347258D03*
X04065641D03*
X04075142Y01674358D03*
X04084643Y01654358D03*
X04065643D03*
X04716777Y0023374D03*
X04726276Y00213741D03*
X04707277D03*
X04075139Y0063429D03*
X04084639Y0061429D03*
X04065639D03*
X04075139Y00948607D03*
X04084639Y00928607D03*
X04065639D03*
X04075139Y01261611D03*
X04084639Y01241611D03*
X04065639D03*
X04076811Y01573729D03*
X0408631Y01553729D03*
X0406731D03*
X04075139Y00528865D03*
X04084639Y00508865D03*
X04065639D03*
X04075139Y00843701D03*
X04084639Y00823701D03*
X04065639D03*
X04075139Y01157976D03*
X04084639Y01137976D03*
X04065639D03*
X04076811Y01472869D03*
X0408631Y01452869D03*
X0406731D03*
X01170833Y00406043D03*
X01161332Y00426043D03*
X01180332D03*
X01102222Y0061564D03*
X01092722Y0063564D03*
X01111722D03*
X00964991Y0103527D03*
X00955491Y0105527D03*
X00974491D03*
X00862073Y01352749D03*
X00852573Y01372749D03*
X00871573D03*
X00769204Y01644749D03*
X00778704Y01624749D03*
X00759704D03*
X00886127Y00817263D03*
X00895627Y00797263D03*
X00876627D03*
X00248537Y00511249D03*
X00239037Y00531249D03*
X00258037D03*
X00406201Y01038749D03*
X00396701Y01058749D03*
X00415701D03*
X00500701Y01352749D03*
X00491201Y01372749D03*
X00510201D03*
X00585998Y01644749D03*
X00595498Y01624749D03*
X00576498D03*
X01205142Y00298919D03*
X01195642Y00318919D03*
X01214642D03*
X01136524Y00511487D03*
X01127024Y00531487D03*
X01146024D03*
X00999299Y00931685D03*
X00989799Y00951685D03*
X01008799D03*
X00896381Y01247004D03*
X00886881Y01267004D03*
X00905881D03*
X00793458Y01581499D03*
X00802958Y01561499D03*
X00783958D03*
X00898445Y00657338D03*
X00888945Y00677338D03*
X00907945D03*
X00638996Y00847275D03*
X00648495Y00827275D03*
X00629495D03*
X00217003Y00406999D03*
X00207503Y00426999D03*
X00226503D03*
X00311608Y00719989D03*
X00302109Y00739989D03*
X00321109D03*
X00374701Y00933749D03*
X00365201Y00953749D03*
X00384201D03*
X00469048Y01247499D03*
X00459548Y01267499D03*
X00478548D03*
X00564151Y01581499D03*
X00573651Y01561499D03*
X00554651D03*
X01033606Y00824695D03*
X01024106Y00844695D03*
X01043106D03*
X00930689Y01140284D03*
X00921189Y01160284D03*
X00940189D03*
X00827764Y01474413D03*
X00837264Y01454413D03*
X00818264D03*
X01067176Y00721496D03*
X01057676Y00741496D03*
X01076676D03*
X00738995Y00847275D03*
X00748495Y00827275D03*
X00729495D03*
X00185475Y00302999D03*
X00175975Y00322999D03*
X00194975D03*
X00280074Y00615749D03*
X00270573Y00635749D03*
X00289574D03*
X00343189Y00828999D03*
X00333689Y00848999D03*
X00352689D03*
X00438012Y01142499D03*
X00428512Y01162499D03*
X00447512D03*
X00532359Y01475999D03*
X00541859Y01455999D03*
X00522859D03*
X01605841Y01368541D03*
X01615342Y01348541D03*
X01596341D03*
X01605841Y01053774D03*
X01615342Y01033774D03*
X01596341D03*
X01605841Y00738545D03*
X01615342Y00718545D03*
X01596341D03*
X0160584Y00424704D03*
X0161534Y00404704D03*
X0159634D03*
X02120622Y00248741D03*
X02130122Y00228741D03*
X02111122D03*
X0236459Y00433741D03*
X0237409Y00413741D03*
X0235509D03*
X02460141Y00809007D03*
X02469642Y00789007D03*
X02450641D03*
X02475142Y01124696D03*
X02484642Y01104696D03*
X02465642D03*
X01605841Y01159081D03*
X01615342Y01139081D03*
X01596341D03*
X01605841Y00844265D03*
X01615342Y00824265D03*
X01596341D03*
X0160584Y00528596D03*
X0161534Y00508596D03*
X0159634D03*
X02299142Y00353741D03*
X02308642Y00333741D03*
X02289642D03*
X02480143Y01019559D03*
X02489643Y00999559D03*
X02470643D03*
X02440142Y01327709D03*
X02449642Y01307709D03*
X02430642D03*
X01605841Y01263551D03*
X01615342Y01243551D03*
X01596341D03*
X01605841Y00948919D03*
X01615342Y00928919D03*
X01596341D03*
X01669038Y00585383D03*
X01678538Y00565383D03*
X01659538D03*
X02220291Y00288741D03*
X02229791Y00268741D03*
X02210791D03*
X02417585Y00594505D03*
X02427085Y00574505D03*
X02408085D03*
X02475142Y00914211D03*
X02484642Y00894211D03*
X02465642D03*
X0246014Y01226974D03*
X0246964Y01206973D03*
X0245064D03*
G54D28*
X03259591Y00874986D03*
Y00904987D03*
X0467334Y0039566D03*
Y0036566D03*
X03039499Y00370249D03*
Y00400249D03*
X0333959Y00369833D03*
Y00399833D03*
Y01524889D03*
Y01494888D03*
X03090749Y01574749D03*
Y01544749D03*
X04736499Y00365749D03*
Y00395749D03*
X04454591Y0036566D03*
Y0039566D03*
X01059749Y00282999D03*
Y00252999D03*
X00991669Y00489275D03*
Y00459275D03*
X01012715Y00252991D03*
Y00282991D03*
X00944915Y00459266D03*
Y00489266D03*
X00944995Y0064064D03*
Y0061064D03*
X00738996Y0064064D03*
Y0061064D03*
X0167334Y00363031D03*
Y00393031D03*
X01835549Y00357923D03*
Y00387923D03*
X02142612Y00417717D03*
Y00447718D03*
X02064591Y01502548D03*
Y01472548D03*
X01820743Y01542131D03*
Y01512131D03*
G54D29*
X04019591Y00264991D03*
X04049591D03*
X03529589Y00889987D03*
X03499589D03*
X03634589Y00719987D03*
X03604589D03*
X03449589Y00944988D03*
X03419589D03*
X00274088Y00474999D03*
X00304088D03*
X00242553Y00369999D03*
X00272553D03*
X00211025Y00264991D03*
X00241025D03*
X00305623Y00579999D03*
X00335623D03*
X00337158Y00684999D03*
X00367158D03*
X00453999Y00729989D03*
X00423999D03*
X00368996Y00789991D03*
X00398996D03*
X00400249Y00895006D03*
X00430249D03*
X00431749Y00999971D03*
X00461749D03*
X00493303Y01104992D03*
X00463303D03*
X00524837Y0120999D03*
X00494837D03*
X00556249Y01314869D03*
X00526249D03*
X00557908Y01419993D03*
X00587908D03*
X00589442Y01524991D03*
X00619442D03*
X02854591Y01314986D03*
X02824591D03*
X02854591Y00999989D03*
X02824591D03*
X02854591Y0078999D03*
X02824591D03*
X02854591Y0047499D03*
X02824591D03*
X0350459Y00349989D03*
X0353459D03*
X03619591Y00619988D03*
X03649591D03*
X03429589Y01069988D03*
X03459589D03*
X0355459Y01329987D03*
X0358459D03*
X03419589Y01584987D03*
X03449589D03*
X02854591Y01619985D03*
X02824591D03*
X02854591Y01419987D03*
X02824591D03*
X02854591Y01104987D03*
X02824591D03*
X02854591Y00894988D03*
X02824591D03*
X02854591Y00579988D03*
X02824591D03*
X02854591Y00264991D03*
X02824591D03*
X03419589Y00294991D03*
X03449589D03*
X03604589Y00519989D03*
X03634589D03*
X03559591Y00809987D03*
X03589591D03*
X03349589Y00999989D03*
X03379589D03*
X0354459Y01229987D03*
X0357459D03*
X03489589Y01514987D03*
X03519589D03*
X02854591Y01519986D03*
X02824591D03*
X02854591Y01209987D03*
X02824591D03*
X02854591Y00684989D03*
X02824591D03*
X02854591Y00369989D03*
X02824591D03*
X0356459Y00429989D03*
X0359459D03*
X03499589Y01139988D03*
X03529589D03*
X03539589Y01429986D03*
X03569589D03*
X04049591Y00369991D03*
X04019591D03*
X04049591Y00684991D03*
X04019591D03*
X04049591Y00999991D03*
X04019591D03*
X04049591Y01314991D03*
X04019591D03*
X04049591Y01619991D03*
X04019591D03*
X04049591Y00579991D03*
X04019591D03*
X04049591Y00894991D03*
X04019591D03*
X04049591Y01209991D03*
X04019591D03*
X04049591Y01519991D03*
X04019591D03*
X04049591Y00474991D03*
X04019591D03*
X04049591Y00789991D03*
X04019591D03*
X04049591Y01104991D03*
X04019591D03*
X04049591Y01419991D03*
X04019591D03*
X01115283Y00369992D03*
X01145283D03*
X0104667Y00579992D03*
X0107667D03*
X00909442Y00999991D03*
X00939442D03*
X00806521Y01314992D03*
X00836521D03*
X01149591Y00264991D03*
X01179591D03*
X01080975Y00474991D03*
X01110975D03*
X00943749Y00894992D03*
X00973749D03*
X00840828Y0120999D03*
X00870829D03*
X00767908Y01524991D03*
X00737908D03*
X00953996Y00729991D03*
X00923996D03*
X00978054Y00789991D03*
X01008055D03*
X00875136Y01104992D03*
X00905136D03*
X00802213Y01419993D03*
X00772213D03*
X01012362Y0068499D03*
X01042362D03*
X01579591Y01314991D03*
X01549591D03*
X01579591Y00999991D03*
X01549591D03*
X01579591Y00684991D03*
X01549591D03*
X01579591Y00369991D03*
X01549591D03*
X02404591Y00754991D03*
X02434591D03*
X02419591Y01069991D03*
X02449591D03*
X01579591Y01619991D03*
X01549591D03*
X01579591Y01419991D03*
X01549591D03*
X01579591Y01104991D03*
X01549591D03*
X01579591Y00789991D03*
X01549591D03*
X01579591Y00474991D03*
X01549591D03*
X02384591Y00654991D03*
X02414591D03*
X02424591Y00964991D03*
X02454591D03*
X02384591Y01269991D03*
X02414591D03*
X01579112Y0152003D03*
X01549112D03*
X01579591Y01209991D03*
X01549591D03*
X01579591Y00894991D03*
X01549591D03*
X01579591Y00579991D03*
X01549591D03*
X01579591Y00264991D03*
X01549591D03*
X02419591Y00859991D03*
X02449591D03*
X02404591Y01169991D03*
X02434591D03*
G54D30*
X02971395Y00361239D03*
X02941395D03*
X02990999Y01177999D03*
X02960999D03*
X0297175Y01519986D03*
X0294175D03*
X03388499Y00875499D03*
X03418499D03*
X02982204Y00858591D03*
X02952204D03*
X02259063Y00544761D03*
X02289063D03*
X02952204Y00684989D03*
X02982204D03*
X03480938Y00429989D03*
X03450938D03*
X03520887Y00719987D03*
X03490887D03*
X03417452Y01139988D03*
X03387452D03*
X03457356Y01429986D03*
X03427356D03*
X04137499Y00373404D03*
X04167499D03*
X04137499Y00474999D03*
X04167499D03*
X04137499Y00789999D03*
X04167499D03*
X04137499Y01104999D03*
X04167499D03*
X04137367Y01419991D03*
X04167367D03*
X00870137Y00863668D03*
X00840137D03*
X00791425Y01104992D03*
X00761425D03*
X00752372Y01362749D03*
X00722372D03*
X00315499Y00264991D03*
X00345499D03*
X00411749Y00579999D03*
X00441749D03*
X00478499Y00833499D03*
X00508499D03*
X00578999Y01105249D03*
X00608999D03*
X00605249Y01362749D03*
X00635249D03*
X01646591Y015132D03*
X01676591D03*
X01670249Y01209999D03*
X01700249D03*
X0166988Y00894991D03*
X01699881D03*
X01659589Y00524096D03*
X01689589D03*
X02337732Y00859991D03*
X02307732D03*
X02322898Y01169991D03*
X02292898D03*
X02257591Y01414358D03*
X02227591D03*
G54D31*
X02364591Y00569991D03*
Y00539991D03*
X0304959Y00984989D03*
Y01014989D03*
X0293959Y00249991D03*
Y00279991D03*
X03239589D03*
Y00249991D03*
X03139589Y01609987D03*
Y01639987D03*
X03154591Y00984989D03*
Y01014989D03*
X03139589Y00249991D03*
Y00279991D03*
X03239589Y01609987D03*
Y01639987D03*
X0293959Y01609987D03*
Y01639987D03*
X03259591Y00984989D03*
Y01014989D03*
X02944592D03*
Y00984989D03*
X0303959Y00249991D03*
Y00279991D03*
X03339592Y0025499D03*
Y0028499D03*
Y01599987D03*
Y01629987D03*
X0303959Y01609987D03*
Y01639987D03*
X04559591Y00279991D03*
Y00249991D03*
X04244591Y00279991D03*
Y00249991D03*
X04664591D03*
Y00279991D03*
X04349591Y00249991D03*
Y00279991D03*
X04454591Y00249991D03*
Y00279991D03*
X04139591Y00249991D03*
Y00279991D03*
X00716967Y01619991D03*
Y01649991D03*
X00838996Y00714991D03*
Y00744991D03*
X00538997Y00714991D03*
Y00744991D03*
X00637477Y01619991D03*
Y01649991D03*
X00638996Y00714991D03*
Y00744991D03*
X00738996Y00714991D03*
Y00744991D03*
X01764591Y00244991D03*
Y00274991D03*
X02074591Y00264991D03*
Y00294991D03*
X02314591Y00449991D03*
Y00479991D03*
X02359591Y01344991D03*
Y01374991D03*
X02159591Y01559991D03*
Y01589991D03*
X01864591Y01604991D03*
Y01634991D03*
X01664591Y00249991D03*
Y00279991D03*
X01969591Y00249991D03*
Y00279991D03*
X02249591Y00369991D03*
Y00399991D03*
X02239591Y01499991D03*
Y01529991D03*
X01964591Y01599991D03*
Y01629991D03*
X01664591Y01604991D03*
Y01634991D03*
X01864591Y00244991D03*
Y00274991D03*
X02169591Y00304991D03*
Y00334991D03*
X02309591Y01429991D03*
Y01459992D03*
X02064591Y01589991D03*
Y01619991D03*
X01764591Y01604991D03*
Y01634991D03*
G54D32*
X03179749Y01701748D03*
X03199749Y01711248D03*
Y01692248D03*
X03279315Y01691184D03*
X03299315Y01700684D03*
Y01681684D03*
X02978526Y01701753D03*
X02998526Y01711253D03*
Y01692253D03*
X03376338Y01685369D03*
X03396338Y01694869D03*
Y01675869D03*
X03075582Y01701753D03*
X03095582Y01711253D03*
Y01692253D03*
X02393017Y01429146D03*
X02413017Y01438646D03*
Y01419646D03*
X02194457Y01645541D03*
X02214457Y01655042D03*
Y01636041D03*
X01906639Y01696498D03*
X01926639Y01705998D03*
Y01686998D03*
X02275918Y01584878D03*
X02295918Y01594378D03*
Y01575378D03*
X02006017Y01686947D03*
X02026017Y01696447D03*
Y01677447D03*
X01704249Y01696498D03*
X01724249Y01705998D03*
Y01686998D03*
X02344758Y01516071D03*
X02364758Y01525571D03*
Y01506571D03*
X02102625Y01676002D03*
X02122625Y01685501D03*
Y01666502D03*
X01800764Y01696498D03*
X01820764Y01705998D03*
Y01686998D03*
G54D33*
X04503999Y00054749D03*
X00136499Y00067999D03*
X00250999Y01780749D03*
G54D34*
X00426699Y01510199D03*
Y01497499D03*
Y01522899D03*
Y01535599D03*
G54D35*
X00308826Y0140458D02*
X00322666Y014018D01*
X00298436Y0138769D02*
X00322586Y013823D01*
X00298296Y0136127D02*
X00322516Y013666D01*
X00310036Y0140082D02*
Y0140434D01*
X00309896Y0138053D02*
Y0138514D01*
X00310636Y0138041D02*
Y0138497D01*
X00304816Y01401751D02*
Y0141037D01*
X00302576Y0140214D02*
Y0141037D01*
X00301826Y0140228D02*
Y0141037D01*
X00301076Y0140241D02*
Y0141037D01*
X00300336Y0140254D02*
Y0141037D01*
X00299586Y0140268D02*
Y0141037D01*
X00298836Y0140281D02*
Y0141037D01*
X00298446Y0140288D02*
Y0141037D01*
X00304066Y0140188D02*
Y0141037D01*
X00303316Y0140201D02*
Y0141037D01*
X00307796Y0140121D02*
Y0141037D01*
X00307056Y0140135D02*
Y0141037D01*
X00306306Y0140148D02*
Y0141037D01*
X00305556Y0140161D02*
Y0141037D01*
X00309296Y0140095D02*
Y0140449D01*
X00308546Y0140108D02*
Y0140479D01*
X00305416Y0138125D02*
Y0138614D01*
X00304666Y0138137D02*
Y013863D01*
X00305416Y0136284D02*
Y01367761D01*
X00304666Y0136267D02*
Y0136764D01*
X00303176Y0138161D02*
Y0138664D01*
X00302426Y01381731D02*
Y013868D01*
X00301676Y0138185D02*
Y0138697D01*
X00300936Y0138197D02*
Y0138714D01*
X00300186Y0138209D02*
Y013873D01*
X00299436Y0138221D02*
Y0138747D01*
X00298696Y0138233D02*
Y0138764D01*
X00298376Y0138239D02*
X00298436Y0138769D01*
X00303916Y0138149D02*
Y0138647D01*
X00309146Y0138065D02*
Y013853D01*
X00308396Y0138077D02*
Y0138547D01*
X00307656Y0138089D02*
Y0138564D01*
X00306906Y0138101D02*
Y013858D01*
X00306156Y0138113D02*
Y0138597D01*
X00300186Y0136169D02*
Y0136694D01*
X00299436Y0136152D02*
Y0136682D01*
X00298696Y0136136D02*
Y013667D01*
X00298296Y0136127D02*
Y0136664D01*
X00303176Y0136234D02*
Y0136741D01*
X00302426Y01362181D02*
Y0136729D01*
X00301676Y0136202D02*
Y0136717D01*
X00300936Y0136185D02*
Y0136706D01*
X00303916Y0136251D02*
Y0136753D01*
X00309146Y0136366D02*
Y0136835D01*
X00308396Y0136349D02*
Y0136823D01*
X00307656Y0136333D02*
Y0136812D01*
X00306906Y0136317D02*
Y01368D01*
X00306156Y01363D02*
Y0136788D01*
X00310786Y0140068D02*
Y0140419D01*
X00313776Y013963D02*
Y0140359D01*
X00313026Y0139615D02*
Y0140374D01*
X00314516Y0139646D02*
Y0140344D01*
X00312276Y0140031D02*
Y0140389D01*
X00311536Y0140055D02*
Y0140404D01*
X00315866Y0137594D02*
Y013838D01*
X00315116Y0137583D02*
Y01383971D01*
X00313626Y0137561D02*
Y013843D01*
X00314376Y0137572D02*
Y0138414D01*
X00316616Y0137604D02*
Y0138364D01*
X00317366Y0137615D02*
Y0138347D01*
X00318856Y0137637D02*
Y0138314D01*
X00318106Y0137626D02*
Y013833D01*
X00312876Y0137995D02*
Y0138447D01*
X00312136Y0138017D02*
Y0138464D01*
X00311386Y0138029D02*
Y013848D01*
X00298446Y0141037D02*
X00322736D01*
X00308926Y0140558D02*
X00322666D01*
X00298446Y013895D02*
X00322666D01*
X00308826Y0139528D02*
X00322666Y0139813D01*
X00308926Y0139429D02*
X00322666Y0139435D01*
X00309236Y0137399D02*
X00322586Y0137206D01*
X00309236Y01374981D02*
X00322586Y0137691D01*
X00310036Y0140558D02*
Y0141037D01*
X00298446Y01397D02*
X00312046Y0139947D01*
X00298446Y0140288D02*
X00312046Y0140046D01*
X00310036Y0139553D02*
Y0139911D01*
Y013895D02*
Y013943D01*
X00298366Y0137692D02*
X00312636Y013791D01*
X00309896Y0137507D02*
Y0137868D01*
X00310636Y0137518D02*
Y01378791D01*
X00298376Y0138239D02*
X00312636Y0138009D01*
X00298296Y0136664D02*
X00312486Y0136888D01*
X00298366Y0137211D02*
X00312486Y0136987D01*
X00309896Y0137028D02*
Y0137389D01*
X00310636Y0137016D02*
Y0137378D01*
X00309896Y0136382D02*
Y0136847D01*
X00310636Y0136399D02*
Y0136859D01*
X00309296Y0140558D02*
Y0141037D01*
X00308546Y0140536D02*
Y0141037D01*
X00308626Y0140548D02*
X00308926Y0140558D01*
X00308446Y0140522D02*
X00308626Y0140548D01*
X00308446Y0140522D02*
X00308456Y014049D01*
X00308656Y0140466*
X00308826Y0140458*
X00310786Y0140558D02*
Y0141037D01*
X00316016Y0140558D02*
Y0141037D01*
X00315266Y0140558D02*
Y0141037D01*
X00313776Y0140558D02*
Y0141037D01*
X00313026Y0140558D02*
Y0141037D01*
X00312276Y0140558D02*
Y0141037D01*
X00311536Y0140558D02*
Y0141037D01*
X00314516Y0140558D02*
Y0141037D01*
X00322666Y0140558D02*
X00322736Y0141037D01*
X00316756Y0140558D02*
Y0141037D01*
X00321986Y0140558D02*
Y0141037D01*
X00321236Y0140558D02*
Y0141037D01*
X00320496Y0140558D02*
Y0141037D01*
X00319746Y0140558D02*
Y0141037D01*
X00318996Y0140558D02*
Y0141037D01*
X00318256Y0140558D02*
Y0141037D01*
X00317506Y0140558D02*
Y0141037D01*
X00304816Y013895D02*
Y0139816D01*
X00302576Y013895D02*
Y0139775D01*
X00301826Y013895D02*
Y0139761D01*
X00301076Y013895D02*
Y0139748D01*
X00300336Y013895D02*
Y0139734D01*
X00299586Y013895D02*
Y013972D01*
X00298836Y013895D02*
Y01397071D01*
X00298446Y013895D02*
Y01397D01*
X00304066Y013895D02*
Y0139802D01*
X00303316Y013895D02*
Y0139788D01*
X00309296Y0139538D02*
Y0139897D01*
X00308546Y0139511D02*
Y0139884D01*
X00307796Y013895D02*
Y013987D01*
X00307056Y013895D02*
Y0139856D01*
X00306306Y013895D02*
Y0139843D01*
X00305556Y013895D02*
Y0139829D01*
X00309296Y013895D02*
Y013943D01*
X00308546Y013895D02*
Y013945D01*
X00308556Y0139513D02*
X00308826Y0139528D01*
X00308426Y01394841D02*
X00308556Y0139513D01*
X00308426Y01394841D02*
X00308506Y01394531D01*
X00308746Y01394331*
X00308926Y0139429*
X00315266Y0139661D02*
Y0140329D01*
X00310786Y0139569D02*
Y0139924D01*
Y013895D02*
Y013943D01*
X00316016Y0139676D02*
Y0140314D01*
Y013895D02*
Y01394331D01*
X00315266Y013895D02*
Y0139432D01*
X00312276Y0139599D02*
Y013996D01*
X00311536Y0139584D02*
Y0139938D01*
X00312046Y0139947D02*
X00312316Y0139962D01*
X00312456Y0139991*
X00312386Y0140022D02*
X00312456Y0139991D01*
X00312146Y0140043D02*
X00312386Y0140022D01*
X00312046Y0140046D02*
X00312146Y0140043D01*
X00313776Y013895D02*
Y0139432D01*
X00313026Y013895D02*
Y0139431D01*
X00312276Y013895D02*
Y0139431D01*
X00311536Y013895D02*
Y0139431D01*
X00314516Y013895D02*
Y0139432D01*
X00316756Y0139692D02*
Y0140299D01*
X00322666Y0139813D02*
Y014018D01*
Y013895D02*
Y0139435D01*
X00321986Y0139799D02*
Y0140194D01*
X00321236Y0139784D02*
Y0140209D01*
X00320496Y0139768D02*
Y0140224D01*
X00319746Y0139753D02*
Y0140239D01*
X00318996Y01397381D02*
Y0140254D01*
X00318256Y0139722D02*
Y0140269D01*
X00317506Y01397071D02*
Y0140284D01*
X00316756Y013895D02*
Y01394331D01*
X00321986Y013895D02*
Y0139435D01*
X00321236Y013895D02*
Y0139435D01*
X00320496Y013895D02*
Y0139435D01*
X00319746Y013895D02*
Y0139434D01*
X00318996Y013895D02*
Y0139434D01*
X00318256Y013895D02*
Y0139434D01*
X00317506Y013895D02*
Y01394331D01*
X00308396Y0137051D02*
Y0137845D01*
X00307656Y0137063D02*
Y0137834D01*
X00306906Y0137075D02*
Y0137822D01*
X00309146Y0137493D02*
Y0137856D01*
X00305416Y0137099D02*
Y0137799D01*
X00304666Y0137111D02*
Y0137788D01*
X00303176Y0137134D02*
Y0137765D01*
X00302426Y0137146D02*
Y0137754D01*
X00301676Y0137158D02*
Y01377421D01*
X00303916Y0137122D02*
Y0137777D01*
X00300936Y013717D02*
Y0137731D01*
X00300186Y0137182D02*
Y0137719D01*
X00299436Y0137194D02*
Y0137708D01*
X00298696Y0137205D02*
Y0137697D01*
X00298366Y0137211D02*
Y0137692D01*
X00309146Y013704D02*
Y01374011D01*
X00306156Y0137087D02*
Y0137811D01*
X00308806Y0137448D02*
X00308906Y0137418D01*
X00309166Y01374*
X00309236Y0137399*
X00308956Y0137484D02*
X00309236Y01374981D01*
X00308806Y0137455D02*
X00308956Y0137484D01*
X00308806Y0137448D02*
Y0137455D01*
X00312876Y013755D02*
Y0137922D01*
X00312136Y013754D02*
Y0137902D01*
X00311386Y0137529D02*
Y0137891D01*
X00312636Y013791D02*
X00312916Y0137924D01*
X00322586Y0137691D02*
Y013823D01*
X00321096Y0137669D02*
Y0138264D01*
X00320346Y0137658D02*
Y01382801D01*
X00319606Y0137648D02*
Y0138297D01*
X00321846Y013768D02*
Y0138247D01*
X00312916Y0137924D02*
X00313056Y0137952D01*
Y0137959*
X00312956Y0137989D02*
X00313056Y0137959D01*
X00312706Y0138007D02*
X00312956Y0137989D01*
X00312636Y0138009D02*
X00312706Y0138007D01*
X00313626Y0136464D02*
Y0137335D01*
X00314376Y0136481D02*
Y0137324D01*
X00312876Y0136946D02*
Y0137346D01*
X00312136Y0136992D02*
Y0137357D01*
X00311386Y0137004D02*
Y0137367D01*
X00315866Y0136514D02*
Y0137303D01*
X00315116Y0136497D02*
Y0137313D01*
X00312876Y0136448D02*
Y0136925D01*
X00312136Y0136431D02*
Y0136882D01*
X00311386Y0136415D02*
Y013687D01*
X00316616Y013653D02*
Y0137292D01*
X00321846Y0136645D02*
Y0137216D01*
X00321096Y0136628D02*
Y0137227D01*
X00320346Y0136612D02*
Y0137238D01*
X00319606Y0136596D02*
Y0137249D01*
X00318856Y0136579D02*
Y0137259D01*
X00318106Y01365631D02*
Y013727D01*
X00317366Y0136546D02*
Y0137281D01*
X00322516Y013666D02*
X00322586Y0137206D01*
X00312486Y0136888D02*
X00312766Y0136902D01*
X00312906Y013693*
Y0136937*
X00312806Y0136967D02*
X00312906Y0136937D01*
X00312556Y0136985D02*
X00312806Y0136967D01*
X00312486Y0136987D02*
X00312556Y0136985D01*
G54D36*
X00944995Y00489266D02*
Y0061064D01*
X03449287Y00719987D02*
X03450938Y00718336D01*
X03388499Y00720728D02*
X03389239Y00719987D01*
X03388499Y00720728D02*
Y00875499D01*
X02923324Y00457352D02*
X02971395Y00409281D01*
Y00361239D02*
Y00409281D01*
X02957436Y00491464D02*
X03039499Y00409401D01*
Y00400249D02*
Y00409401D01*
X03013982Y00874265D02*
X03014704Y00874986D01*
X03259591*
X03012944Y00684989D02*
X03013982Y0068395D01*
X02982204Y00684989D02*
X03012944D01*
X03013619Y00858591D02*
X03013982Y00858228D01*
X02982204Y00858591D02*
X03013619D01*
X03090749Y0143299D02*
X03093753Y01429986D01*
X03427356*
X03090749Y01496342D02*
X03092204Y01494888D01*
X0333959*
X03013946Y01177999D02*
X03013982Y01178036D01*
X02990999Y01177999D02*
X03013946D01*
X03089894Y01519986D02*
X03090749Y01519131D01*
X0297175Y01519986D02*
X03089894D01*
X04167499Y00474999D02*
D01*
Y00373404D02*
Y00474999D01*
X0467334Y0041168D02*
X04722084Y00460424D01*
X0467334Y0039566D02*
Y0041168D01*
X0423371Y00789999D02*
X0431311Y00869399D01*
X04167499Y00789999D02*
X0423371D01*
X04232065Y01104999D02*
X0423263Y01104435D01*
X04167499Y01104999D02*
X04232065D01*
X03274791Y00198094D02*
X03280954Y00204257D01*
X03220025Y00198094D02*
X03274791D01*
X03211106Y00207013D02*
X03220025Y00198094D01*
X03280954Y00204257D02*
Y00213741D01*
X04207158Y00202195D02*
X04212258Y00207295D01*
X04183696Y00202195D02*
X04207158D01*
X04180403Y00205487D02*
X04183696Y00202195D01*
X04313976Y00202458D02*
X0431997Y00208453D01*
X04291281Y00202458D02*
X04313976D01*
X04287825Y00205915D02*
X04291281Y00202458D01*
X04418399D02*
X04424394Y00208453D01*
X04395705Y00202458D02*
X04418399D01*
X04392248Y00205915D02*
X04395705Y00202458D01*
X0452249Y00201158D02*
X04528047Y00206715D01*
X0450046Y00201158D02*
X0452249D01*
X04495248Y0020637D02*
X0450046Y00201158D01*
X04628365Y00202458D02*
X04634359Y00208452D01*
X04605671Y00202458D02*
X04628365D01*
X04602214Y00205915D02*
X04605671Y00202458D01*
X04733624Y00202659D02*
X04737265Y00206301D01*
X04712035Y00202659D02*
X04733624D01*
X04707277Y00207418D02*
X04712035Y00202659D01*
X00352223Y009594D02*
X00359629Y00966806D01*
X00352223Y00939266D02*
Y009594D01*
X0044657Y01253016D02*
X00452087Y01247499D01*
X0044657Y01253016D02*
Y0127315D01*
X00453976Y01280556*
X02952204Y00858591D02*
Y00883599D01*
X02950116Y00885687D02*
X02960817D01*
X02935656D02*
X02950116D01*
X02960248Y01011531D02*
X02968334D01*
X0297325Y01006616*
Y00898119D02*
Y01006616D01*
X02960817Y00885687D02*
X0297325Y00898119D01*
X02932542Y00888801D02*
X02935656Y00885687D01*
X02932542Y00888801D02*
Y00897473D01*
X02940258Y00955034D02*
X02942042Y0095325D01*
Y00917473D02*
Y0095325D01*
X0305031Y01612245D02*
X03075095D01*
X02760356Y00789895D02*
X02786959D01*
X02760356Y00997559D02*
X02786062D01*
X02786959Y00996662*
X02760356Y01316904D02*
X02788753D01*
X02789201Y01316456*
X02760356Y01619654D02*
X02760805Y01620102D01*
X02786062*
X03312072Y00189094D02*
Y00222501D01*
X03300832Y00233741D02*
X03312072Y00222501D01*
X03290454Y00233741D02*
X03300832D01*
X03189672D02*
X032045D01*
X03211106Y00227135*
Y00207013D02*
Y00227135D01*
X03235911Y0023103D02*
X03238622Y00233741D01*
X03290454*
X03139589Y00279991D02*
X03239589D01*
X02879485Y01751033D02*
X02880141Y01750377D01*
Y01674917D02*
Y01750377D01*
X03179749Y01749845D02*
X03180937Y01751033D01*
X03179749Y01701748D02*
Y01749845D01*
X03475138Y01649948D02*
X03494853Y01669662D01*
X03475138Y01640421D02*
Y01649948D01*
X0382878Y0131516D02*
X03829731Y01314208D01*
X03620913Y0131516D02*
X0382878D01*
X03620838Y00874546D02*
X03829731D01*
X03620835Y00874548D02*
X03620838Y00874546D01*
X03566717Y00874548D02*
X03620835D01*
X03565799Y0087363D02*
X03566717Y00874548D01*
X03828815Y00604842D02*
X03829731Y00603926D01*
X03688059Y00604842D02*
X03828815D01*
X03828482Y0035999D02*
X03829731Y00361239D01*
X03611242Y0035999D02*
X03828482D01*
X03829731Y01314208D02*
X03830619Y01313321D01*
X03981525*
X03829731Y01001108D02*
X03830619Y01000221D01*
X03980639*
X03829731Y00684904D02*
X03831505Y0068313D01*
X03980639*
X03896745Y00281258D02*
X03971768Y00356282D01*
X03981525*
X03571306Y01533309D02*
Y01560695D01*
X03562496Y01569506D02*
X03571306Y01560695D01*
X0354514Y01569506D02*
X03562496D01*
X03507522D02*
X0354514D01*
X03494415Y01556399D02*
X03507522Y01569506D01*
X03495407Y01486562D02*
X03595138D01*
X03396338Y01638154D02*
Y01675869D01*
X03362143Y01603959D02*
X03396338Y01638154D01*
X03430385Y01556399D02*
X03494415D01*
X03553964Y01466561D02*
X03585639D01*
X03543718Y01456316D02*
X03553964Y01466561D01*
X03433964Y01620421D02*
X03465638D01*
X03423718Y01610175D02*
X03433964Y01620421D01*
X03567423Y01529425D02*
X03571306Y01533309D01*
X03560066Y01529425D02*
X03567423D01*
X01820764Y01594991D02*
Y01686998D01*
X03095582Y01632731D02*
Y01692253D01*
X04244591Y00185025D02*
X04247564Y00182052D01*
X04244591Y00185025D02*
Y00249991D01*
X04260307Y00317384D02*
X04344412D01*
X04259912Y00317779D02*
X04260307Y00317384D01*
X04250436Y00234858D02*
X04251552Y00233741D01*
X04297325*
X04578426Y00316215D02*
X04653803D01*
X04575285Y00319355D02*
X04578426Y00316215D01*
X04563246Y00239266D02*
X04568772Y0023374D01*
X04611714*
X04528047Y00206715D02*
Y00326315D01*
X04454591Y0036566D02*
X04488701D01*
X04528047Y00326315*
X04495248Y0020637D02*
Y00213749D01*
X0467334Y0036566D02*
X04674619Y0036438D01*
X04688981*
X0472035Y00395749*
X04736499*
X04737265Y00206301D02*
Y00365749D01*
X04707277Y00207418D02*
Y00213741D01*
X04602214Y00205915D02*
Y00213741D01*
X04634359Y00208452D02*
Y00270969D01*
X04639496Y00276106*
X04647205*
X04392248Y00205915D02*
Y00213741D01*
X04424394Y00208453D02*
Y00270969D01*
X04429531Y00276106*
X04437239*
X04325107D02*
X04332815D01*
X0431997Y00270969D02*
X04325107Y00276106D01*
X0431997Y00208453D02*
Y00270969D01*
X04287825Y00205915D02*
Y00213741D01*
X04137499Y00353702D02*
Y00373404D01*
Y00353702D02*
X04212258Y00278943D01*
Y00207295D02*
Y00278943D01*
X04180403Y00205487D02*
Y00213741D01*
X04189903Y00233741D02*
Y00265722D01*
X04175633Y00279992D02*
X04189903Y00265722D01*
X04137718Y00279992D02*
X04175633D01*
X04401748Y00233741D02*
Y00265722D01*
X04387478Y00279992D02*
X04401748Y00265722D01*
X04349562Y00279992D02*
X04387478D01*
X04504748Y00233749D02*
Y0026573D01*
X04490478Y0028D02*
X04504748Y0026573D01*
X04452562Y0028D02*
X04490478D01*
X04664591Y00279991D02*
X04702507D01*
X04716777Y00265721*
Y0023374D02*
Y00265721D01*
X04668989Y00213952D02*
X04669202Y00213741D01*
X04707277*
X0444966Y00213321D02*
X04450088Y00213749D01*
X04495248*
X04357678Y00215426D02*
X04359363Y00213741D01*
X04392248*
X04147824Y00215427D02*
X04149509Y00213741D01*
X04180403*
X04085908Y00278017D02*
X0408684Y00278949D01*
X04123383*
X04073601Y00365458D02*
X04075139Y0036392D01*
Y00319019D02*
Y0036392D01*
X04073601Y00473408D02*
X04075192Y00474999D01*
X04137499*
X04073787Y0057651D02*
X04075139Y00575158D01*
Y00528865D02*
Y00575158D01*
Y0067537D02*
X0407528Y0067551D01*
X04075139Y0063429D02*
Y0067537D01*
X04080313Y0079129D02*
X04081604Y00789999D01*
X04137499*
X0407416Y00895697D02*
X04075139Y00894717D01*
Y00843701D02*
Y00894717D01*
Y00993811D02*
X0407528Y00993951D01*
X04075139Y00948607D02*
Y00993811D01*
X04077703Y01106562D02*
X04079266Y01104999D01*
X04137499*
X04074534Y01208545D02*
X04075139Y0120794D01*
Y01157976D02*
Y0120794D01*
Y01311507D02*
X0407528Y01311647D01*
X04075139Y01261611D02*
Y01311507D01*
X04079567Y01421461D02*
X04081036Y01419991D01*
X04137367*
X04075839Y01514495D02*
X04076811Y01513524D01*
Y01472869D02*
Y01513524D01*
Y01610365D02*
X04076958Y01610512D01*
X04076811Y01573729D02*
Y01610365D01*
X0406731Y01527171D02*
X04068082Y015264D01*
X0406731Y01527171D02*
Y01553729D01*
X04065386Y0142731D02*
X0406731Y01429234D01*
Y01452869*
X04065641Y01321449D02*
X04066059Y0132103D01*
X04065641Y01321449D02*
Y01347258D01*
X0406516Y01222165D02*
X04065639Y01222644D01*
Y01241611*
X0406516Y01120154D02*
X04065639Y01120633D01*
Y01137976*
X04065611Y01007808D02*
X04065639Y01007836D01*
Y01032333*
X04064488Y0090647D02*
X04065639Y00907622D01*
Y00928607*
X04064037Y00801089D02*
X04065639Y00802691D01*
Y00823701*
X04065643Y00699047D02*
X04068308Y00696382D01*
X04065643Y00699047D02*
Y00718487D01*
X04064263Y00591001D02*
X04065639Y00592377D01*
Y0061429*
X04064263Y0048225D02*
X04065639Y00483626D01*
Y00508865*
Y00376614D02*
X04066059Y00376194D01*
X04065639Y00376614D02*
Y00403797D01*
Y00277749D02*
X04067183Y00276205D01*
X04065639Y00277749D02*
Y00299019D01*
X04047962Y00319019D02*
X04075139D01*
X04022464Y00293521D02*
X04047962Y00319019D01*
X04022464Y00280039D02*
Y00293521D01*
X04047962Y00423797D02*
X04075139D01*
X04022464Y003983D02*
X04047962Y00423797D01*
X04022464Y00384818D02*
Y003983D01*
X04047962Y00528865D02*
X04075139D01*
X04022464Y00503367D02*
X04047962Y00528865D01*
X04022464Y00489885D02*
Y00503367D01*
X04047962Y0063429D02*
X04075139D01*
X04022464Y00608793D02*
X04047962Y0063429D01*
X04022464Y00595311D02*
Y00608793D01*
X04047965Y00738487D02*
X04075142D01*
X04022467Y00712989D02*
X04047965Y00738487D01*
X04022467Y00699508D02*
Y00712989D01*
X04047962Y00843701D02*
X04075139D01*
X04022464Y00818204D02*
X04047962Y00843701D01*
X04022464Y00804722D02*
Y00818204D01*
X04047962Y00948607D02*
X04075139D01*
X04022464Y00923109D02*
X04047962Y00948607D01*
X04022464Y00909628D02*
Y00923109D01*
X04047962Y01052333D02*
X04075139D01*
X04022464Y01026835D02*
X04047962Y01052333D01*
X04022464Y01013354D02*
Y01026835D01*
X04047962Y01157976D02*
X04075139D01*
X04022464Y01132478D02*
X04047962Y01157976D01*
X04022464Y01118997D02*
Y01132478D01*
X04047962Y01261611D02*
X04075139D01*
X04022464Y01236113D02*
X04047962Y01261611D01*
X04022464Y01222632D02*
Y01236113D01*
X04047963Y01367258D02*
X04075141D01*
X04022466Y0134176D02*
X04047963Y01367258D01*
X04022466Y01328279D02*
Y0134176D01*
X04049633Y01472869D02*
X04076811D01*
X04024135Y01447372D02*
X04049633Y01472869D01*
X04024135Y0143389D02*
Y01447372D01*
X04049633Y01573729D02*
X04076811D01*
X04024135Y01548232D02*
X04049633Y01573729D01*
X04024135Y0153475D02*
Y01548232D01*
X04065643Y01623661D02*
Y01654358D01*
X04022467Y01635379D02*
Y0164886D01*
X04047965Y01674358*
X04075142*
X03196837Y00941703D02*
Y00948738D01*
Y00941703D02*
X03202214Y00936326D01*
X03223153*
X03229113Y00942286*
Y01007681*
X03232978Y01011546*
X03243608*
X03128302D02*
X03138933D01*
X03124437Y01007681D02*
X03128302Y01011546D01*
X03124437Y00942286D02*
Y01007681D01*
X03118477Y00936326D02*
X03124437Y00942286D01*
X03097538Y00936326D02*
X03118477D01*
X03092162Y00941703D02*
X03097538Y00936326D01*
X03092162Y00941703D02*
Y00948738D01*
X03259591Y00904987D02*
Y00963037D01*
Y01014989D02*
X03263765Y01010815D01*
X0328562*
X03293246Y01003189*
Y00972686D02*
Y01003189D01*
Y00972686D02*
X03297194Y00968738D01*
X03308269*
X03272074Y00948738D02*
X03298769D01*
X03206337Y00968738D02*
Y01000303D01*
X0319625Y01010391D02*
X03206337Y01000303D01*
X03158863Y01010391D02*
X0319625D01*
X03154265Y01014989D02*
X03158863Y01010391D01*
X0315555Y00950655D02*
X03157467Y00948738D01*
X03196837*
X0304959Y01014989D02*
X03054188Y01010391D01*
X03091574*
X03101662Y01000303*
Y00968738D02*
Y01000303D01*
X03051126Y00948738D02*
X03092162D01*
X0295021Y01177048D02*
X02960999D01*
X02936902Y01190356D02*
X0295021Y01177048D01*
X02936902Y01190356D02*
Y01207056D01*
X02904219Y01140198D02*
Y01160591D01*
Y01124207D02*
Y01140198D01*
X02968065*
X02975771Y01147903*
Y01211807*
X02960522Y01227056D02*
X02975771Y01211807D01*
X02946402Y01227056D02*
X02960522D01*
X0288274Y01520894D02*
X02883648Y01519986D01*
X0294175*
X02824591Y01495304D02*
Y01519986D01*
Y01495304D02*
X02830098Y01489797D01*
X02885011*
X02904219Y01470589*
Y01434206D02*
Y01470589D01*
X02901055Y01431042D02*
X02904219Y01434206D01*
X02894277Y01431042D02*
X02901055D01*
X02824591Y01395304D02*
Y01419987D01*
Y01395304D02*
X02830098Y01389797D01*
X02885011*
X02904219Y0137059*
Y01334206D02*
Y0137059D01*
X02901055Y01331043D02*
X02904219Y01334206D01*
X02894277Y01331043D02*
X02901055D01*
X02824591Y01185306D02*
Y01209987D01*
Y01185306D02*
X02830098Y01179799D01*
X02885011*
X02904219Y01160591*
X02901055Y01121044D02*
X02904219Y01124207D01*
X02894277Y01121044D02*
X02901055D01*
X02824591Y01080305D02*
Y01104987D01*
Y01080305D02*
X02830098Y01074798D01*
X02885011*
X02904219Y0105559*
Y01019206D02*
Y0105559D01*
X02901055Y01016043D02*
X02904219Y01019206D01*
X02894277Y01016043D02*
X02901055D01*
X02949679Y00950299D02*
X0295124Y00948738D01*
X02899863Y00908731D02*
X02927995Y00936863D01*
X02894323Y00908731D02*
X02899863D01*
X02891627Y00911427D02*
X02894323Y00908731D01*
X02927995Y00936863D02*
Y00948004D01*
X02824591Y00870306D02*
Y00894988D01*
Y00870306D02*
X02830098Y00864799D01*
X02885011*
X02904219Y00845591*
Y00809208D02*
Y00845591D01*
X02901055Y00806044D02*
X02904219Y00809208D01*
X02894277Y00806044D02*
X02901055D01*
X02824591Y00660307D02*
Y00684989D01*
Y00660307D02*
X02830098Y006548D01*
X02885011*
X02904219Y00635592*
Y00599209D02*
Y00635592D01*
X02901055Y00596045D02*
X02904219Y00599209D01*
X02894277Y00596045D02*
X02901055D01*
X02893825Y00490592D02*
X02894277Y00491044D01*
X02901055*
X02904219Y00494208*
Y00530591*
X02885011Y00549799D02*
X02904219Y00530591D01*
X02830098Y00549799D02*
X02885011D01*
X02824591Y00555306D02*
X02830098Y00549799D01*
X02824591Y00555306D02*
Y00579988D01*
X02838831Y00527904D02*
X02880141D01*
X02827375Y0051645D02*
X02838831Y00527904D01*
X02827375Y00475756D02*
Y0051645D01*
X02838831Y0063266D02*
X02880141D01*
X02827375Y00621205D02*
X02838831Y0063266D01*
X02827375Y00580512D02*
Y00621205D01*
X02838831Y00738304D02*
X02880141D01*
X02827375Y0072685D02*
X02838831Y00738304D01*
X02827375Y00686156D02*
Y0072685D01*
X02838831Y00843439D02*
X02880141D01*
X02827375Y00831985D02*
X02838831Y00843439D01*
X02827375Y00791291D02*
Y00831985D01*
X02838831Y00949172D02*
X02880143D01*
X02827377Y00937718D02*
X02838831Y00949172D01*
X02827377Y00897025D02*
Y00937718D01*
X02838831Y01053479D02*
X02880141D01*
X02827375Y01042024D02*
X02838831Y01053479D01*
X02827375Y01001331D02*
Y01042024D01*
X02838831Y01158706D02*
X02880143D01*
X02827377Y01147251D02*
X02838831Y01158706D01*
X02827377Y01106558D02*
Y01147251D01*
X02838831Y01369555D02*
X02880141D01*
X02827375Y013581D02*
X02838831Y01369555D01*
X02827375Y01317407D02*
Y013581D01*
X02838831Y01469606D02*
X02880141D01*
X02827375Y01458151D02*
X02838831Y01469606D01*
X02827375Y01417458D02*
Y01458151D01*
X02838831Y0156964D02*
X02880141D01*
X02827375Y01558186D02*
X02838831Y0156964D01*
X02827375Y01517492D02*
Y01558186D01*
X02870641Y00479756D02*
X02870692Y00479705D01*
X02870641Y00479756D02*
Y00507904D01*
X02869989Y00589487D02*
X02870641Y0059014D01*
Y0061266*
X02879371Y00681442D02*
X02882918Y00684989D01*
X02952204*
X02870641Y00694864D02*
X02871865Y00693641D01*
X02870641Y00694864D02*
Y00718304D01*
X02869989Y00799201D02*
X02870641Y00799854D01*
Y00823439*
X02870643Y009027D02*
X02873272Y0090007D01*
X02870643Y009027D02*
Y00929172D01*
X02868581Y01007038D02*
X02870641Y01009099D01*
Y01033479*
X02868815Y0110392D02*
X02870643Y01105748D01*
Y01138706*
X02866865Y01207056D02*
X02936902D01*
X02870641Y01321665D02*
X02871872Y01320434D01*
X02870641Y01321665D02*
Y01349555D01*
Y01427461D02*
X02871637Y01426465D01*
X02870641Y01427461D02*
Y01449606D01*
Y01520354D02*
X02871403Y01519593D01*
X02870641Y01520354D02*
Y0154964D01*
X02877117Y00363757D02*
X02879635Y00361239D01*
X02941395*
X02941343Y00361291D02*
X02941395Y00361239D01*
X02941343Y00361291D02*
Y00387913D01*
X02827869Y00386253D02*
X02828477Y00386861D01*
Y00397196*
X02839194Y00407913*
X02950843*
X0285432Y00265262D02*
Y00293205D01*
Y00265262D02*
X02854591Y00264991D01*
X0285432Y00293205D02*
Y00301664D01*
X02824591Y00331393D02*
X0285432Y00301664D01*
X02824591Y00331393D02*
Y00369989D01*
X02780782Y00293205D02*
X0285432D01*
X02773204Y00285626D02*
X02780782Y00293205D01*
X02773204Y00243411D02*
Y00285626D01*
Y00243411D02*
X02802874Y00213741D01*
X02870643*
X02828853Y00240022D02*
Y00252303D01*
Y00240022D02*
X02835135Y0023374D01*
X02880143*
X02937745D02*
X02938249Y00234244D01*
X02880143Y0023374D02*
X02937745D01*
X03014803Y00252984D02*
X03021914D01*
X03012241Y00255546D02*
X03014803Y00252984D01*
X03012241Y0035922D02*
X0302327Y00370249D01*
X03012241Y00255546D02*
Y0035922D01*
X0302327Y00370249D02*
X03039499D01*
X03131623Y0023374D02*
X03134253Y0023637D01*
X03089073Y0023374D02*
X03131623D01*
X02938751Y00213744D02*
X02938755Y00213741D01*
X02980948*
X0304587Y00211792D02*
X03047819Y00213741D01*
X03079573*
X02990448Y0023374D02*
Y00264923D01*
X02978916Y00276455D02*
X02990448Y00264923D01*
X02952699Y00276455D02*
X02978916D01*
X03089073Y0023374D02*
Y00264923D01*
X03077541Y00276455D02*
X03089073Y00264923D01*
X03051324Y00276455D02*
X03077541D01*
X03146025Y00214028D02*
X03146312Y00213741D01*
X03180172*
X03189672Y00233741D02*
Y00279739D01*
X03323Y0025802D02*
X03323562Y00257459D01*
X03315702Y0025802D02*
X03323D01*
X03312332Y0026139D02*
X03315702Y0025802D01*
X03312332Y0026139D02*
Y00358804D01*
X03323361Y00369833*
X0333959*
X03394037Y00264628D02*
Y00284145D01*
Y0023874D02*
Y00264628D01*
X03512713*
X03518843Y00270757*
Y00284991*
X03339592Y0028499D02*
X03341466Y00283114D01*
X03378263*
X03391496Y00286686D02*
X03394037Y00284145D01*
X03341707Y00219461D02*
X03342428Y0021874D01*
X03384537*
X03465894Y00304292D02*
Y0033282D01*
X0346548Y00333235D02*
X03465894Y0033282D01*
X03527916Y00322897D02*
X03594281D01*
X0351241D02*
X03527916D01*
X03528343Y00322471*
Y00304991D02*
Y00322471D01*
X03507862Y00335095D02*
X03508688Y0033427D01*
Y00326619D02*
Y0033427D01*
Y00326619D02*
X0351241Y00322897D01*
X03594281D02*
X03601742Y00330358D01*
Y0033999*
X0353459Y00349989D02*
X0354459Y0035999D01*
X03611242*
X03480938Y00429989D02*
X03552151D01*
X03566262Y00406747D02*
Y00415997D01*
Y00406747D02*
X03570273Y00402737D01*
X03652913*
X03661941Y00411765*
Y00419989*
X03618009Y00439989D02*
X03671441D01*
X0359459Y00429989D02*
Y00519035D01*
X03434585Y00918035D02*
X03494589D01*
X03426679D02*
X03434585D01*
X03434832Y00917788*
Y00880159D02*
Y00917788D01*
X03430173Y00875499D02*
X03434832Y00880159D01*
X03418499Y00875499D02*
X03430173D01*
X03422241Y00929353D02*
X03423572Y00928022D01*
Y00921142D02*
Y00928022D01*
Y00921142D02*
X03426679Y00918035D01*
X03494589D02*
X03517627Y00941072D01*
Y00989988*
X03449813Y00972341D02*
X03468334D01*
X03354869D02*
X03449813D01*
Y00945212D02*
Y00972341D01*
X03449589Y00944988D02*
X03449813Y00945212D01*
X03468334Y00972341D02*
X03505981Y01009988D01*
X03527127*
X03518066Y00925219D02*
X03545641D01*
X03503721Y00910873D02*
X03518066Y00925219D01*
X03503721Y00904784D02*
Y00910873D01*
X03352333Y00974877D02*
Y00982118D01*
Y00974877D02*
X03354869Y00972341D01*
X03449813D02*
Y00989988D01*
X03417289Y01067054D02*
X03418874Y01065469D01*
Y01016628D02*
Y01065469D01*
X03458157Y01040734D02*
X03519994D01*
X03439006D02*
X03458157D01*
X03459313Y01039577*
Y01009988D02*
Y01039577D01*
X03429589Y01069988D02*
X03434299Y01065278D01*
Y01045441D02*
Y01065278D01*
Y01045441D02*
X03439006Y01040734D01*
X03519994D02*
X03529633Y01050374D01*
Y01059988*
X03480369Y01079988D02*
X03539134D01*
X03623498Y00605668D02*
X03623709Y00605457D01*
Y00591313D02*
Y00605457D01*
Y00591313D02*
X03642401Y00572621D01*
X0366014*
X03520887Y00719987D02*
X0359578D01*
X03563297Y00784906D02*
Y00796697D01*
Y00784906D02*
X03575152Y00773051D01*
X03660142*
X03501771Y00872241D02*
X03502147Y00871864D01*
Y00864535D02*
Y00871864D01*
Y00864535D02*
X03505905Y00860777D01*
X03575441*
X03579212Y00864548*
X03615143*
X03484339Y01139988D02*
X03486314Y01141963D01*
X03417452Y01139988D02*
X03484339D01*
X03457356Y01429986D02*
X03519006D01*
X03526453Y0119385D02*
X03555139D01*
X03513498Y01206805D02*
X03526453Y0119385D01*
X03513498Y01206805D02*
Y01227748D01*
X035585Y01316582D02*
X03558746Y01316828D01*
X035585Y01295639D02*
Y01316582D01*
Y01295639D02*
X03571454Y01282685D01*
X03600141*
X03491444Y01490525D02*
Y01497624D01*
Y01490525D02*
X03495407Y01486562D01*
X0366014Y00572621D02*
X03677496D01*
X03686306Y0056381*
Y00536424D02*
Y0056381D01*
X03682423Y0053254D02*
X03686306Y00536424D01*
X03675065Y0053254D02*
X03682423D01*
X03675141Y00672259D02*
X03692497D01*
X03701307Y00663449*
Y00636062D02*
Y00663449D01*
X03697424Y00632179D02*
X03701307Y00636062D01*
X03690066Y00632179D02*
X03697424D01*
X03660142Y00773051D02*
X03677497D01*
X03686308Y0076424*
Y00736854D02*
Y0076424D01*
X03682425Y0073297D02*
X03686308Y00736854D01*
X03675067Y0073297D02*
X03682425D01*
X03615143Y00864548D02*
X03632499D01*
X0364131Y00855738*
Y00828351D02*
Y00855738D01*
X03637426Y00824468D02*
X0364131Y00828351D01*
X03630069Y00824468D02*
X03637426D01*
X03555141Y00945219D02*
X03572497D01*
X03581307Y00936409*
Y00909022D02*
Y00936409D01*
X03577424Y00905139D02*
X03581307Y00909022D01*
X03570066Y00905139D02*
X03577424D01*
X03555139Y0119385D02*
X03572495D01*
X03581305Y0118504*
Y01157653D02*
Y0118504D01*
X03577422Y0115377D02*
X03581305Y01157653D01*
X03570065Y0115377D02*
X03577422D01*
X03600141Y01282685D02*
X03617497D01*
X03626307Y01273874*
Y01246487D02*
Y01273874D01*
X03622424Y01242604D02*
X03626307Y01246487D01*
X03615066Y01242604D02*
X03622424D01*
X0361014Y01385141D02*
X03627496D01*
X03636306Y0137633*
Y01348944D02*
Y0137633D01*
X03632422Y0134506D02*
X03636306Y01348944D01*
X03625065Y0134506D02*
X03632422D01*
X03595138Y01486562D02*
X03612495D01*
X03621305Y01477751*
Y01450365D02*
Y01477751D01*
X03617421Y01446481D02*
X03621305Y01450365D01*
X03610064Y01446481D02*
X03617421D01*
X0333959Y01578674D02*
X03339593Y01578677D01*
X0333959Y01524889D02*
Y01578674D01*
X03618965Y00552621D02*
X0365064D01*
X0360872Y00542375D02*
X03618965Y00552621D01*
X0360872Y00532185D02*
Y00542375D01*
X0360844Y00531906D02*
X0360872Y00532185D01*
X03633966Y00652259D02*
X03665641D01*
X03623721Y00642013D02*
X03633966Y00652259D01*
X03623721Y00631823D02*
Y00642013D01*
X03623441Y00631544D02*
X03623721Y00631823D01*
X03618967Y00753051D02*
X03650641D01*
X03608721Y00742805D02*
X03618967Y00753051D01*
X03608721Y00732615D02*
Y00742805D01*
X03608442Y00732336D02*
X03608721Y00732615D01*
X03573969Y00844548D02*
X03605643D01*
X03563723Y00834302D02*
X03573969Y00844548D01*
X03563723Y00824112D02*
Y00834302D01*
X03563444Y00823833D02*
X03563723Y00824112D01*
X03503441Y00904504D02*
X03503721Y00904784D01*
X03513964Y0117385D02*
X03545639D01*
X03503719Y01163605D02*
X03513964Y0117385D01*
X03503719Y01153415D02*
Y01163605D01*
X03503439Y01153135D02*
X03503719Y01153415D01*
X03558966Y01262684D02*
X0359064D01*
X0354872Y01252439D02*
X03558966Y01262684D01*
X0354872Y01242249D02*
Y01252439D01*
X03548441Y01241969D02*
X0354872Y01242249D01*
X03568965Y01365141D02*
X0360064D01*
X03558719Y01354895D02*
X03568965Y01365141D01*
X03558719Y01344705D02*
Y01354895D01*
X0355844Y01344426D02*
X03558719Y01344705D01*
X03543718Y01446126D02*
Y01456316D01*
X03543439Y01445846D02*
X03543718Y01446126D01*
X03503965Y01549506D02*
X0353564D01*
X0349372Y0153926D02*
X03503965Y01549506D01*
X0349372Y0152907D02*
Y0153926D01*
X0349344Y01528791D02*
X0349372Y0152907D01*
X03490064Y0160034D02*
X03497421D01*
X03501305Y01604224*
Y0163161*
X03492494Y01640421D02*
X03501305Y0163161D01*
X03475138Y01640421D02*
X03492494D01*
X03423435Y01563348D02*
Y01568253D01*
Y01563348D02*
X03430385Y01556399D01*
X03423439Y01599706D02*
X03423718Y01599985D01*
Y01610175*
X03353418Y01603959D02*
X03362143D01*
X03353195Y01603736D02*
X03353418Y01603959D01*
X03075095Y01612245D02*
X03095582Y01632731D01*
X03090749Y01574749D02*
X03090756Y01574756D01*
X03029034Y01579228D02*
X03033513Y01574749D01*
X03090749*
X03239591Y01599987D02*
X03240198Y01600593D01*
X03277809*
X03304856Y0162764*
X03323321*
X03139589Y01609987D02*
X03140196Y01610593D01*
X03177808*
X03204854Y0163764*
X03223319*
X03004855D02*
X0302332D01*
X02977808Y01610593D02*
X03004855Y0163764D01*
X02940197Y01610593D02*
X02977808D01*
X0293959Y01609987D02*
X02940197Y01610593D01*
X03299315Y01672807D02*
Y01681684D01*
Y01672807D02*
X03302869Y01669253D01*
X03326906*
X03327681Y01668477*
X03199749Y01683371D02*
Y01692248D01*
Y01683371D02*
X03203303Y01679817D01*
X03227339*
X03228115Y01679041*
X03026116Y01679821D02*
X03026891Y01679046D01*
X0300208Y01679821D02*
X03026116D01*
X02998526Y01683375D02*
X0300208Y01679821D01*
X02998526Y01683375D02*
Y01692253D01*
X03360261Y01685369D02*
X03376338D01*
X03354199Y01679307D02*
X03360261Y01685369D01*
X03354199Y01659019D02*
Y01679307D01*
X03353714Y01658533D02*
X03354199Y01659019D01*
X03259336Y01690707D02*
X03279315D01*
X03253275Y01684645D02*
X03259336Y01690707D01*
X03253275Y01664357D02*
Y01684645D01*
X0325279Y01663871D02*
X03253275Y01664357D01*
X03155519Y01693594D02*
X03163672Y01701748D01*
X03155519Y0167652D02*
Y01693594D01*
Y0167652D02*
X03157126Y01674913D01*
X03163672Y01701748D02*
X03179749D01*
X03059506Y01701753D02*
X03075582D01*
X03053444Y01695691D02*
X03059506Y01701753D01*
X03053444Y01675403D02*
Y01695691D01*
X03052959Y01674917D02*
X03053444Y01675403D01*
X02955902Y01674917D02*
X02956388Y01675403D01*
Y01695691*
X02962449Y01701753*
X02978526*
X0287838Y01635255D02*
X02879346Y01636221D01*
X02924748*
X02868525Y01621924D02*
X02870641Y0162404D01*
Y01654917*
X02824591Y01619985D02*
X02827375Y0162277D01*
Y01663463*
X02838831Y01674917*
X02880141*
X01796219Y01473201D02*
X01820743Y01497726D01*
Y01512131*
Y01542131D02*
X01820764Y01542152D01*
Y01594991*
X01766164D02*
X01820764D01*
X01486252Y01622397D02*
X01486665Y01621984D01*
X01516625*
X01486252Y01315039D02*
X01486665Y01315452D01*
X01514147*
X01486252Y0100231D02*
X01487078Y01001484D01*
X01514147*
X01627214Y0060673D02*
X01648561Y00585383D01*
X01550483Y0060673D02*
X01627214D01*
X01547457Y00603705D02*
X01550483Y0060673D01*
X01546906Y00598204D02*
X01547457Y00598755D01*
Y00603705*
X01648561Y00585383D02*
X01669038D01*
X01606405Y00565383D02*
X01659538D01*
Y00524146D02*
X01659589Y00524096D01*
X01659538Y00524146D02*
Y00565383D01*
X01680153Y00414001D02*
X01835884D01*
X0167334Y00407189D02*
X01680153Y00414001D01*
X0167334Y00393031D02*
Y00407189D01*
X01699881Y00894991D02*
X01835209D01*
X01700249Y01209999D02*
X01832009D01*
X0182849Y0144093D02*
X01860108Y01472548D01*
X01768146Y01501274D02*
X01772509D01*
X01860108Y01472548D02*
X02064591D01*
X00375737Y01012819D02*
X00376094Y01013176D01*
X00392169*
X00466628Y0076193D02*
X00531068D01*
X00293777D02*
X00466628D01*
X00466919Y0076164*
Y00745247D02*
Y0076164D01*
X01502804Y00880053D02*
X01510576D01*
X01499382Y00876632D02*
X01502804Y00880053D01*
X01499382Y00767671D02*
Y00876632D01*
X01834228Y00188016D02*
X01835461Y00186783D01*
X01834228Y00188016D02*
Y00222952D01*
X01828439Y00228741D02*
X01834228Y00222952D01*
X01810201Y00228741D02*
X01828439D01*
X01839217Y00246242D02*
X01848359D01*
X01835367Y00250092D02*
X01839217Y00246242D01*
X01835367Y00250092D02*
Y00356432D01*
X02142604Y00248741D02*
X02196376Y00194968D01*
X02120622Y00248741D02*
X02142604D01*
X02376308Y00433741D02*
X02405729Y0040432D01*
X0236459Y00433741D02*
X02376308D01*
X02289063Y00544452D02*
X02348458D01*
X02526565Y00754991D02*
X02527588Y00756015D01*
X02434591Y00754991D02*
X02526565D01*
X02527107Y00809007D02*
X02527588Y00809489D01*
X02460141Y00809007D02*
X02527107D01*
X0241405Y00789007D02*
X02450641D01*
X02407851Y00782809D02*
X0241405Y00789007D01*
X02407851Y00768045D02*
Y00782809D01*
X02445613Y01019559D02*
X02480143D01*
X02424584Y01040588D02*
X02445613Y01019559D01*
X02424584Y01040588D02*
Y01054922D01*
X02525357Y01069991D02*
X02527588Y01067759D01*
X02449591Y01069991D02*
X02525357D01*
X02527148Y01124696D02*
X02527588Y01124255D01*
X02475142Y01124696D02*
X02527148D01*
X02431426Y01104696D02*
X02465642D01*
X02423727Y01096997D02*
X02431426Y01104696D01*
X02423727Y01086477D02*
Y01096997D01*
X02393017Y0144263D02*
X02436606Y01486219D01*
X02393017Y01429146D02*
Y0144263D01*
X02194457Y01661268D02*
X02228007Y01694819D01*
X02194457Y01645541D02*
Y01661268D01*
X01906639Y0172767D02*
X01908631Y01729662D01*
X01906639Y01696498D02*
Y0172767D01*
X01780758Y01689093D02*
X01788164Y01696498D01*
X01780758Y01674818D02*
Y01689093D01*
X01728655Y01673295D02*
X01747168D01*
X01724249Y01677701D02*
X01728655Y01673295D01*
X01724249Y01677701D02*
Y01686998D01*
X01605141Y01728325D02*
X01606478Y01729662D01*
X01605141Y01674098D02*
Y01728325D01*
X01635519Y01392645D02*
X0165212D01*
X01552951D02*
X01635519D01*
X01617802Y01330803D02*
X0162987D01*
X01635519Y01336452*
Y01392645*
X02214457Y01620169D02*
Y01636041D01*
Y01620169D02*
X02224147Y01610478D01*
Y01566149D02*
Y01610478D01*
X02295918Y01499362D02*
Y01575378D01*
X02257211Y01584878D02*
X02275918D01*
X02254271Y01581939D02*
X02257211Y01584878D01*
X02254271Y01566775D02*
Y01581939D01*
X0160753Y01513577D02*
X01607906Y015132D01*
X01646591*
X0161425Y01509608D02*
X01615358Y01510717D01*
X0161425Y01479749D02*
Y01509608D01*
X01549112Y01490895D02*
Y0152003D01*
Y01490895D02*
X0157526Y01464747D01*
Y01434353D02*
Y01464747D01*
X01549591Y01396005D02*
Y01419991D01*
Y01396005D02*
X01552951Y01392645D01*
X0165212D02*
X01658981Y01399506D01*
Y01409991*
X01668481Y01429991D02*
Y01451636D01*
X01660367Y01459749D02*
X01668481Y01451636D01*
X0160475Y01459749D02*
X01660367D01*
X01604716Y01427573D02*
X0160475Y01427607D01*
Y01459749*
X01570349Y01368541D02*
X01605841D01*
X01552968Y0132941D02*
X01554247Y0133069D01*
Y0135244*
X01570349Y01368541*
X01605841Y01159081D02*
X01623415D01*
X01620348Y01015834D02*
X0162486D01*
X01629171Y01020145*
Y01153325*
X01623415Y01159081D02*
X01629171Y01153325D01*
X01577749Y01083576D02*
Y01087697D01*
X01572803Y01078631D02*
X01577749Y01083576D01*
X01502804Y01195053D02*
X01510576D01*
X01499382Y01191632D02*
X01502804Y01195053D01*
X01499382Y01082671D02*
Y01191632D01*
Y01082671D02*
X01503422Y01078631D01*
X01572803*
X01552766Y01245046D02*
X01571272Y01263551D01*
X01552766Y01213167D02*
Y01245046D01*
X01549591Y01209991D02*
X01552766Y01213167D01*
X01571272Y01263551D02*
X01605841D01*
X01552262Y01121151D02*
X01553316Y01122205D01*
Y01147516*
X0156488Y01159081*
X01605841*
X01549591Y00999991D02*
X01552262Y01002663D01*
Y01038541*
X01567495Y01053774*
X01605841*
X01599316Y01209999D02*
X01670249D01*
X01596341Y01323594D02*
Y01348541D01*
Y01219676D02*
Y01243551D01*
Y01113414D02*
Y01139081D01*
X01594902Y01001079D02*
X01596341Y01002519D01*
Y01033774*
X01593927Y00896243D02*
X01595178Y00894991D01*
X0166988*
X01553558Y00910053D02*
X01554834Y00911329D01*
Y00927688*
X01576065Y00948919*
X01605841*
X01623415Y00844265D02*
X01629171Y00838508D01*
Y00705329D02*
Y00838508D01*
X0162486Y00701018D02*
X01629171Y00705329D01*
X01620348Y00701018D02*
X0162486D01*
X01605841Y00844265D02*
X01623415D01*
X01503422Y00763631D02*
X01572803D01*
X01499382Y00767671D02*
X01503422Y00763631D01*
X01572803D02*
X01577749Y00768576D01*
Y00772697*
X01596341Y00897251D02*
X01598135Y00895458D01*
X01596341Y00897251D02*
Y00928919D01*
X01554034Y00804244D02*
Y0082401D01*
X01574289Y00844265*
X01605841*
X01596341Y00788562D02*
Y00824265D01*
Y00788562D02*
X01596393Y00788511D01*
X01553324Y00699073D02*
Y00724541D01*
X01567328Y00738545*
X01605841*
X01596341Y00694776D02*
X01597049Y00694068D01*
X01596341Y00694776D02*
Y00718545D01*
X01595642Y0059286D02*
X01597249Y00591253D01*
X01549591Y00579991D02*
X01553773Y00584173D01*
X01612858Y0058104D02*
X01613907Y00579991D01*
X01503422Y00448631D02*
X01572803D01*
X01499382Y00452671D02*
X01503422Y00448631D01*
X01499382Y00452671D02*
Y00561632D01*
X01502804Y00565054*
X01510576*
X01572803Y00448631D02*
X01577749Y00453576D01*
Y00457697*
X01623413Y00528596D02*
X0162917Y00522839D01*
Y0038966D02*
Y00522839D01*
X01624858Y00385349D02*
X0162917Y0038966D01*
X01620346Y00385349D02*
X01624858D01*
X0160584Y00528596D02*
X01623413D01*
X01549591Y00474991D02*
X01553589Y00478989D01*
Y00511814*
X01570371Y00528596*
X0160584*
X0159634Y00478297D02*
Y00508596D01*
X01595874Y00477831D02*
X0159634Y00478297D01*
X01565207Y00424704D02*
X0160584D01*
X01549591Y00409088D02*
X01565207Y00424704D01*
X01549591Y00369991D02*
Y00409088D01*
X0159634Y00375026D02*
Y00404704D01*
X01594247Y00372933D02*
X0159634Y00375026D01*
X01582268Y0025168D02*
X01588294Y00245654D01*
Y00211683D02*
Y00245654D01*
Y00211683D02*
X01590538Y0020944D01*
X0159634*
X01631457Y0022944D02*
X01665775D01*
X0160584D02*
X01631457D01*
X01553721Y00280007D02*
Y00291207D01*
X01556576Y00294061*
X01623113*
X01631457Y00285717*
Y0022944D02*
Y00285717D01*
X01679988Y00277812D02*
X01680427Y00277372D01*
X017059*
X01710698Y00272574*
Y00233741D02*
Y00272574D01*
X01668518Y00213741D02*
X01701197D01*
X01667031Y00215228D02*
X01668518Y00213741D01*
X01753341Y00233741D02*
X01764591Y00244991D01*
X01710698Y00233741D02*
X01753341D01*
X01769464Y0021137D02*
X01772094Y0020874D01*
X018007*
X01764591Y00274991D02*
X01795428D01*
X01810201Y00260219*
Y00228741D02*
Y00260219D01*
X0186495Y00274631D02*
X0190177D01*
X01870493Y00212078D02*
X01873831Y00208741D01*
X01900005*
X01864591Y00274991D02*
X0186495Y00274631D01*
X0190177D02*
X01909505Y00266896D01*
Y00228741D02*
Y00266896D01*
X01969197Y00228741D02*
X01969375Y0022892D01*
X01909505Y00228741D02*
X01969197D01*
X01969135Y00218815D02*
X01974209Y00213741D01*
X02005272*
X01969591Y00279991D02*
X02004916D01*
X02014773Y00270134*
Y00233741D02*
Y00270134D01*
Y00233741D02*
X02067766D01*
X02083834Y00228741D02*
X02111122D01*
X02074591Y00294991D02*
X02103955D01*
X02120622Y00278324*
Y00248741D02*
Y00278324D01*
X02171938Y00332644D02*
X02220888D01*
X02169591Y00334991D02*
X02171938Y00332644D01*
X02144374Y00301994D02*
X02152054D01*
X02142453Y00303915D02*
X02144374Y00301994D01*
X02142453Y00303915D02*
Y00417578D01*
X02220888Y00332644D02*
X02233651D01*
X02220291Y00332047D02*
X02220888Y00332644D01*
X02220291Y00288741D02*
Y00332047D01*
X02172749Y0026989D02*
X02173899Y00268741D01*
X02210791*
X02255858Y00335106D02*
X02257222Y00333741D01*
X02289642*
X02299142Y00353741D02*
Y00421007D01*
X02255923Y0041321D02*
X02257458Y00411675D01*
X0229839*
X02327731Y00415086D02*
X02329076Y00413741D01*
X0235509*
X02327901Y00475801D02*
X02328754Y00476654D01*
X02351266*
X0236459Y00463329*
Y00433741D02*
Y00463329D01*
X02348458Y00544452D02*
X02350497Y00542412D01*
X0237811Y00542124D02*
X0239434D01*
X02408085Y00555868*
Y00574505*
X02377371Y00596165D02*
X02379032Y00594505D01*
X02417585*
Y00602802*
X02388993Y00631394D02*
X02417585Y00602802D01*
X02388993Y00631394D02*
Y00640431D01*
X02388253Y00670311D02*
X02389175Y00671233D01*
Y00683407*
X02394613Y00688844*
X02430643*
X02451148Y00671787D02*
X02464059D01*
X02469777Y00677505*
Y0069189*
X02452823Y00708844D02*
X02469777Y0069189D01*
X02440143Y00708844D02*
X02452823D01*
X02408911Y00721955D02*
Y00738371D01*
Y00721955D02*
X02422022Y00708844D01*
X02440143*
X02337732Y00859991D02*
X02394445D01*
X02423301Y00876139D02*
Y00888931D01*
X02428581Y00894211*
X02465642*
X02489549Y0087591D02*
X0249686D01*
X02501428Y00880478*
Y00900353*
X02487569Y00914211D02*
X02501428Y00900353D01*
X02475142Y00914211D02*
X02487569D01*
X02424591Y00936298D02*
Y00964991D01*
Y00936298D02*
X02446678Y00914211D01*
X02475142*
X02424591Y00964991D02*
X02428168Y00968568D01*
Y00992871*
X02434857Y00999559*
X02470643*
X02494368Y00979857D02*
X02500591D01*
X02507003Y0098627*
Y01004754*
X02492199Y01019559D02*
X02507003Y01004754D01*
X02480143Y01019559D02*
X02492199D01*
X02423452Y01056054D02*
X02424584Y01054922D01*
X02423352Y01086101D02*
X02423727Y01086477D01*
X02322898Y01169991D02*
X02384166D01*
X02472451Y01185401D02*
X02481522D01*
X02487678Y01191557*
Y0121521*
X02475915Y01226974D02*
X02487678Y0121521D01*
X0246014Y01226974D02*
X02475915D01*
X0240765Y01184752D02*
X02408946Y01183457D01*
X0240765Y01184752D02*
Y01200629D01*
X02413994Y01206973*
X0245064*
X02384591Y01269991D02*
X02389505Y01265077D01*
Y01241778D02*
Y01265077D01*
Y01241778D02*
X02404309Y01226974D01*
X0246014*
X02454836Y01285142D02*
X02464086D01*
X02468225Y01289281*
Y01315814*
X0245633Y01327709D02*
X02468225Y01315814D01*
X02440142Y01327709D02*
X0245633D01*
X02384591Y01269991D02*
X02386433Y01271833D01*
Y01297801*
X02396341Y01307709*
X02430642*
X02373777Y01332124D02*
X02378192Y01327709D01*
X02440142*
X02373777Y01347703D02*
X02375238Y01346243D01*
X02402258*
X02413017Y01357002*
Y01419646*
X02064591Y01502548D02*
Y01581423D01*
X02295469Y01414358D02*
X02296065Y01414955D01*
X02257591Y01414358D02*
X02295469D01*
X02309591Y01429991D02*
X02312229Y01432629D01*
X02341412*
X02364758Y01455975*
Y01506571*
X02255695Y01499362D02*
X02295918D01*
Y01494362D02*
Y01499362D01*
X02175212Y01562983D02*
X02231631D01*
X02374309Y01429146D02*
X02393017D01*
X0237137Y01426206D02*
X02374309Y01429146D01*
X0237137Y01411043D02*
Y01426206D01*
X0232605Y01516071D02*
X02344758D01*
X02323111Y01513131D02*
X0232605Y01516071D01*
X02323111Y01497968D02*
Y01513131D01*
X02175749Y01645541D02*
X02194457D01*
X02172809Y01642602D02*
X02175749Y01645541D01*
X02172809Y01627439D02*
Y01642602D01*
X02078406Y01592241D02*
X02099927D01*
X02122625Y01614938*
Y01666502*
X02023834Y01619991D02*
X02064591D01*
X02007653Y0160381D02*
X02023834Y01619991D01*
X01978457Y0160381D02*
X02007653D01*
X02048841Y01657446D02*
Y01674193D01*
X02045587Y01677447D02*
X02048841Y01674193D01*
X02026017Y01677447D02*
X02045587D01*
X02080978Y01657899D02*
Y01673062D01*
X02083917Y01676002*
X02102625*
X01788164Y01696498D02*
X01800764D01*
X01931387Y01668723D02*
X01954285D01*
X01926639Y0167347D02*
X01931387Y01668723D01*
X01926639Y0167347D02*
Y01686998D01*
X019374Y01629991D02*
X01964591D01*
X01916976Y01609567D02*
X019374Y01629991D01*
X01879128Y01609567D02*
X01916976D01*
X01983823Y01686947D02*
X02006017D01*
X01980403Y01683527D02*
X01983823Y01686947D01*
X01980403Y01664945D02*
Y01683527D01*
X01881025Y01674497D02*
Y01693079D01*
X01884445Y01696498*
X01906639*
X01747168Y01673295D02*
X01748245Y01674372D01*
X01733134Y01634991D02*
X01764591D01*
X01706592Y01608449D02*
X01733134Y01634991D01*
X01679298Y01608449D02*
X01706592D01*
X01681555Y01670461D02*
X01681766Y01670673D01*
Y01692371*
X01685894Y01696498*
X01704249*
X01662515Y01637067D02*
X01664591Y01634991D01*
X01619442Y01637067D02*
X01662515D01*
X01552178Y01636626D02*
X01552602Y01636202D01*
X01552178Y01636626D02*
Y01659083D01*
X01567193Y01674098*
X01605141*
X01595503Y01629017D02*
Y0165396D01*
X01595641Y01654098*
X0099255Y0103527D02*
X00994192Y01036913D01*
X01009357Y0097047D02*
X01023484Y00956343D01*
Y0091357D02*
Y00956343D01*
X0102001Y00910096D02*
X01023484Y0091357D01*
X00935988Y01328152D02*
X00936892Y01329055D01*
X00996826Y00489397D02*
X01043133D01*
X00345499Y00227452D02*
X00348155Y00224796D01*
X00345499Y00227452D02*
Y00264991D01*
X00479139Y00721607D02*
X00479549Y00721197D01*
Y00687233D02*
Y00721197D01*
X00786112Y0061064D02*
X00944995D01*
X00738996D02*
X00786112D01*
X00588038Y00833499D02*
X00722307Y00967767D01*
X00508499Y00833499D02*
X00588038D01*
X00786112Y00863594D02*
X00786187Y00863668D01*
X00840137*
X00683156Y01104992D02*
X00761425D01*
X00682789D02*
X00683156D01*
X00682532Y01105249D02*
X00682789Y01104992D01*
X00608999Y01105249D02*
X00682532D01*
X00676904Y013513D02*
X00688352Y01362749D01*
X00722372*
X0071322Y00785616D02*
X00715391Y00783445D01*
X00720735*
X00721236Y00783946*
X0071322Y00785616D02*
Y00831291D01*
X00729204Y00847275*
X00738995*
X00729495Y00816036D02*
Y00827275D01*
Y00816036D02*
X00732468Y00813063D01*
X00744258*
X00765655Y00791667*
X00756048Y0071656D02*
X00763407D01*
X00765655Y00718808*
Y00742918*
Y00791667*
X00629205Y00847275D02*
X00638996D01*
X0061322Y00831291D02*
X00629205Y00847275D01*
X0061322Y00785616D02*
Y00831291D01*
X00620736Y00783445D02*
X00621237Y00783946D01*
X00615391Y00783445D02*
X00620736D01*
X0061322Y00785616D02*
X00615391Y00783445D01*
X00738996Y00714991D02*
D01*
Y0064064D02*
Y00714991D01*
X00665655Y00742918D02*
Y00791667D01*
Y00718808D02*
Y00742918D01*
X00665923Y0074265*
X0072349*
X00663408Y0071656D02*
X00665655Y00718808D01*
X00656049Y0071656D02*
X00663408D01*
X00644259Y00813063D02*
X00665655Y00791667D01*
X00632469Y00813063D02*
X00644259D01*
X00629495Y00816036D02*
X00632469Y00813063D01*
X00629495Y00816036D02*
Y00827275D01*
X01107923Y00646232D02*
X01111722Y00642433D01*
X01084768Y00646232D02*
X01107923D01*
X01051212Y00612676D02*
X01084768Y00646232D01*
X00283236Y00772471D02*
X00293777Y0076193D01*
X01116803Y0059423D02*
X01177333D01*
X00964991Y0103527D02*
X0099255D01*
X00875626Y01328152D02*
X00935988D01*
X01152459Y00489897D02*
X01157235D01*
X01160709Y00493371*
Y00536144*
X01146582Y00550271D02*
X01160709Y00536144D01*
X00871573Y01372749D02*
Y01379542D01*
X00867774Y01383341D02*
X00871573Y01379542D01*
X00844618Y01383341D02*
X00867774D01*
X00811062Y01349785D02*
X00844618Y01383341D01*
X00920566Y01228889D02*
Y01271662D01*
X00906439Y01285788D02*
X00920566Y01271662D01*
X00815032Y01285788D02*
X00906439D01*
X00862073Y01326739D02*
Y01352749D01*
X00776168Y01437956D02*
Y01516731D01*
X00799713Y01380645D02*
Y01419992D01*
X00781817Y01362749D02*
X00799713Y01380645D01*
X00905881Y01267004D02*
Y01273797D01*
X00902082Y01277596D02*
X00905881Y01273797D01*
X00878926Y01277596D02*
X00902082D01*
X00582887Y01613076D02*
X00623519D01*
X00733101Y01529798D02*
Y01581499D01*
X00827764Y01474413D02*
Y01502181D01*
X00820674Y01509272D02*
X00827764Y01502181D01*
X00791587Y01509272D02*
X00820674D01*
X00733101Y01581499D02*
X00793458D01*
X00757039Y01613076D02*
X00759704Y01615741D01*
X00712683Y01613076D02*
X00757039D01*
X00759704Y01615741D02*
Y01624749D01*
X00453976Y01280556D02*
X00544232D01*
X00452087Y01247499D02*
X00469048D01*
X00374701Y00901296D02*
Y00933749D01*
X00359629Y00966806D02*
X00449885D01*
X00352223Y00939266D02*
X0035774Y00933749D01*
X00374701*
X00248537Y00483766D02*
Y00511249D01*
Y00478796D02*
Y00483766D01*
X00265001Y00648806D02*
X00286853D01*
X00289574Y00635749D02*
X00310809D01*
X0033171Y00614848*
X00415701Y01058749D02*
X00436936D01*
X00469048Y01215046D02*
Y01247499D01*
X00438012Y01110046D02*
Y01142499D01*
X00436936Y01058749D02*
X00457837Y01037848D01*
X00489648Y01118095D02*
Y01141598D01*
X00468747Y01162499D02*
X00489648Y01141598D01*
X00447512Y01162499D02*
X00468747D01*
X0042294Y01175556D02*
X00513196D01*
X00521296Y01183656*
X0098399Y00670318D02*
X0098592Y00672247D01*
X00952351Y00670318D02*
X0098399D01*
X00944995Y00662962D02*
X00952351Y00670318D01*
X00944995Y0064064D02*
Y00662962D01*
X00855156Y00679622D02*
X00856517Y00678262D01*
Y00666238D02*
Y00678262D01*
Y00666238D02*
X00865417Y00657338D01*
X00898445*
X00949758Y00725754D02*
X00953996Y00729991D01*
X00949758Y00695503D02*
Y00725754D01*
X00931593Y00677338D02*
X00949758Y00695503D01*
X00907945Y00677338D02*
X00931593D01*
X00838996Y00714991D02*
X00839655Y00714332D01*
X0088306*
X00883741Y00746774D02*
X00884422Y00746093D01*
X00883741Y00746774D02*
Y00763108D01*
X00876627Y00770222D02*
X00883741Y00763108D01*
X00876627Y00770222D02*
Y00797263D01*
X00579688Y00753192D02*
Y00797264D01*
Y00732741D02*
Y00753192D01*
X00630796D02*
X00638996Y00744991D01*
X00579688Y00753192D02*
X00630796D01*
X00553509Y00718631D02*
X00565578D01*
X00579688Y00732741*
X0048561Y00743556D02*
X00487088Y00745034D01*
X00864632Y00817263D02*
X00886127D01*
X00851017Y00803648D02*
X00864632Y00817263D01*
X00851017Y00781267D02*
Y00803648D01*
Y00781267D02*
X00851601Y00780682D01*
X00554078Y00781267D02*
X00554663Y00780683D01*
X00554078Y00781267D02*
Y00803649D01*
X00567694Y00817264*
X00589188*
X01012715Y00252991D02*
X01012722Y00252999D01*
X01059749*
X01110048Y00280615D02*
X01110259Y00280405D01*
X01097828Y00280615D02*
X01110048D01*
X01095444Y00282999D02*
X01097828Y00280615D01*
X01059749Y00282999D02*
X01095444D01*
X00944995Y0046299D02*
X00945004Y00462999D01*
X00944924Y00459275D02*
X00991669D01*
X00947536Y01065862D02*
X00970692D01*
X0091398Y01032306D02*
X00947536Y01065862D01*
X00970692D02*
X00974491Y01062063D01*
X00964991Y01005765D02*
Y0103527D01*
X00974491Y0105527D02*
Y01062063D01*
X0091398Y01012245D02*
Y01032306D01*
X00982595Y00821731D02*
X01016151Y00855287D01*
X00982595Y00801671D02*
Y00821731D01*
X00908103Y00863668D02*
X00940226Y00831545D01*
Y00805835D02*
Y00831545D01*
X00870137Y00863668D02*
X00908103D01*
X00952257Y00863479D02*
X01043664D01*
X01057791Y00849352*
X01051212Y00592616D02*
Y00612676D01*
X01111722Y0063564D02*
Y00642433D01*
X01102222Y00586135D02*
Y0061564D01*
X01187688Y00329511D02*
X01210843D01*
X01154132Y00295956D02*
X01187688Y00329511D01*
X01210843D02*
X01214642Y00325712D01*
X01123793Y00337704D02*
X012152D01*
X01229327Y00323577*
Y00280804D02*
Y00323577D01*
X01205142Y00269415D02*
Y00298919D01*
X01225853Y0027733D02*
X01229327Y00280804D01*
X01117512Y00343985D02*
X01123793Y00337704D01*
X01221077Y0027733D02*
X01225853D01*
X01117512Y00343985D02*
Y00352236D01*
X01214642Y00318919D02*
Y00325712D01*
X01154132Y00275895D02*
Y00295956D01*
X01153378Y00436635D02*
X01176534D01*
X01119822Y00403079D02*
X01153378Y00436635D01*
X01176534D02*
X01180332Y00432836D01*
X01170833Y00376538D02*
Y00406043D01*
X01180332Y00426043D02*
Y00432836D01*
X01119822Y00383019D02*
Y00403079D01*
X01119069Y00542079D02*
X01142225D01*
X01085514Y00508523D02*
X01119069Y00542079D01*
X01142225D02*
X01146024Y0053828D01*
X01055175Y00550271D02*
X01146582D01*
X01136524Y00481982D02*
Y00511487D01*
X01048894Y00556552D02*
X01055175Y00550271D01*
X01048894Y00556552D02*
Y00564804D01*
X01146024Y00531487D02*
Y0053828D01*
X01085514Y00488463D02*
Y00508523D01*
X0099913Y00761687D02*
X0107701D01*
X00993406Y00755963D02*
X0099913Y00761687D01*
X00993406Y0074526D02*
Y00755963D01*
X0107701Y00761687D02*
X01091137Y0074756D01*
Y00704788D02*
Y0074756D01*
X01087663Y00701314D02*
X01091137Y00704788D01*
X01082887Y00701314D02*
X01087663D01*
X01016166Y00698472D02*
Y00718532D01*
X01076676Y00741496D02*
Y00748289D01*
X01067176Y00691991D02*
Y00721496D01*
X01072877Y00752088D02*
X01076676Y00748289D01*
X01016166Y00718532D02*
X01049721Y00752088D01*
X01072877*
X01043106Y00844695D02*
Y00851488D01*
X00945975Y0086976D02*
Y00878012D01*
X01049541Y00803106D02*
X01054317D01*
X00945975Y0086976D02*
X00952257Y00863479D01*
X01054317Y00803106D02*
X01057791Y0080658D01*
X01033606Y0079519D02*
Y00824695D01*
X01057791Y0080658D02*
Y00849352D01*
X01039307Y00855287D02*
X01043106Y00851488D01*
X01016151Y00855287D02*
X01039307D01*
X00948289Y00908661D02*
Y00928722D01*
X01008799Y00951685D02*
Y00958478D01*
X00911669Y00976751D02*
Y00985002D01*
X01015234Y00910096D02*
X0102001D01*
X00911669Y00976751D02*
X0091795Y0097047D01*
X00999299Y00902181D02*
Y00931685D01*
X0091795Y0097047D02*
X01009357D01*
X01005Y00962277D02*
X01008799Y00958478D01*
X00948289Y00928722D02*
X00981844Y00962277D01*
X01005*
X00844053Y01104992D02*
X00844086Y01104959D01*
X00791425Y01104992D02*
X00844053D01*
X00879679Y0111726D02*
Y0113732D01*
X00940189Y01160284D02*
Y01167077D01*
X00843059Y01185349D02*
Y01193601D01*
X00946624Y01118695D02*
X009514D01*
X00843059Y01185349D02*
X0084934Y01179068D01*
X009514Y01118695D02*
X00954874Y01122169D01*
X00930689Y01110779D02*
Y01140284D01*
X00954874Y01122169D02*
Y01164941D01*
X00940747Y01179068D02*
X00954874Y01164941D01*
X0084934Y01179068D02*
X00940747D01*
X0093639Y01170876D02*
X00940189Y01167077D01*
X00879679Y0113732D02*
X00913234Y01170876D01*
X0093639*
X0084537Y01244041D02*
X00878926Y01277596D01*
X00896381Y01217499D02*
Y01247004D01*
X00917092Y01225415D02*
X00920566Y01228889D01*
X0080875Y0129207D02*
X00815032Y01285788D01*
X00912316Y01225415D02*
X00917092D01*
X0080875Y0129207D02*
Y01300321D01*
X00896381Y01217499D02*
X00901354Y01212526D01*
X0084537Y0122398D02*
Y01244041D01*
X00811062Y01329724D02*
Y01349785D01*
X00818264Y01421832D02*
X00821354Y01418743D01*
X00818264Y01421832D02*
Y01454413D01*
X00767908Y01524991D02*
X00776168Y01516731D01*
X00789813Y01511046D02*
X00791587Y01509272D01*
X00783958Y015321D02*
Y01561499D01*
X00724383Y01581499D02*
X00733101D01*
Y01529798D02*
X00737908Y01524991D01*
X00620376Y01525925D02*
Y0158237D01*
X00769204Y01644749D02*
Y01653408D01*
X00765039Y01657573D02*
X00769204Y01653408D01*
X00732686Y01657573D02*
X00765039D01*
X00731717Y01656604D02*
X00732686Y01657573D01*
X00752372Y01362749D02*
X00781817D01*
X00265524Y00264991D02*
X00315499D01*
X00345336Y00578343D02*
X00346992Y00579999D01*
X00411749*
X00286853Y00648806D02*
X00355257D01*
X00286853D02*
Y00746481D01*
X002916Y00751227*
X00316651*
X00321109Y0074677*
Y00739989D02*
Y0074677D01*
X00311608Y00719989D02*
X00398016D01*
X00427284Y0067776D02*
Y00719727D01*
Y0067776D02*
X00437811Y00667233D01*
X00470049*
X00311608Y00689202D02*
X00312487Y00688324D01*
X00311608Y00689202D02*
Y00719989D01*
X00185475Y00275515D02*
X00186145Y00274846D01*
X00194975Y00322999D02*
X0021621D01*
X00237111Y00302098*
Y00278595D02*
Y00302098D01*
X0026876Y00344156D02*
Y00355032D01*
X00260659Y00336056D02*
X0026876Y00344156D01*
X00170403Y00336056D02*
X00260659D01*
X00162997Y0032865D02*
X00170403Y00336056D01*
X00162997Y00308516D02*
Y0032865D01*
Y00308516D02*
X00168514Y00302999D01*
X00185475*
Y00270546D02*
X00186104Y00269917D01*
X00185475Y00270546D02*
Y00302999D01*
X00217003Y00379515D02*
X00217672Y00378846D01*
X00226503Y00426999D02*
X00247738D01*
X00268639Y00406098*
Y00382595D02*
Y00406098D01*
X00300287Y00448156D02*
Y00459033D01*
X00292187Y00440056D02*
X00300287Y00448156D01*
X0020193Y00440056D02*
X00292187D01*
X00194525Y0043265D02*
X0020193Y00440056D01*
X00194525Y00412516D02*
Y0043265D01*
Y00412516D02*
X00200041Y00406999D01*
X00217003*
Y00374546D02*
X00217632Y00373917D01*
X00217003Y00374546D02*
Y00406999D01*
X00248537Y00483766D02*
X00249207Y00483096D01*
X00258037Y00531249D02*
X00279273D01*
X00300174Y00510348*
Y00486845D02*
Y00510348D01*
X00248537Y00478796D02*
X00249166Y00478167D01*
X00280074Y00588265D02*
X00280743Y00587596D01*
X0033171Y00591345D02*
Y00614848D01*
X00363358Y00656906D02*
Y00667783D01*
X00355257Y00648806D02*
X00363358Y00656906D01*
X00257595Y006414D02*
X00265001Y00648806D01*
X00257595Y00621266D02*
Y006414D01*
Y00621266D02*
X00263112Y00615749D01*
X00280074*
Y00583296D02*
X00280703Y00582667D01*
X00280074Y00583296D02*
Y00615749D01*
X00437783Y00803708D02*
Y00824995D01*
X00446286Y00833499*
X00478499*
X00343189Y00801515D02*
X00343859Y00800846D01*
X00352689Y00848999D02*
X00373925D01*
X00394826Y00828098*
Y00804595D02*
Y00828098D01*
X00426474Y00870156D02*
Y00881032D01*
X00418373Y00862056D02*
X00426474Y00870156D01*
X00328117Y00862056D02*
X00418373D01*
X00320711Y0085465D02*
X00328117Y00862056D01*
X00320711Y00834517D02*
Y0085465D01*
Y00834517D02*
X00326228Y00828999D01*
X00343189*
Y00796546D02*
X00343818Y00795917D01*
X00343189Y00796546D02*
Y00828999D01*
X00374701Y00906265D02*
X00375371Y00905596D01*
X00384201Y00953749D02*
X00405436D01*
X00426339Y00932848*
Y00909345D02*
Y00932848D01*
X00457986Y00974906D02*
Y00985782D01*
X00449885Y00966806D02*
X00457986Y00974906D01*
X00374701Y00901296D02*
X0037533Y00900667D01*
X00457837Y01014345D02*
Y01037848D01*
X00406201Y01006296D02*
Y01038749D01*
X00508925Y01105249D02*
X00578999D01*
X00438012Y01110046D02*
X00438641Y01109417D01*
X00421051Y01142499D02*
X00438012D01*
X00415534Y01148016D02*
X00421051Y01142499D01*
X00415534Y01148016D02*
Y0116815D01*
X0042294Y01175556*
X00521296Y01183656D02*
Y01194532D01*
X00438012Y01115015D02*
X00438682Y01114346D01*
X00552332Y01288656D02*
Y01299533D01*
X00544232Y01280556D02*
X00552332Y01288656D01*
X00478548Y01267499D02*
X00499783D01*
X00520684Y01246598*
Y01223095D02*
Y01246598D01*
X00469048Y01215046D02*
X00469677Y01214417D01*
X00552337Y01328345D02*
Y01351848D01*
X00531436Y01372749D02*
X00552337Y01351848D01*
X00510201Y01372749D02*
X00531436D01*
X00500701Y01326506D02*
X00502743Y01324464D01*
X00500701Y01326506D02*
Y01352749D01*
X00575804Y01362749D02*
X00605249D01*
X00557908Y01380645D02*
X00575804Y01362749D01*
X00557908Y01380645D02*
Y01419993D01*
X00522615Y01435119D02*
X00522859Y01435363D01*
Y01455999*
X00592764Y01434944D02*
X00595043Y01432664D01*
X00592764Y01434944D02*
Y01508425D01*
X00548746Y01508426D02*
X00549272Y01508952D01*
X00539276Y01508426D02*
X00548746D01*
X00532359Y01501508D02*
X00539276Y01508426D01*
X00532359Y01475999D02*
Y01501508D01*
X00554651Y01538627D02*
X00556701Y01536577D01*
X00554651Y01538627D02*
Y01561499D01*
X00619442Y01524991D02*
X00620376Y01525925D01*
X00579163Y01613076D02*
X00582887D01*
Y01607897D02*
Y01613076D01*
X00564151Y01589161D02*
X00582887Y01607897D01*
X00564151Y01581499D02*
Y01589161D01*
X00576498Y01615741D02*
X00579163Y01613076D01*
X00576498Y01615741D02*
Y01624749D01*
X00622516Y01657573D02*
X00623485Y01656604D01*
X00590162Y01657573D02*
X00622516D01*
X00585998Y01653409D02*
X00590162Y01657573D01*
X00585998Y01644749D02*
Y01653409D01*
G54D37*
X01466852Y00460577D02*
Y00584622D01*
X01231072Y00224796D02*
X01466852Y00460577D01*
X0097708Y00224796D02*
X01231072D01*
X02755577Y00157059D02*
X04720097D01*
X00197195D02*
X02755577D01*
X04722084Y00460424D02*
X04779103Y00403405D01*
X04614563Y00567946D02*
X04722084Y00460424D01*
X04476506Y00706002D02*
X04614563Y00567946D01*
X0431311Y00869399D02*
X04476506Y00706002D01*
X0423263Y00949879D02*
X0431311Y00869399D01*
X0423263Y01104435D02*
Y01365638D01*
Y00949879D02*
Y01104435D01*
X04779103Y00216065D02*
Y00403405D01*
X04178277Y01419991D02*
X0423263Y01365638D01*
X04171049Y01419991D02*
X04178277D01*
X00384342Y01534027D02*
X00392134Y01526235D01*
X00384342Y01534027D02*
Y01564225D01*
X00403344Y01553373D02*
X00579633Y01729662D01*
X04720097Y00157059D02*
X04779103Y00216065D01*
X00121508Y00232746D02*
X00197195Y00157059D01*
X00177115Y00476855D02*
Y00794145D01*
X00121508Y00421248D02*
X00177115Y00476855D01*
X00121508Y00232746D02*
Y00421248D01*
X00177115Y00794145D02*
X00295225Y00912256D01*
Y0119929*
X00402937Y01307001D02*
Y01489419D01*
X00295225Y0119929D02*
X00402937Y01307001D01*
X00317686Y0118938D02*
X00459924Y01331618D01*
X00317686Y00903403D02*
Y0118938D01*
X00199356Y00785073D02*
X00317686Y00903403D01*
X00199356Y00466325D02*
Y00785073D01*
X00459924Y01331618D02*
Y01491552D01*
X02760356Y01751033D02*
X02879485D01*
X0057115D02*
X02760356D01*
X03835668Y00342335D02*
X03896745Y00281258D01*
X03829731Y00348272D02*
X03835668Y00342335D01*
X02879485Y01751033D02*
X03180937D01*
X03413482*
X03494853Y01669662D02*
X03758742Y01405773D01*
X03413482Y01751033D02*
X03494853Y01669662D01*
X03829731Y01314208D02*
Y01079616D01*
Y01001108D02*
Y01079616D01*
Y00874546D02*
Y01001108D01*
Y00684904D02*
Y00874546D01*
Y00603926D02*
Y00684904D01*
Y00603926D02*
Y00361239D01*
Y00348272D02*
Y00361239D01*
X03758742Y01405773D02*
X03829731Y01334784D01*
Y01314208D02*
Y01334784D01*
X03896745Y00281258D02*
X03995951Y00182052D01*
X00384342Y01564225D02*
X0057115Y01751033D01*
X04247564Y00182052D02*
X04543865D01*
X03995951D02*
X04247564D01*
X04558603Y0019679D02*
Y00249004D01*
X04543865Y00182052D02*
X04558603Y0019679D01*
Y00249004D02*
X04559591Y00249991D01*
X01796219Y01473201D02*
X0182849Y0144093D01*
X01768146Y01501274D02*
X01796219Y01473201D01*
X00717809Y01729662D02*
X01606478D01*
X01519866Y00637636D02*
X018338D01*
X01466852Y00584622D02*
X01519866Y00637636D01*
X01835754Y0085778D02*
X01835822Y00635614D01*
X01835839Y00581216*
X018338Y00637636D02*
X01835822Y00635614D01*
X01679649Y015132D02*
X0175622D01*
X01486252Y00370494D02*
X01538042D01*
X0146879Y00353031D02*
X01486252Y00370494D01*
X0146879Y00240955D02*
Y00353031D01*
Y00240955D02*
X01522962Y00186783D01*
X01835847Y00553859D02*
X01835857Y00522045D01*
X0183588Y00445916*
X01835647Y01206361D02*
X01835659Y01166117D01*
X01835742Y00895524*
X01835754Y0085778*
X01835839Y00581216D02*
X01835847Y00553859D01*
X0183588Y00445916D02*
X01835884Y00433662D01*
Y00414001D02*
Y00433662D01*
Y00390586D02*
Y00414001D01*
X01835583Y01414031D02*
X01835647Y01206361D01*
X01835577Y01433843D02*
X01835583Y01414031D01*
X0182849Y0144093D02*
X01835577Y01433843D01*
X0175622Y015132D02*
X01768146Y01501274D01*
X00637443Y01729662D02*
X00717809D01*
X00579633D02*
X00637443D01*
X00786112Y00224796D02*
X0097708D01*
X00786112Y00579999D02*
Y0061064D01*
Y00577342D02*
Y00579999D01*
Y00577342D02*
Y00224796D01*
X00348155D02*
X00786112D01*
X01835461Y00186783D02*
X02188191D01*
X01522962D02*
X01835461D01*
X02196376Y00194968D02*
X02405729Y0040432D01*
X02188191Y00186783D02*
X02196376Y00194968D01*
X02405729Y0040432D02*
X02527588Y0052618D01*
Y00756015D02*
Y00809489D01*
Y0052618D02*
Y00756015D01*
Y00809489D02*
Y01067759D01*
Y01124255*
Y01395237*
X02436606Y01486219D02*
X02527588Y01395237D01*
X02228007Y01694819D02*
X02436606Y01486219D01*
X02193163Y01729662D02*
X02228007Y01694819D01*
X01908631Y01729662D02*
X02193163D01*
X01606478D02*
X01908631D01*
X00146577Y00413546D02*
X00199356Y00466325D01*
X00146577Y00242903D02*
Y00413546D01*
X00164683Y00224796D02*
X00348155D01*
X00786112Y0061064D02*
Y00863594D01*
X00722307Y00967767D02*
X00786112Y00903961D01*
X00683156Y01006918D02*
X00722307Y00967767D01*
X00786112Y00863594D02*
Y00903961D01*
X00683156Y01006918D02*
Y01104992D01*
Y01345048*
X00676904Y013513D02*
X00683156Y01345048D01*
X00665455Y01362749D02*
X00676904Y013513D01*
X00146577Y00242903D02*
X00164683Y00224796D01*
X00638377Y01362749D02*
X00665455D01*
G54D38*
X03339759Y00719987D02*
X03389239D01*
X03014806D02*
X03339759D01*
X03449287D02*
X03490887D01*
X03389239D02*
X03449287D01*
X03013982Y00719164D02*
X03014806Y00719987D01*
X00392134Y01526235D02*
D01*
X0039547Y01522899D01*
X00426699*
X00403344Y01543425D02*
Y01553373D01*
Y01543425D02*
X0041117Y01535599D01*
X00426699*
X00402937Y01489419D02*
X00411016Y01497499D01*
X00337159Y00964598D02*
X00375737Y01003176D01*
X00337159Y00897166D02*
Y00964598D01*
X00375737Y01012819D02*
Y01150593D01*
X00432106Y01206963*
Y01277338*
X00453578Y01298809*
X00218256Y00491705D02*
Y00707491D01*
X00283236Y00772471*
X00218256Y00491705D02*
X00221689Y00488272D01*
X00232949*
X00411016Y01497499D02*
X00426699D01*
X00477134Y01339795D02*
X00489851Y01327078D01*
X00477134Y01339795D02*
Y01525969D01*
X00638896Y01684269D02*
Y0172821D01*
X01486252Y01727173D02*
Y01622397D01*
Y01315039*
Y0100231*
Y00695012*
X01494157Y00687107*
X01547475D02*
X01549591Y00684991D01*
X01494157Y00687107D02*
X01547475D01*
X01107781Y00672504D02*
Y0081793D01*
X01045332Y00880379D02*
X01107781Y0081793D01*
X01045332Y00880379D02*
Y00972125D01*
X01177333Y0059423D02*
Y00602953D01*
X01107781Y00672504D02*
X01177333Y00602953D01*
X00717809Y01684269D02*
Y01729662D01*
X00637443D02*
X00638896Y0172821D01*
X00375737Y01003176D02*
Y01012819D01*
X00994192Y01036913D02*
Y01147259D01*
X00936892Y0120456D02*
X00994192Y01147259D01*
Y01023265D02*
X01045332Y00972125D01*
X00936892Y0120456D02*
Y01329055D01*
X00459924Y01491552D02*
Y01503308D01*
X00467504Y01535599D02*
X00477134Y01525969D01*
X00453033Y01510199D02*
X00459924Y01503308D01*
X00426699Y01510199D02*
X00453033D01*
X00283236Y00772471D02*
X00305946Y0079518D01*
X01177333Y00469885D02*
Y0059423D01*
X00994192Y01023265D02*
Y01036913D01*
X00936892Y01329055D02*
Y01335395D01*
X00859227Y01413059D02*
X00936892Y01335395D01*
X01177333Y00469885D02*
X01206039Y00441179D01*
Y00386043D02*
Y00441179D01*
X00859227Y01728364D02*
Y01413059D01*
X01200987Y00380991D02*
X01206039Y00386043D01*
X01184318Y00380991D02*
X01200987D01*
X00453578Y01298809D02*
X0048662D01*
X00305946Y00865953D02*
X00337159Y00897166D01*
X00305946Y0079518D02*
Y00865953D01*
X00426699Y01535599D02*
X00467504D01*
G54D39*
X0333959Y00719818D02*
X03339759Y00719987D01*
X0333959Y00399833D02*
Y00719818D01*
X04454591Y00407974D02*
X04614563Y00567946D01*
X04454591Y0039566D02*
Y00407974D01*
X04245503Y00474999D02*
X04476506Y00706002D01*
X04167499Y00474999D02*
X04245503D01*
X00813666Y00742365D02*
X00840629D01*
X03064558Y01052957D02*
Y01068907D01*
X03096457Y01100806*
X03448018*
X03455487Y01093337*
Y01084879D02*
Y01093337D01*
X03312072Y00189094D02*
X03682427D01*
X03023505D02*
X03312072D01*
X03002913Y0023374D02*
X03011625Y00225028D01*
Y00200974D02*
Y00225028D01*
Y00200974D02*
X03023505Y00189094D01*
X03682427D02*
X03835668Y00342335D01*
X02990448Y0023374D02*
X03002913D01*
X03829359Y01079988D02*
X03829731Y01079616D01*
X03539134Y01079988D02*
X03829359D01*
X03758742Y01405773D02*
X03967226Y01614257D01*
X03981219*
X01490223Y00254666D02*
X01510262Y00234628D01*
X01490223Y00254666D02*
Y0027895D01*
X0154733Y00336058*
X01510262Y00234628D02*
X01572649D01*
X01833806Y00524096D02*
X01835857Y00522045D01*
X01689589Y00524096D02*
X01833806D01*
X01105563Y00656236D02*
X01113175Y00663848D01*
X01835659Y01166117D02*
X01839534Y01169991D01*
X02292898*
X01835754Y0085778D02*
X01837965Y00859991D01*
X02307732*
X01836066Y00544761D02*
X02259063D01*
X0183588Y00445916D02*
X01837682Y00447718D01*
X02142612*
X01834614Y00579991D02*
X01835839Y00581216D01*
X01835209Y00894991D02*
X01835742Y00895524D01*
X01832009Y01209999D02*
X01835647Y01206361D01*
X01835583Y01414031D02*
X01835912Y01414358D01*
X02227591*
X01658675Y00336058D02*
X0167334Y00350723D01*
Y00363031*
X0154733Y00336058D02*
X01658675D01*
X01572649Y00234628D02*
X01578178Y00240157D01*
Y00247388*
X00808318Y00671357D02*
X00854701Y00624974D01*
X00808318Y00671357D02*
Y00737017D01*
X00813666Y00742365*
X01022952Y00656236D02*
X01105563D01*
X0099169Y00624974D02*
X01022952Y00656236D01*
X00854701Y00624974D02*
X0099169D01*
G54D40*
X03450938Y00429989D02*
Y00718336D01*
X03013982Y01139382D02*
X03014588Y01139988D01*
X03387452*
X00972552Y00229324D02*
X0097708Y00224796D01*
X00972552Y00229324D02*
Y00269379D01*
X00986164Y00282991*
X01012715*
X00441749Y00579999D02*
X00786112D01*
G54D41*
X03013982Y00719164D02*
Y00858228D01*
Y0068395D02*
Y00719164D01*
X02957436Y00491464D02*
X03013982Y00548011D01*
X02923324Y00457352D02*
X02957436Y00491464D01*
X0289706Y00431089D02*
X02923324Y00457352D01*
X03013982Y00874265D02*
Y01139382D01*
Y00858228D02*
Y00874265D01*
Y00548011D02*
Y0068395D01*
X02802894Y00431089D02*
X0289706D01*
X02755577Y00383772D02*
X02802894Y00431089D01*
X02755577Y00157059D02*
Y00383772D01*
X03013982Y01139382D02*
Y01178036D01*
X03090749Y0143299D02*
Y01496342D01*
Y01292238D02*
Y0143299D01*
Y01496342D02*
Y01519131D01*
X03013982Y01178036D02*
Y01215471D01*
X03090749Y01519131D02*
Y01541662D01*
X03013982Y01215471D02*
X03090749Y01292238D01*
G54D42*
X02760356Y00789895D02*
Y00997559D01*
Y00483998D02*
Y00789895D01*
Y00997559D02*
Y01316904D01*
Y01619654*
Y01751033*
X02769364Y0047499D02*
X02824591D01*
X02760356Y00483998D02*
X02769364Y0047499D01*
G54D43*
X03084072Y00045369D02*
X03078025Y00061241D01*
X03071979Y00045369*
X03074246Y0005066D02*
X03081804D01*
X03087775Y00061241D02*
Y00045369D01*
Y00061241D02*
X03093065D01*
X03095333Y00060485*
X03096844Y00058973*
X030976Y00057462*
X03098356Y00055194*
Y00051415*
X030976Y00049149*
X03096844Y00047636*
X03095333Y00046125*
X03093065Y00045369*
X03087775*
X03101908Y00061241D02*
X03107955Y00045369D01*
X03114001Y00061241D02*
X03107955Y00045369D01*
X02628761Y00061121D02*
X02637074D01*
X0263254Y00055074*
X02634807*
X02636319Y00054319*
X02637074Y00053563*
X0263783Y00051295*
Y00049784*
X02637074Y00047516*
X02635563Y00046005*
X02633295Y00045249*
X02631028*
X02628761Y00046005*
X02628005Y00046761*
X02627249Y00048272*
X02645918Y00061121D02*
X0264365Y00060365D01*
X02642138Y00058097*
X02641382Y00054319*
Y00052051*
X02642138Y00048272*
X0264365Y00046005*
X02645918Y00045249*
X02647429*
X02649696Y00046005*
X02651207Y00048272*
X02651963Y00052051*
Y00054319*
X02651207Y00058097*
X02649696Y00060365*
X02647429Y00061121*
X02645918*
X0266005D02*
X02657783Y00060365D01*
X02656271Y00058097*
X02655515Y00054319*
Y00052051*
X02656271Y00048272*
X02657783Y00046005*
X0266005Y00045249*
X02661562*
X02663829Y00046005*
X02665341Y00048272*
X02666097Y00052051*
Y00054319*
X02665341Y00058097*
X02663829Y00060365*
X02661562Y00061121*
X0266005*
X02674184D02*
X02671916Y00060365D01*
X02670405Y00058097*
X02669649Y00054319*
Y00052051*
X02670405Y00048272*
X02671916Y00046005*
X02674184Y00045249*
X02675695*
X02677963Y00046005*
X02679474Y00048272*
X0268023Y00052051*
Y00054319*
X02679474Y00058097*
X02677963Y00060365*
X02675695Y00061121*
X02674184*
X02683782Y00058097D02*
X02685294Y00058853D01*
X02687561Y00061121*
Y00045249*
X02702979Y00061121D02*
X02695421Y00050539D01*
X02706758*
X02702979Y00061121D02*
Y00045249D01*
X0271938Y0005583D02*
X02718624Y00053563D01*
X02717112Y00052051*
X02714845Y00051295*
X02714089*
X02711822Y00052051*
X0271031Y00053563*
X02709554Y0005583*
Y00056586*
X0271031Y00058853*
X02711822Y00060365*
X02714089Y00061121*
X02714845*
X02717112Y00060365*
X02718624Y00058853*
X0271938Y0005583*
Y00052051*
X02718624Y00048272*
X02717112Y00046005*
X02714845Y00045249*
X02713333*
X02711066Y00046005*
X0271031Y00047516*
X02746739Y00058853D02*
X02745228Y00060365D01*
X0274296Y00061121*
X02739937*
X0273767Y00060365*
X02736158Y00058853*
Y00057342*
X02736914Y0005583*
X0273767Y00055074*
X02739181Y00054319*
X02743716Y00052807*
X02745228Y00052051*
X02745983Y00051295*
X02746739Y00049784*
Y00047516*
X02745228Y00046005*
X0274296Y00045249*
X02739937*
X0273767Y00046005*
X02736158Y00047516*
X02750292Y00051295D02*
X02759361D01*
Y00052807*
X02758605Y00054319*
X0275785Y00055074*
X02756338Y0005583*
X02754071*
X02752559Y00055074*
X02751047Y00053563*
X02750292Y00051295*
Y00049784*
X02751047Y00047516*
X02752559Y00046005*
X02754071Y00045249*
X02756338*
X0275785Y00046005*
X02759361Y00047516*
X02771832Y0005583D02*
Y00043737D01*
X02771076Y0004147*
X0277032Y00040714*
X02768809Y00039958*
X02766541*
X0276503Y00040714*
X02771832Y00053563D02*
X0277032Y00055074D01*
X02768809Y0005583*
X02766541*
X0276503Y00055074*
X02763518Y00053563*
X02762762Y00051295*
Y00049784*
X02763518Y00047516*
X0276503Y00046005*
X02766541Y00045249*
X02768809*
X0277032Y00046005*
X02771832Y00047516*
X02776064Y00058097D02*
X02777576Y00058853D01*
X02779843Y00061121*
Y00045249*
X02979142Y00057457D02*
Y00058213D01*
X02979898Y00059725*
X02980654Y00060481*
X02982166Y00061236*
X02985189*
X029867Y00060481*
X02987456Y00059725*
X02988212Y00058213*
Y00056702*
X02987456Y0005519*
X02985944Y00052923*
X02978386Y00045365*
X02988968*
X02993276Y00057457D02*
Y00058213D01*
X02994032Y00059725*
X02994787Y00060481*
X02996299Y00061236*
X02999322*
X03000834Y00060481*
X03001589Y00059725*
X03002345Y00058213*
Y00056702*
X03001589Y0005519*
X03000078Y00052923*
X0299252Y00045365*
X03003101*
X03007409Y00057457D02*
Y00058213D01*
X03008165Y00059725*
X03008921Y00060481*
X03010432Y00061236*
X03013456*
X03014967Y00060481*
X03015723Y00059725*
X03016478Y00058213*
Y00056702*
X03015723Y0005519*
X03014211Y00052923*
X03006653Y00045365*
X03017234*
X03021542Y00057457D02*
Y00058213D01*
X03022298Y00059725*
X03023054Y00060481*
X03024565Y00061236*
X03027589*
X030291Y00060481*
X03029856Y00059725*
X03030612Y00058213*
Y00056702*
X03029856Y0005519*
X03028344Y00052923*
X03020786Y00045365*
X03031367*
X02833968Y00061236D02*
X0282641Y00045365D01*
X02823386Y00061236D02*
X02833968D01*
X0283752Y00052923D02*
X02844322D01*
X02846589Y00053678*
X02847345Y00054434*
X02848102Y00055946*
Y00058213*
X02847345Y00059725*
X02846589Y00060481*
X02844322Y00061236*
X0283752*
Y00045365*
X02856188Y00061236D02*
X02853921Y00060481D01*
X02852409Y00058213*
X02851653Y00054434*
Y00052167*
X02852409Y00048388*
X02853921Y00046121*
X02856188Y00045365*
X028577*
X02859967Y00046121*
X02861478Y00048388*
X02862234Y00052167*
Y00054434*
X02861478Y00058213*
X02859967Y00060481*
X028577Y00061236*
X02856188*
X02870321D02*
X02868054Y00060481D01*
X02866542Y00058213*
X02865786Y00054434*
Y00052167*
X02866542Y00048388*
X02868054Y00046121*
X02870321Y00045365*
X02871833*
X028741Y00046121*
X02875612Y00048388*
X02876367Y00052167*
Y00054434*
X02875612Y00058213*
X028741Y00060481*
X02871833Y00061236*
X02870321*
X02888989D02*
X02881431D01*
X02880676Y00054434*
X02881431Y0005519*
X02883699Y00055946*
X02885966*
X02888234Y0005519*
X02889745Y00053678*
X02890501Y00051411*
Y00049899*
X02889745Y00047632*
X02888234Y00046121*
X02885966Y00045365*
X02883699*
X02881431Y00046121*
X02880676Y00046876*
X0287992Y00048388*
X02898588Y00061236D02*
X0289632Y00060481D01*
X02894809Y00058213*
X02894053Y00054434*
Y00052167*
X02894809Y00048388*
X0289632Y00046121*
X02898588Y00045365*
X02900099*
X02902367Y00046121*
X02903878Y00048388*
X02904634Y00052167*
Y00054434*
X02903878Y00058213*
X02902367Y00060481*
X02900099Y00061236*
X02898588*
X02912721D02*
X02910454Y00060481D01*
X02908942Y00058213*
X02908186Y00054434*
Y00052167*
X02908942Y00048388*
X02910454Y00046121*
X02912721Y00045365*
X02914233*
X029165Y00046121*
X02918011Y00048388*
X02918767Y00052167*
Y00054434*
X02918011Y00058213*
X029165Y00060481*
X02914233Y00061236*
X02912721*
X02934412Y00045365D02*
X02928366Y00061236D01*
X0292232Y00045365*
X02924587Y00050655D02*
X02932145D01*
X00340943Y01609231D02*
X00357606D01*
X00340943D02*
Y01616372D01*
X00341736Y01618752*
X0034253Y01619546*
X00344117Y01620339*
X00345704*
X00347291Y01619546*
X00348084Y01618752*
X00348878Y01616372*
Y01609231*
Y01614785D02*
X00357606Y01620339D01*
X00351258Y01624069D02*
Y0163359D01*
X00349671*
X00348084Y01632797*
X00347291Y01632004*
X00346497Y01630417*
Y01628036*
X00347291Y01626449*
X00348878Y01624862*
X00351258Y01624069*
X00352845*
X00355225Y01624862*
X00356812Y01626449*
X00357606Y01628036*
Y01630417*
X00356812Y01632004*
X00355225Y0163359*
X00346497Y01637161D02*
X00357606Y01641922D01*
X00346497Y01646683D02*
X00357606Y01641922D01*
X00356019Y01650174D02*
X00356812Y01649381D01*
X00357606Y01650174*
X00356812Y01650968*
X00356019Y01650174*
X00357606Y01680406D02*
X00340943Y01674058D01*
X00357606Y0166771*
X00352051Y01670091D02*
Y01678025D01*
X00357606Y01356926D02*
X00340943Y01350579D01*
X00357606Y01344231*
X00352051Y01346611D02*
Y01354546D01*
X00346497Y01360814D02*
X00357606D01*
X00351258D02*
X00348878Y01361608D01*
X00347291Y01363195*
X00346497Y01364782*
Y01367162*
X00340943Y0137105D02*
X00354432D01*
X00356812Y01371844*
X00357606Y01373431*
Y01375018*
X00346497Y0136867D02*
Y01374224D01*
X00356019Y01378192D02*
X00356812Y01377398D01*
X00357606Y01378192*
X00356812Y01378985*
X00356019Y01378192*
X00340943Y01395728D02*
X00357606D01*
X00340943D02*
X00357606Y01406836D01*
X00340943D02*
X00357606D01*
X00346497Y01411439D02*
X00357606D01*
X00351258D02*
X00348878Y01412232D01*
X00347291Y01413819*
X00346497Y01415406*
Y01417786*
X00356019Y01420088D02*
X00356812Y01419294D01*
X00357606Y01420088*
X00356812Y01420881*
X00356019Y01420088*
X00340943Y01445818D02*
Y01454546D01*
X00347291Y01449785*
Y01452165*
X00348084Y01453752*
X00348878Y01454546*
X00351258Y01455339*
X00352845*
X00355225Y01454546*
X00356812Y01452959*
X00357606Y01450579*
Y01448198*
X00356812Y01445818*
X00356019Y01445024*
X00354432Y01444231*
X00340943Y01467004D02*
X00352051Y01459069D01*
Y01470971*
X00340943Y01467004D02*
X00357606D01*
X00340943Y01478668D02*
X00341736Y01476287D01*
X00344117Y014747*
X00348084Y01473907*
X00350465*
X00354432Y014747*
X00356812Y01476287*
X00357606Y01478668*
Y01480255*
X00356812Y01482635*
X00354432Y01484222*
X00350465Y01485016*
X00348084*
X00344117Y01484222*
X00341736Y01482635*
X00340943Y01480255*
Y01478668*
Y01493506D02*
X00341736Y01491125D01*
X00344117Y01489538*
X00348084Y01488745*
X00350465*
X00354432Y01489538*
X00356812Y01491125*
X00357606Y01493506*
Y01495093*
X00356812Y01497473*
X00354432Y0149906*
X00350465Y01499854*
X00348084*
X00344117Y0149906*
X00341736Y01497473*
X00340943Y01495093*
Y01493506*
X00344117Y01503583D02*
X00343323Y0150517D01*
X00340943Y01507551*
X00357606*
X00343323Y01525324D02*
X00341736Y01524531D01*
X00340943Y01522151*
Y01520564*
X00341736Y01518183*
X00344117Y01516596*
X00348084Y01515803*
X00352051*
X00355225Y01516596*
X00356812Y01518183*
X00357606Y01520564*
Y01521357*
X00356812Y01523738*
X00355225Y01525324*
X00352845Y01526118*
X00352051*
X00349671Y01525324*
X00348084Y01523738*
X00347291Y01521357*
Y01520564*
X00348084Y01518183*
X00349671Y01516596*
X00352051Y01515803*
X00340943Y01537703D02*
X00352051Y01529768D01*
Y0154167*
X00340943Y01537703D02*
X00357606D01*
X00340943Y01548574D02*
X00341736Y01546193D01*
X00343323Y015454*
X0034491*
X00346497Y01546193*
X00347291Y0154778*
X00348084Y01550954*
X00348878Y01553335*
X00350465Y01554921*
X00352051Y01555715*
X00354432*
X00356019Y01554921*
X00356812Y01554128*
X00357606Y01551748*
Y01548574*
X00356812Y01546193*
X00356019Y015454*
X00354432Y01544606*
X00352051*
X00350465Y015454*
X00348878Y01546987*
X00348084Y01549367*
X00347291Y01552541*
X00346497Y01554128*
X0034491Y01554921*
X00343323*
X00341736Y01554128*
X00340943Y01551748*
Y01548574*
X0049514Y01566782D02*
Y01552499D01*
X00487999Y0155964D02*
X00502282D01*
X00514749Y01552738D02*
X00516336Y01553532D01*
X00518716Y01555912*
Y01539249*
G54D44*
X00300265Y0004996D03*
X01300263Y0004999D03*
X02300264D03*
X03300264D03*
X04300265D03*
X04800265Y01849992D03*
X03800264D03*
X02800266D03*
X01800266D03*
X00800265D03*
X00050264Y01850023D03*
G54D45*
X00494999Y01522899D03*
Y01510199D03*
Y01497499D03*
Y01535599D03*
M02*